<?xml version="1.0" encoding="UTF-8"?><svg id="Layer_2" xmlns="http://www.w3.org/2000/svg" viewBox="0 0 2889.06 477.69"><defs><style>.cls-1{fill:#f9cc35;}.cls-2{fill:#fc5239;}.cls-3{fill:#fa8474;}.cls-4{fill:#060606;}.cls-5{fill:#ffe36e;}.cls-6{fill:#ff8983;}.cls-7,.cls-8{fill:#fed600;}.cls-9{fill:#070707;}.cls-10{fill:#6ee5c6;}.cls-11{fill:#3a75a5;}.cls-12{fill:#5ee0ea;}.cls-13{fill:#50cfb2;}.cls-8{stroke:#fed600;stroke-linecap:round;stroke-linejoin:round;stroke-width:2px;}.cls-14{opacity:.4;}.cls-15{opacity:.5;}.cls-16{opacity:.7;}</style></defs><g id="Layer_1-2"><g><g><polygon class="cls-10" points="1170.06 68.06 1162.07 78.05 1146.14 97.96 1126.98 121.9 1117.45 110.18 1109.44 100.35 1109.45 100.34 1144.68 81.14 1100.85 90.09 1092.72 82.72 1086.68 76.29 1170.06 68.06"/><path class="cls-10" d="m1126.98,122.9c-.3,0-.59-.14-.78-.37l-17.54-21.55c-.31-.38-.3-.94.04-1.3.07-.08.17-.16.27-.22l29.37-16.01-37.29,7.62c-.31.06-.64-.03-.87-.24l-8.13-7.37-6.1-6.49c-.26-.28-.34-.68-.21-1.04.13-.36.46-.61.84-.64l83.38-8.23c.4-.04.78.16.98.52.19.35.15.79-.1,1.1l-43.08,53.84c-.19.24-.44.41-.78.38Zm-16.01-22.25l16,19.66,40.82-51.02-79,7.8,4.65,4.95,7.7,6.97,43.33-8.85c.49-.1.97.17,1.14.64.17.46-.03.98-.46,1.22l-34.19,18.63Z"/></g><g class="cls-15"><path class="cls-12" d="m1787.74,134.05v24.59c0,3.15-2.56,5.72-5.72,5.72h-43.83v35.01c0,8.03-6.51,14.53-14.53,14.53h-24.59c-3.15,0-5.72-2.56-5.72-5.72v-43.82h-35.01c-8.03,0-14.54-6.51-14.54-14.54v-24.58c0-3.16,2.56-5.72,5.72-5.72h43.83v-35.02c0-8.02,6.51-14.53,14.53-14.53h24.59c3.16,0,5.72,2.56,5.72,5.72v43.83h35.02c8.02,0,14.53,6.51,14.53,14.53Z"/><path class="cls-12" d="m1723.67,214.89h-24.59c-3.7,0-6.72-3.01-6.72-6.72v-42.82h-34.01c-8.57,0-15.54-6.97-15.54-15.54v-24.58c0-3.7,3.01-6.72,6.72-6.72h42.83v-34.02c0-8.56,6.97-15.53,15.53-15.53h24.59c3.7,0,6.72,3.01,6.72,6.72v42.83h34.02c8.56,0,15.53,6.97,15.53,15.53v24.59c0,3.7-3.01,6.72-6.72,6.72h-42.83v34.01c0,8.56-6.97,15.53-15.53,15.53Zm-74.13-94.37c-2.6,0-4.72,2.12-4.72,4.72v24.58c0,7.46,6.07,13.54,13.54,13.54h35.01c.55,0,1,.45,1,1v43.82c0,2.6,2.12,4.72,4.72,4.72h24.59c7.46,0,13.53-6.07,13.53-13.53v-35.01c0-.55.45-1,1-1h43.83c2.6,0,4.72-2.12,4.72-4.72v-24.59c0-7.46-6.07-13.53-13.53-13.53h-35.02c-.55,0-1-.45-1-1v-43.83c0-2.6-2.12-4.72-4.72-4.72h-24.59c-7.46,0-13.53,6.07-13.53,13.53v35.02c0,.55-.45,1-1,1h-43.83Z"/></g><path d="m1723.67,214.89h-24.58c-3.7,0-6.72-3.01-6.72-6.72v-43.82c0-.55.45-1,1-1s1,.45,1,1v43.82c0,2.6,2.12,4.72,4.72,4.72h24.58c7.46,0,13.53-6.07,13.53-13.53v-35.01c0-.55.45-1,1-1s1,.45,1,1v35.01c0,8.56-6.97,15.53-15.53,15.53Z"/><path d="m1738.2,120.52c-.55,0-1-.45-1-1v-43.83c0-2.6-2.12-4.72-4.72-4.72h-24.58c-7.46,0-13.53,6.07-13.53,13.53v35.02c0,.55-.45,1-1,1s-1-.45-1-1v-35.02c0-8.56,6.97-15.53,15.53-15.53h24.58c3.7,0,6.72,3.01,6.72,6.72v43.83c0,.55-.45,1-1,1Z"/><path d="m1693.36,165.35h-35.01c-8.56,0-15.53-6.97-15.53-15.53v-24.58c0-3.7,3.01-6.72,6.72-6.72h24.43c.55,0,1,.45,1,1s-.45,1-1,1h-24.43c-2.6,0-4.72,2.12-4.72,4.72v24.58c0,7.46,6.07,13.53,13.53,13.53h35.01c.55,0,1,.45,1,1s-.45,1-1,1Z"/><path d="m1782.02,165.35h-43.83c-.55,0-1-.45-1-1s.45-1,1-1h43.83c2.6,0,4.72-2.12,4.72-4.72,0-.55.45-1,1-1s1,.45,1,1c0,3.7-3.01,6.72-6.72,6.72Z"/><path d="m1787.74,144.08c-.55,0-1-.45-1-1v-9.03c0-7.46-6.07-13.53-13.53-13.53h-35.01c-.55,0-1-.45-1-1s.45-1,1-1h35.01c8.56,0,15.53,6.97,15.53,15.53v9.03c0,.55-.45,1-1,1Z"/><path class="cls-10" d="m2766.59,464.97s26.83-8.14,37.3-12.31c10.25-4.09,13.56-2.45,15.63-1.11,2.07,1.34,44.43,25.14,44.43,25.14h-91.79s-5.56-11.72-5.56-11.72Z"/><g><path class="cls-10" d="m38.31,452.05v1.62c0,1.66-.44,3.22-1.21,4.57-1.59,2.8-4.6,4.68-8.04,4.68-5.1,0-9.25-4.14-9.25-9.25v-26.62c0-5.1,4.14-9.25,9.25-9.25,1.66,0,3.2.43,4.55,1.2v22.51c0,4.19,1.82,7.96,4.7,10.55Z"/><path class="cls-10" d="m29.06,463.92c-5.65,0-10.25-4.6-10.25-10.25v-26.62c0-5.65,4.6-10.25,10.25-10.25,1.77,0,3.51.46,5.04,1.33.31.18.51.51.51.87v22.51c0,3.74,1.59,7.31,4.37,9.8.21.19.33.46.33.74v1.62c0,1.77-.46,3.52-1.34,5.06-1.82,3.2-5.24,5.19-8.91,5.19Zm0-45.12c-4.55,0-8.25,3.7-8.25,8.25v26.62c0,4.55,3.7,8.25,8.25,8.25,2.96,0,5.71-1.6,7.17-4.18.7-1.24,1.07-2.65,1.07-4.07v-1.18c-2.99-2.86-4.7-6.83-4.7-10.98v-21.9c-1.11-.53-2.3-.8-3.55-.8Z"/></g><path d="m29.06,463.92c-5.65,0-10.25-4.6-10.25-10.25v-26.62c0-5.05,3.62-9.31,8.61-10.12.54-.08,1.06.28,1.15.83.09.54-.28,1.06-.83,1.15-4.02.65-6.93,4.08-6.93,8.15v26.62c0,4.55,3.7,8.25,8.25,8.25,2.27,0,4.38-.9,5.96-2.54.38-.4,1.02-.41,1.41-.03.4.38.41,1.02.03,1.41-1.95,2.04-4.58,3.16-7.4,3.16Z"/><path d="m38.31,453.05c-.24,0-.48-.08-.67-.26-3.2-2.87-5.03-6.99-5.03-11.29v-22.51c0-.55.45-1,1-1s1,.45,1,1v22.51c0,3.74,1.59,7.31,4.37,9.8.41.37.44,1,.08,1.41-.2.22-.47.33-.74.33Z"/><path d="m38.31,453.05c-.24,0-.48-.08-.67-.26-3.2-2.87-5.03-6.99-5.03-11.29v-22.51c0-.55.45-1,1-1s1,.45,1,1v22.51c0,3.74,1.59,7.31,4.37,9.8.41.37.44,1,.08,1.41-.2.22-.47.33-.74.33Z"/><path d="m29.06,477.57c-.55,0-1-.45-1-1v-24.79c0-.55.45-1,1-1s1,.45,1,1v24.79c0,.55-.45,1-1,1Z"/><path d="m1891.66,453.86c-.55,0-1-.45-1-1v-65.3c0-.55.45-1,1-1s1,.45,1,1v65.3c0,.55-.45,1-1,1Z"/><g><g><path class="cls-8" d="m2003.46,353.63v121.38s152,0,152,0v-121.45s-60.01-46.3-60.01-46.3l-15.95-12.3-47.52,36.67-16.55,12.77-11.97,9.23Zm40.62,23.77h70.86v40.25h-70.86v-40.25Z"/><g><path class="cls-10" d="m2328.77,394.94s-14.38-15.82-21.22-17.27c-3.04-.64-6.03-3.59-8.67-5.91v104.93h48.94s48.93,0,48.93,0h119.96l-49.51-53.32c-6.05-4.84-4.57-5.15-18.26-4.06-13.7,1.08-20.2,5.07-29.1,1.8-6.23-2.27-22.81-12.85-34.92-21.38-.62-.43-1.23-.85-1.81-1.28-.52-.37-1.03-.73-1.52-1.09-.25-.18-.5-.37-.75-.54-.41-.3-.82-.6-1.22-.89-.4-.3-.79-.59-1.18-.87-.47-.36-.94-.7-1.38-1.04-.22-.16-.43-.33-.65-.5-.21-.16-.42-.32-.62-.48-.16-.12-.31-.25-.47-.37-.93-.73-1.74-1.39-2.39-1.96-7.87-6.88-12.67-9.08-21.23-6.35-.23.07-.46.15-.71.24-.24.08-.48.16-.73.25-.36.13-.74.26-1.11.41-.23.09-.45.17-.68.26-.68.26-1.36.54-2.08.83-.31.14-.64.28-.97.42-.57.24-1.14.49-1.71.74-.77.35-1.55.7-2.32,1.06h0c-.08.04-.16.08-.24.11l-12.4,6.27Z"/><path class="cls-10" d="m2347.83,477.69h-48.94c-.55,0-1-.45-1-1v-104.93c0-.39.23-.75.59-.91.36-.16.78-.1,1.07.16.32.28.64.57.96.86,2.27,2.03,4.83,4.33,7.25,4.83,6.41,1.36,18.55,14.12,21.24,17.01l11.91-6.01s.06-.03.09-.05c.78-.36,1.56-.72,2.33-1.07.57-.26,1.15-.51,1.73-.75.33-.14.64-.27.95-.41.75-.31,1.44-.59,2.13-.85l.67-.25c.33-.13.66-.25.98-.36l.16-.06c.2-.07.4-.14.6-.21l.15-.05c.24-.09.49-.17.73-.25,9.2-2.93,14.28-.35,22.18,6.55.59.52,1.34,1.13,2.35,1.93l.46.36c.15.12.29.23.43.33l.19.15c.22.17.42.33.63.48.27.21.53.4.8.6l1.76,1.31c.36.28.74.55,1.11.82l.1.07c.12.08.26.18.4.29l.33.24c.5.37,1.01.73,1.52,1.09.59.43,1.19.85,1.81,1.27,12.3,8.66,28.64,19.05,34.69,21.26,5.47,2.01,9.99,1.15,16.23-.04,3.52-.67,7.51-1.43,12.45-1.82,12.24-.98,12.72-.9,17.23,2.85.51.42,1.08.9,1.74,1.42.04.03.07.06.11.1l49.51,53.32c.27.29.34.72.18,1.08-.16.37-.52.6-.92.6h-168.89Zm-47.94-2h47.94s166.59,0,166.59,0l-47.9-51.59c-.65-.52-1.21-.98-1.71-1.4-3.93-3.27-4.01-3.34-15.79-2.4-4.83.38-8.76,1.13-12.23,1.79-6.32,1.2-11.31,2.15-17.3-.05-6.22-2.27-22.75-12.77-35.15-21.5-.62-.43-1.23-.86-1.83-1.29-.51-.36-1.03-.73-1.52-1.09l-.35-.25c-.13-.09-.25-.18-.37-.27l-.12-.08c-.39-.28-.77-.56-1.14-.84l-1.76-1.31c-.27-.21-.54-.41-.8-.61-.21-.15-.43-.33-.66-.5l-.17-.13c-.16-.12-.31-.24-.46-.36l-.44-.35c-1.06-.83-1.83-1.47-2.45-2.01-7.46-6.51-11.92-8.81-20.27-6.15-.22.07-.44.14-.67.23l-.17.06c-.18.06-.37.12-.55.19l-.16.06c-.3.11-.61.21-.91.34l-.68.26c-.68.26-1.35.53-2.06.83-.3.13-.63.27-.97.42-.56.23-1.12.48-1.68.73-.74.33-1.47.67-2.2,1.01-.05.03-.11.06-.17.09l-.23.1-12.31,6.23c-.4.2-.89.11-1.19-.22-.14-.16-14.23-15.6-20.69-16.96-2.66-.55-5.19-2.64-7.46-4.66v101.7Z"/></g><path d="m2384.92,400.72c-.2,0-.4-.06-.58-.18l-3.7-2.63c-.13-.09-.25-.18-.37-.27-.33-.24-.62-.46-.91-.67l-2.11-1.57c-.27-.2-.54-.41-.8-.6l-.83-.63c-.16-.12-.31-.24-.46-.36l-.44-.35c-1.06-.83-1.83-1.47-2.45-2.01-7.46-6.51-11.92-8.81-20.27-6.15-.22.07-.44.14-.67.23l-.17.06c-.18.06-.37.12-.55.19l-.16.06c-.3.11-.61.21-.91.34l-.45.16c-.07.02-.13.05-.19.08-.72.28-1.4.55-2.11.85-.3.13-.63.27-.97.42-.56.23-1.12.48-1.68.73-.77.35-1.55.7-2.32,1.06-.02.01-.08.04-.13.06-.49.25-1.13.07-1.38-.42-.25-.49-.09-1.08.4-1.33.06-.03.11-.05.17-.08.01,0,.09-.04.1-.05.78-.36,1.56-.72,2.33-1.07.57-.26,1.15-.51,1.73-.75.33-.14.64-.27.95-.41.75-.31,1.44-.59,2.13-.85.06-.03.18-.08.3-.12l.4-.14c.3-.12.63-.24.96-.35l.16-.06c.2-.07.4-.14.6-.21l.15-.05c.24-.09.49-.17.73-.25,9.2-2.93,14.28-.35,22.18,6.55.59.52,1.34,1.13,2.35,1.93l.46.36c.15.12.29.23.43.33l.84.65c.25.19.51.39.78.59l2.08,1.55c.29.21.59.43.9.66.11.07.25.17.39.28l3.67,2.62c.45.32.56.94.24,1.39-.19.28-.5.42-.82.42Z"/><path d="m2328.77,395.94c-.27,0-.54-.11-.74-.33-.14-.16-14.23-15.6-20.69-16.96-2.94-.61-5.72-3.1-8.17-5.3-.32-.29-.64-.57-.95-.84-.41-.37-.46-1-.09-1.41s1-.45,1.41-.09c.32.28.64.57.96.86,2.27,2.03,4.83,4.33,7.25,4.83,7.08,1.5,21.16,16.92,21.76,17.57.37.41.34,1.04-.07,1.41-.19.17-.43.26-.67.26Z"/><path d="m2298.89,477.68c-.55,0-1-.45-1-1v-160.23c0-.55.45-1,1-1s1,.45,1,1v160.23c0,.55-.45,1-1,1Z"/><g><path d="m2155.42,384.57h0c-.55,0-1-.45-1-1v-30c0-.55.45-1,1-1h0c.55,0,1,.45,1,1v30c0,.55-.45,1-1,1Z"/><rect x="2002.45" y="435.19" width="2" height="42.5" rx="1" ry="1"/></g><path d="m2176.98,371.19c-.21,0-.43-.07-.61-.21l-59.4-45.82c-.44-.34-.52-.97-.18-1.4.34-.44.96-.52,1.4-.18l59.4,45.82c.44.34.52.97.18,1.4-.2.26-.49.39-.79.39Z"/><path d="m1981.96,371.19c-.3,0-.6-.13-.79-.39-.34-.44-.26-1.07.18-1.4l97.55-75.22c.44-.34,1.06-.26,1.4.18.34.44.26,1.07-.18,1.4l-97.55,75.22c-.18.14-.4.21-.61.21Z"/><path d="m2314.52,317.45c-.21,0-.41-.06-.59-.2l-122-90-82.25,69.3c-.42.36-1.05.3-1.41-.12-.36-.42-.3-1.05.12-1.41l82.86-69.81c.35-.3.87-.31,1.24-.04l122.64,90.47c.44.33.54.95.21,1.4-.2.27-.5.41-.81.41Z"/><g><rect x="2182.6" y="389.66" width="32.92" height="85.36" transform="translate(4398.11 864.67) rotate(-180)"/><path d="m2215.52,476.02h-32.92c-.55,0-1-.45-1-1v-85.36c0-.55.45-1,1-1h32.92c.55,0,1,.45,1,1v85.36c0,.55-.45,1-1,1Zm-31.92-2h30.92v-83.36h-30.92v83.36Z"/></g><path d="m2114.9,418.67h-70.87c-.55,0-1-.45-1-1v-40.25c0-.55.45-1,1-1h70.87c.55,0,1,.45,1,1v24.61c0,.55-.45,1-1,1s-1-.45-1-1v-23.61h-68.87v38.25h69.87c.55,0,1,.45,1,1s-.45,1-1,1Z"/><path d="m2297.73,305.3h-105.85c-.55,0-1-.45-1-1s.45-1,1-1h105.85c.55,0,1,.45,1,1s-.45,1-1,1Z"/><path d="m2158,305.3h-13.44c-.55,0-1-.45-1-1s.45-1,1-1h13.44c.55,0,1,.45,1,1s-.45,1-1,1Z"/><path d="m2031.94,321.42c-.55,0-1-.45-1-1v-11.76h-15.54c-.55,0-1-.45-1-1s.45-1,1-1h16.54c.55,0,1,.45,1,1v12.76c0,.55-.45,1-1,1Z"/><path d="m2015.43,344.4h-1l-.03-36.16c0-.55.45-1,1-1h0c.55,0,1,.45,1,1l.03,36.14-1,.02Z"/><path d="m2335.78,443.71h-90.98c-.55,0-1-.45-1-1s.45-1,1-1h90.98c.55,0,1,.45,1,1s-.45,1-1,1Z"/><path d="m2329.1,477.68c-.55,0-1-.45-1-1v-40.5c0-.55.45-1,1-1s1,.45,1,1v40.5c0,.55-.45,1-1,1Z"/><path d="m2064.69,443.71h-98.4c-.55,0-1-.45-1-1s.45-1,1-1h98.4c.55,0,1,.45,1,1s-.45,1-1,1Z"/><path d="m1972.89,477.69c-.55,0-1-.45-1-1v-40.5c0-.55.45-1,1-1s1,.45,1,1v40.5c0,.55-.45,1-1,1Z"/><path d="m2347.82,413.87c-.25,0-.49-.09-.69-.27l-19.05-17.92c-.4-.38-.42-1.01-.04-1.41.38-.4,1.01-.42,1.41-.04l19.05,17.92c.4.38.42,1.01.04,1.41-.2.21-.46.31-.73.31Z"/></g><path d="m2430.98,454.69c-.36,0-.71-.2-.89-.54-.26-.49-.07-1.09.42-1.35.64-.4,5.29-5.01,7.29-7.38,1.74-2.06,2.99-6.77,3-6.81.06-.23.2-.42.39-.56l7.9-5.62c.45-.32,1.07-.22,1.39.23.32.45.22,1.07-.23,1.39l-7.61,5.42c-.35,1.21-1.57,5.18-3.31,7.24-1.77,2.1-6.92,7.36-7.89,7.87-.15.08-.31.11-.46.11Z"/></g><g><path class="cls-10" d="m644.14,472.51c0,1.53-.42,2.94-1.14,4.17h-40.67c-.04-.33-.07-.68-.07-1.03,0-4.02,3.21-7.65,7.23-7.65,1.39,0,1.72.4,2.07.46,1.03-5.74,6.04-10.12,12.09-10.12,1.6,0,3.12.3,4.52.86,2.16.85,4.01,2.29,5.36,4.13.28.36.52.75.76,1.15.53-.11,1.09-.17,1.66-.17,1.81,0,3.48.58,4.84,1.58,1.1.8,1.99,1.88,2.57,3.12.5,1.06.79,2.24.79,3.48Z"/><path class="cls-10" d="m643,477.69h-40.67c-.5,0-.92-.37-.99-.87-.06-.41-.08-.8-.08-1.16,0-4.69,3.77-8.65,8.23-8.65.57,0,1.01.06,1.35.14,1.55-5.75,6.77-9.8,12.82-9.8,1.71,0,3.35.31,4.89.93,2.31.91,4.32,2.46,5.8,4.47.15.19.3.41.45.65,2.33-.3,4.69.31,6.58,1.7,1.24.9,2.24,2.12,2.88,3.51.58,1.23.88,2.55.88,3.9,0,1.63-.44,3.25-1.28,4.68-.18.31-.51.5-.86.5Zm-39.74-2h39.15c.49-1,.74-2.06.74-3.17s-.23-2.08-.69-3.06c-.51-1.09-1.28-2.04-2.25-2.74-1.63-1.2-3.73-1.65-5.7-1.24-.43.09-.86-.1-1.07-.48-.24-.42-.46-.75-.68-1.04-1.27-1.73-2.97-3.04-4.94-3.82-1.31-.53-2.7-.79-4.15-.79-5.47,0-10.14,3.91-11.1,9.29-.1.54-.61.89-1.15.81-.23-.04-.41-.12-.57-.19-.25-.11-.56-.25-1.34-.25-3.38,0-6.23,3.04-6.23,6.65v.03Z"/></g><path d="m611.75,468.52c-.08,0-.17-.01-.25-.03-.53-.14-.85-.69-.71-1.22,1.53-5.84,6.81-9.91,12.85-9.91,1.71,0,3.35.31,4.89.93,2.31.91,4.32,2.46,5.8,4.47.26.34.53.75.82,1.25.27.48.11,1.09-.37,1.37-.48.27-1.09.11-1.36-.37-.24-.41-.46-.75-.68-1.04-1.27-1.73-2.97-3.04-4.94-3.81-1.31-.53-2.7-.79-4.15-.79-5.12,0-9.61,3.46-10.91,8.42-.12.45-.52.75-.97.75Z"/><g class="cls-16"><g><polygon class="cls-6" points="343.1 290.08 187.68 290.08 194.78 276.86 336.94 276.86 343.1 290.08"/><path class="cls-6" d="m343.1,291.08h-155.42c-.35,0-.68-.18-.86-.49-.18-.3-.19-.68-.02-.99l7.1-13.22c.17-.32.51-.53.88-.53h142.15c.39,0,.74.23.91.58l6.16,13.22c.14.31.12.67-.06.96s-.5.46-.84.46Zm-153.75-2h152.18l-5.23-11.22h-140.92l-6.03,11.22Z"/></g><g><polygon class="cls-6" points="330.99 290.08 330.99 476.68 308.05 476.68 308.05 476.68 219.82 476.68 219.82 476.68 199.19 476.68 199.19 290.08 330.99 290.08"/><path class="cls-6" d="m219.82,477.68h-20.63c-.55,0-1-.45-1-1v-186.6c0-.55.45-1,1-1h131.8c.55,0,1,.45,1,1v186.59c0,.55-.45,1-1,1h-111.17Zm-19.63-1.99h129.8v-184.6h-129.8v184.6Z"/></g></g><g class="cls-15"><path class="cls-12" d="m915.67,168.3l-48.88,279.68c-2.4,1.45-4.49,3.57-6.07,6.14-.4.62-.75,1.27-1.07,1.95-.76-.19-1.54-.28-2.34-.28-4.63,0-8.63,3.24-10.46,7.92-.7,1.79-1.1,3.77-1.1,5.87,0,2.57.58,4.95,1.6,7.02h14.43v.09h-183.51c1.15-1.73,1.81-3.81,1.81-6.04,0-5.94-4.04-10.73-9.93-10.93-.13,0-.93-.05-1.06-.05-1.36.1,0,0-1.58.22-.55-9.26-7.17-14.25-15.65-14.25-5.15,0-10.53,2.14-12.96,6.68-.3,0-.61,0-.91.02l-3.1-15.08c12.69-6.32,21.41-19.42,21.41-34.55,0-20.58-16.12-37.4-36.42-38.51l-41.01-199.51c-.18-.85-.28-1.69-.32-2.53-.01-.34-.02-.69-.01-1.03,0-.23,0-.46.01-.7,0-.23.03-.47.05-.7.03-.3.06-.6.1-.9.04-.29.1-.59.16-.88.6-2.96,1.99-5.67,3.97-7.87.18-.2.37-.4.55-.58.09-.1.18-.19.28-.28.29-.28.59-.56.91-.82.21-.17.42-.34.64-.51.43-.32.88-.63,1.33-.91,1.63-1,3.43-1.73,5.36-2.13.55-.12,1.12-.2,1.69-.26.58-.06,1.16-.09,1.75-.09h300.32c12.61,0,22.18,11.38,20,23.81Z"/><path class="cls-12" d="m861.76,477.69h-183.49c-.37,0-.71-.2-.88-.53-.17-.33-.16-.72.05-1.03,1.08-1.63,1.65-3.53,1.65-5.49,0-5.57-3.77-9.75-8.97-9.94-.15,0-.88-.05-1.02-.05-.22.02-.35.03-.44.04-.17.05-.44.1-1,.18-.28.04-.56-.04-.77-.22-.22-.18-.35-.44-.37-.72-.48-8.21-6.1-13.3-14.65-13.3-4.25,0-9.65,1.62-12.07,6.15-.17.33-.51.53-.88.53-.28,0-.58,0-.87.02-.49.02-.93-.32-1.03-.8l-3.1-15.08c-.09-.44.13-.89.53-1.1,12.86-6.41,20.85-19.3,20.85-33.65,0-19.94-15.58-36.42-35.48-37.51-.45-.02-.83-.35-.92-.8l-41.01-199.51c-.19-.87-.3-1.78-.34-2.69-.02-.37-.02-.73-.02-1.1,0-.21,0-.48.02-.74,0-.22.03-.48.06-.74.03-.33.06-.64.11-.95.05-.31.1-.63.17-.94.63-3.09,2.08-5.97,4.21-8.34.19-.21.39-.42.59-.62.08-.09.19-.2.31-.3.3-.29.62-.58.96-.86.23-.19.44-.36.66-.53.44-.33.91-.66,1.41-.97,1.78-1.09,3.69-1.85,5.69-2.26.53-.12,1.12-.21,1.79-.28.6-.06,1.23-.1,1.86-.1h300.32c6.31,0,12.25,2.77,16.31,7.6s5.76,11.17,4.68,17.38h0l-48.88,279.68c-.05.29-.22.53-.47.68-2.25,1.36-4.23,3.37-5.73,5.81-.36.57-.69,1.17-1.02,1.86-.21.43-.68.65-1.14.54-.68-.17-1.39-.25-2.1-.25-4.05,0-7.8,2.86-9.53,7.28-.68,1.74-1.03,3.59-1.03,5.51,0,2.13.42,4.15,1.24,6.02h13.8c.29,0,.57.13.76.35s.27.52.22.81c-.08.48-.51.92-1,.92Zm-181.79-2h165.89c-.74-1.92-1.11-3.97-1.11-6.11s.39-4.26,1.17-6.24c2.04-5.19,6.51-8.55,11.39-8.55.6,0,1.2.05,1.79.15.25-.48.51-.93.78-1.35,1.57-2.56,3.64-4.7,6-6.22l48.81-279.24c.98-5.63-.56-11.38-4.24-15.75-3.68-4.38-9.06-6.88-14.78-6.88h-300.32c-.56,0-1.12.03-1.65.08-.6.06-1.11.14-1.58.25-1.79.37-3.48,1.04-5.05,2-.44.27-.86.56-1.25.86-.2.15-.39.31-.59.47-.31.25-.59.51-.86.77-.1.09-.17.16-.24.24-.2.2-.38.38-.54.57-1.89,2.11-3.18,4.67-3.74,7.41-.06.28-.11.56-.15.84-.04.27-.07.55-.1.82-.02.23-.04.45-.05.66-.01.23-.02.43-.02.63,0,.38,0,.7.01,1.02.04.8.14,1.6.3,2.37l40.86,198.77c20.58,1.53,36.6,18.72,36.6,39.46,0,14.86-8.13,28.23-21.27,35.09l2.66,12.94c3.06-4.49,8.7-6.12,13.18-6.12,9.17,0,15.56,5.48,16.55,14.07.14-.01.33-.03.61-.05.19-.02,1.04.04,1.19.05,6.29.22,10.87,5.24,10.87,11.93,0,1.76-.38,3.47-1.11,5.04Zm235.69-307.38h.01-.01Z"/></g><path d="m619.88,365.2c-.46,0-.88-.33-.98-.8l-20.29-98.69c-.11-.54.24-1.07.78-1.18.54-.11,1.07.24,1.18.78l20.29,98.69c.11.54-.24,1.07-.78,1.18-.07.01-.14.02-.2.02Z"/><path d="m866.78,448.99c-.06,0-.11,0-.17-.01-.54-.1-.91-.61-.81-1.16l48.88-279.68c.98-5.63-.56-11.38-4.24-15.75-3.68-4.38-9.06-6.88-14.78-6.88h-95.7c-.55,0-1-.45-1-1s.45-1,1-1h95.7c6.31,0,12.25,2.77,16.31,7.6s5.76,11.17,4.68,17.38l-48.88,279.68c-.08.49-.51.83-.98.83Z"/><path d="m638,453.34c-.5,0-.92-.37-.99-.85l-3.09-15.03c-.01-.07-.02-.13-.02-.2,0-.55.45-1,1-1,.5,0,.92.37.99.85l3.09,15.03c.01.07.02.13.02.2,0,.55-.45,1-1,1Z"/><path d="m693.53,477.69h-396.05c-.55,0-1-.45-1-1s.45-1,1-1h396.05c.55,0,1,.45,1,1s-.45,1-1,1Z"/><path d="m233.76,477.69h-28.01c-.55,0-1-.45-1-1s.45-1,1-1h28.01c.55,0,1,.45,1,1s-.45,1-1,1Z"/><path d="m210.68,477.69H1c-.55,0-1-.45-1-1s.45-1,1-1h209.68c.55,0,1,.45,1,1s-.45,1-1,1Z"/><g><g><path class="cls-7" d="m1526.19,476.68c-.32,0-.64,0-.96,0h-312.14v-51.64s129.74-117.88,149.64-148.48c16.74-25.75,19.46-38.65,19.46-61.24,0-34.42-23.46-58.4-59.51-57.19-37.32,1.26-64.96,47.23-51.23,78.55-30.9,16.73-52.12-2.12-55-12.04-5.4-18.59,6.76-117.25,102.64-120.95,53.87-2.08,87.6,22.35,106.04,53.26,11.38,19.08,16.93,40.61,17.79,59.9.36,8.1.04,15.74-.76,22.85-4.08,36.32-20.54,58.75-20.54,58.75,0,0-26.14,47.82-107.78,115.38h98.21s25.69,61.86,114.14,62.82Z"/><path class="cls-7" d="m1525.23,477.69h-312.14c-.55,0-1-.45-1-1v-51.64c0-.28.12-.55.33-.74,1.3-1.18,129.87-118.14,149.47-148.29,16.38-25.19,19.3-37.8,19.3-60.69,0-16.66-5.73-31.38-16.14-41.44-10.57-10.22-25.22-15.32-42.34-14.75-17.02.58-33.49,10.93-44.05,27.7-10.18,16.16-12.59,35.11-6.3,49.46.21.48.02,1.03-.44,1.28-17.46,9.46-30.98,7.33-39.24,3.87-9.7-4.06-15.72-11.4-17.2-16.5-2.96-10.19-.78-49.14,21.94-80.63,18.92-26.24,46.39-40.23,81.63-41.59,25.41-.98,47.9,3.86,66.83,14.38,16.5,9.17,29.99,22.42,40.1,39.36,10.62,17.8,16.98,39.24,17.93,60.37.34,7.69.09,15.43-.77,23-3.96,35.3-19.78,57.91-20.68,59.18-1.07,1.92-27.91,48.9-105.86,113.84h95.44c.4,0,.77.24.92.62.06.15,6.58,15.5,23.72,30.76,15.82,14.07,44.18,30.96,89.51,31.45.54,0,.98.45.99.99s-.43.99-.97,1.01c-.33,0-.66,0-1,0Zm-311.14-2h287.5c-31.99-5-53.31-18.45-66.31-30.04-15.7-14-22.49-27.72-23.89-30.8h-97.56c-.42,0-.8-.26-.94-.66-.14-.4-.02-.84.3-1.11,80.52-66.63,107.28-114.61,107.54-115.09.02-.04.04-.08.07-.11.16-.22,16.35-22.67,20.35-58.27.84-7.47,1.1-15.1.76-22.69-.93-20.8-7.19-41.91-17.65-59.43-15.12-25.35-45.62-55.06-105.14-52.78-34.59,1.33-61.54,15.05-80.08,40.76-22.31,30.94-24.52,68.98-21.64,78.91,1.39,4.81,7.35,11.58,16.05,15.22,7.73,3.24,20.34,5.24,36.71-3.35-6.09-14.83-3.52-34.07,6.8-50.47,10.91-17.33,27.98-28.03,45.67-28.63,17.67-.6,32.82,4.7,43.79,15.31,10.8,10.44,16.75,25.67,16.75,42.88,0,23.33-2.96,36.17-19.62,61.78-19.25,29.61-142.19,141.75-149.48,148.38v50.2Z"/></g><g class="cls-16"><path class="cls-2" d="m1526.19,476.68c-.08,0,.09,0,0,0-88.45-.96-114.14-62.82-114.14-62.82,0,0-13.57-45.98,32.29-52.04,14.08,28.86,44.14,47.09,73.65,47.09,54,0,94.25-43.07,94.25-98.17s-42.61-94.76-96.6-94.76c-21.44,0-42.56,3.38-58.67,15.35,0,0-10.17,7.17-14.81,8.4.8-7.11,1.13-14.75.76-22.85-.86-19.29-6.41-40.82-17.79-59.9V63.56c0-8.34,6.71-15.12,15.04-15.22l188.61-2.19-17.85,48.52c-2.55,6.94-9.16,11.54-16.55,11.54h-89.52c-9.54,0-14.6,4.7-14.44,12.6.24,11.46-1.82,24.21-1.82,42.46,0,0,28.51-10.82,73.67-3.94,43.79,6.68,108.22,52.18,112.67,137.1,3.78,72.31-26.18,181.53-148.76,182.24Z"/><path class="cls-2" d="m1526.2,477.68s-.09,0-.13,0c-45.93-.53-74.72-17.7-90.78-32.03-17.45-15.56-23.9-30.77-24.16-31.41-.01-.03-.03-.07-.04-.1-.26-.87-6.19-21.54,4-37.23,5.77-8.88,15.57-14.3,29.12-16.08.42-.06.84.17,1.03.55,13.58,27.83,42.82,46.53,72.76,46.53,25.72,0,49.39-9.98,66.65-28.11,17.15-18.01,26.6-42.54,26.6-69.06,0-53.45-41.1-93.76-95.6-93.76-25.35,0-44.35,4.96-58.08,15.16-.44.31-10.39,7.3-15.15,8.56-.32.08-.66,0-.91-.21-.25-.22-.38-.54-.34-.87.84-7.47,1.1-15.1.76-22.69-.93-20.8-7.19-41.91-17.65-59.43-.09-.16-.14-.33-.14-.51V63.56c0-8.84,7.19-16.11,16.03-16.22l188.61-2.19c.34,0,.64.15.83.42.19.27.24.61.12.92l-17.85,48.52c-2.68,7.3-9.71,12.2-17.49,12.2h-89.52c-4.71,0-8.4,1.22-10.66,3.53-1.91,1.95-2.85,4.66-2.78,8.05.11,5.48-.29,11.15-.75,17.72-.48,6.78-1.02,14.41-1.07,23.37,6.23-2,33.38-9.54,72.82-3.53,24.5,3.74,51.29,18.5,71.65,39.5,17.7,18.25,39.33,50.16,41.87,98.53,1.1,20.94,1.11,93.05-44.66,141.56-25.87,27.41-61.18,41.45-104.97,41.73-.04,0-.09,0-.13,0Zm-113.21-64.17c.42.98,7.05,15.88,23.7,30.71,15.81,14.07,44.18,30.95,89.5,31.45,43.27-.25,78.14-14.08,103.64-41.11,45.23-47.93,45.2-119.34,44.12-140.08-2.5-47.76-23.84-79.24-41.31-97.24-20.07-20.7-46.44-35.25-70.52-38.92-44.34-6.76-72.88,3.77-73.17,3.88-.31.12-.65.07-.92-.11-.27-.19-.43-.5-.43-.82,0-9.63.57-17.74,1.08-24.9.46-6.52.86-12.14.75-17.54-.08-3.95,1.05-7.14,3.35-9.49,2.68-2.74,6.75-4.13,12.09-4.13h89.52c6.94,0,13.21-4.37,15.61-10.89l17.34-47.16-187.16,2.17c-7.75.09-14.06,6.47-14.06,14.22v93.14c10.53,17.76,16.85,39.1,17.78,60.13.32,7.16.12,14.37-.6,21.44,4.83-1.97,12.98-7.69,13.08-7.76,14.07-10.45,33.45-15.54,59.25-15.54,55.64,0,97.6,41.17,97.6,95.76,0,27.04-9.64,52.05-27.15,70.44-17.64,18.53-41.83,28.73-68.1,28.73-30.45,0-60.19-18.86-74.23-47-12.57,1.8-21.65,6.87-26.99,15.08-9.45,14.53-4.11,34.37-3.78,35.53Z"/></g><path d="m1421.46,299.49c-.21,0-.42-.07-.6-.2-.44-.33-.53-.96-.19-1.4.24-.32,24.14-32.45,21.1-80.94-1.47-23.3-8.84-46.2-20.75-64.46-14.47-22.19-34.65-36.9-59.97-43.72-.53-.14-.85-.69-.71-1.23.14-.53.69-.85,1.23-.71,25.81,6.96,46.38,21.95,61.13,44.56,12.09,18.54,19.58,41.78,21.07,65.42,3.09,49.27-21.26,81.95-21.5,82.28-.2.26-.5.4-.8.4Z"/><path d="m1212.93,477.69c-.55,0-1-.45-1-1v-51.63c0-.28.12-.55.33-.74,1.3-1.18,129.86-118.14,149.46-148.3,16.38-25.18,19.3-37.79,19.3-60.69,0-33.18-22.05-55.77-54.87-56.22-1.06-.02-2.2,0-3.59.04-17.03.58-33.5,10.93-44.05,27.7-10.17,16.16-12.58,35.1-6.3,49.44.22.51,0,1.1-.51,1.32-.51.22-1.1,0-1.32-.51-6.55-14.94-4.08-34.6,6.44-51.31,10.91-17.33,27.99-28.04,45.68-28.63,1.43-.04,2.6-.06,3.69-.04,34,.46,56.84,23.85,56.84,58.22,0,23.33-2.96,36.18-19.62,61.78-19.25,29.62-142.18,141.76-149.47,148.39v51.19c0,.55-.45,1-1,1Z"/><path d="m1424.97,157.98c-.55,0-1-.45-1-1V63.56c0-8.84,7.19-16.11,16.02-16.21l188.78-2.19c.53,0,1.01.44,1.01.99,0,.55-.44,1-.99,1.01l-188.78,2.19c-7.75.09-14.05,6.47-14.05,14.21v93.42c0,.55-.45,1-1,1Z"/><path d="m1610.66,453.53c-.33,0-.66-.17-.85-.47-.29-.47-.15-1.09.32-1.38.17-.11,17.62-11.13,34.12-35.92,15.23-22.87,32.74-62.47,29.69-121.27-2.47-47.74-23.86-79.23-41.37-97.24-20.11-20.69-46.51-35.24-70.62-38.92-23.17-3.54-41.83-2.29-53.4-.63-12.54,1.8-19.7,4.48-19.77,4.51-.31.12-.65.07-.92-.11-.27-.19-.43-.5-.43-.82,0-9.64.57-17.76,1.08-24.92.46-6.51.85-12.13.74-17.51-.08-3.95,1.05-7.14,3.35-9.49,2.68-2.74,6.75-4.13,12.09-4.13h31.51c.55,0,1,.45,1,1s-.45,1-1,1h-31.51c-4.71,0-8.4,1.22-10.66,3.53-1.91,1.95-2.85,4.66-2.78,8.05.11,5.47-.29,11.14-.75,17.7-.48,6.78-1.02,14.42-1.07,23.38,2.64-.86,9.06-2.73,18.75-4.13,11.72-1.69,30.62-2.96,54.07.62,24.52,3.74,51.35,18.51,71.75,39.5,17.75,18.26,39.43,50.17,41.93,98.53,3.08,59.4-14.66,99.45-30.09,122.58-16.74,25.1-34.49,36.3-34.67,36.41-.16.1-.35.15-.53.15Z"/></g><path d="m1033.48,394.43c-.06,0-.12,0-.17-.02-.61-.11-15.15-2.79-29.51-15.26-23.98-20.81-27.95-52.19-27.07-74.85,2.18-55.86,31.81-103.42,56.28-133.48,26.49-32.54,52.82-52.16,53.08-52.35.44-.33,1.07-.24,1.4.21.33.44.23,1.07-.21,1.4-.26.19-26.42,19.69-52.75,52.05-24.26,29.81-53.64,76.96-55.8,132.25-.87,22.19,2.99,52.9,26.3,73.19,13.95,12.15,28.48,14.84,28.63,14.87.54.1.91.62.81,1.16-.09.49-.51.83-.98.83Z"/><g><path d="m1092.72,83.72c-.27,0-.53-.11-.73-.32l-6.04-6.43c-.26-.28-.34-.68-.21-1.04.13-.36.46-.61.84-.64l83.38-8.23c.4-.04.79.16.98.52.19.35.15.79-.1,1.1l-7.99,9.99c-.35.43-.97.5-1.41.16-.43-.34-.5-.97-.16-1.41l6.51-8.13-79,7.8,4.65,4.95c.38.4.36,1.04-.04,1.41-.19.18-.44.27-.68.27Z"/><path d="m1126.98,122.9c-.3,0-.59-.14-.78-.37l-17.54-21.55c-.19-.23-.26-.53-.21-.82.06-.29.24-.54.5-.68l29.38-16.01-37.3,7.61c-.55.11-1.07-.24-1.18-.78s.24-1.07.78-1.18l43.84-8.95c.49-.1.97.17,1.14.64.17.46-.03.98-.46,1.22l-34.18,18.63,15.99,19.66,18.39-22.97c.35-.43.97-.5,1.41-.16.43.34.5.97.16,1.41l-19.16,23.94c-.19.24-.47.37-.78.38h0Z"/><path d="m1097.09,115.27c-.25,0-.5-.1-.69-.28-.24-.23-.35-.55-.3-.88l3.76-24.18c.09-.55.6-.92,1.14-.83.55.08.92.6.83,1.14l-3.54,22.76,18.96-3.81c.54-.11,1.07.24,1.18.78.11.54-.24,1.07-.78,1.18l-20.36,4.1c-.07.01-.13.02-.2.02Z"/><path d="m1097.09,115.27c-.24,0-.47-.08-.66-.25-.41-.37-.45-1-.08-1.41l12.36-13.94c.37-.42,1-.45,1.41-.08.41.37.45,1,.08,1.41l-12.36,13.94c-.2.22-.47.34-.75.34Z"/></g><path d="m617.7,442.29c-4.53,0-9.03-.78-13.35-2.34-.52-.19-.79-.76-.6-1.28.19-.52.76-.79,1.28-.6,7.02,2.52,14.56,2.9,21.82,1.09,5.71-1.43,10.84-4.07,15.27-7.85,10.92-9.34,15.55-23.78,12.07-37.71-4.84-19.35-23.95-31.56-43.51-27.79-.68.13-1.37.28-2.05.45-20.1,5.02-32.36,25.46-27.34,45.56.11.43.22.87.35,1.29.16.53-.14,1.09-.67,1.25-.53.16-1.09-.14-1.25-.67-.14-.45-.26-.92-.38-1.38-2.56-10.25-.98-20.89,4.46-29.96,5.44-9.06,14.08-15.47,24.33-18.03.71-.18,1.44-.34,2.15-.47,20.61-3.96,40.74,8.89,45.83,29.27,3.67,14.66-1.2,29.88-12.71,39.71-4.67,3.99-10.08,6.77-16.09,8.27-3.18.79-6.4,1.19-9.62,1.19Z"/><path d="m617.73,460.88c-.55,0-1-.45-1-1v-64.46c0-.55.45-1,1-1s1,.45,1,1v64.46c0,.55-.45,1-1,1Z"/><path d="m617.73,429.74c-.24,0-.48-.09-.68-.26-.41-.37-.43-1.01-.06-1.41l13.09-14.28c.37-.41,1-.43,1.41-.06.41.37.43,1.01.06,1.41l-13.09,14.28c-.2.21-.47.32-.74.32Z"/><path d="m617.73,410.84c-.29,0-.57-.12-.77-.36l-8.23-9.86c-.35-.42-.3-1.05.13-1.41.42-.35,1.05-.3,1.41.13l8.23,9.86c.35.42.3,1.05-.13,1.41-.19.16-.41.23-.64.23Z"/><g><circle class="cls-10" cx="577.01" cy="425.4" r="21.42"/><path class="cls-10" d="m577.01,447.82c-12.36,0-22.42-10.06-22.42-22.42s10.06-22.42,22.42-22.42,22.42,10.06,22.42,22.42-10.06,22.42-22.42,22.42Zm0-42.84c-11.26,0-20.42,9.16-20.42,20.42s9.16,20.42,20.42,20.42,20.42-9.16,20.42-20.42-9.16-20.42-20.42-20.42Z"/></g><path d="m555.66,428.05c-.51,0-.94-.39-.99-.91-.05-.56-.08-1.13-.08-1.74,0-12.36,10.06-22.42,22.42-22.42,4.39,0,8.64,1.27,12.29,3.68.46.3.59.92.28,1.39s-.92.59-1.39.28c-3.32-2.19-7.19-3.35-11.19-3.35-11.26,0-20.42,9.16-20.42,20.42,0,.55.02,1.06.07,1.55.05.55-.35,1.04-.9,1.09-.03,0-.06,0-.1,0Z"/><path d="m577.01,475.74c-.55,0-1-.45-1-1v-53.38c0-.55.45-1,1-1s1,.45,1,1v53.38c0,.55-.45,1-1,1Z"/><path d="m577.01,440.86c-.24,0-.48-.09-.68-.26-.41-.37-.43-1.01-.06-1.41l7.27-7.93c.37-.41,1-.43,1.41-.06.41.37.43,1.01.06,1.41l-7.27,7.93c-.2.21-.47.32-.74.32Z"/><path d="m577.01,432.58c-.29,0-.57-.12-.77-.36l-4.57-5.47c-.35-.42-.3-1.05.13-1.41s1.05-.3,1.41.13l4.57,5.47c.35.42.3,1.05-.13,1.41-.19.16-.41.23-.64.23Z"/><g><path d="m903.46,477.6h-20.32c-.55,0-1-.45-1-1s.45-1,1-1h19.41c.01-.24.02-.49.02-.73,0-.06,0-.12.02-.18.66-3.55-.66-6.06-1.89-7.54-1.81-2.18-4.64-3.53-7.39-3.53-.5,0-.96.04-1.38.12-.55.1-1.07-.25-1.17-.79-.1-.54.25-1.07.79-1.17.54-.11,1.13-.16,1.76-.16,3.38,0,6.72,1.59,8.93,4.25,2.1,2.53,2.93,5.75,2.34,9.09,0,.6-.04,1.2-.11,1.76-.06.5-.49.88-.99.88Z"/><path d="m867.26,477.6h-19.92c-.38,0-.73-.22-.9-.56-1.13-2.3-1.71-4.81-1.71-7.46,0-2.16.39-4.26,1.17-6.24,2.04-5.19,6.51-8.55,11.39-8.55.87,0,1.74.11,2.58.31.4.11.78.22,1.16.36.4.11,2.44.78,4.51,2.95.19.19.39.42.59.66.35.42.29,1.06-.13,1.41-.42.35-1.06.29-1.41-.13-.16-.19-.32-.37-.48-.54-1.85-1.94-3.62-2.42-3.64-2.43-.03,0-.07-.02-.1-.03-.33-.12-.65-.22-1-.31-.67-.17-1.38-.25-2.08-.25-4.05,0-7.8,2.86-9.53,7.28-.68,1.74-1.03,3.59-1.03,5.51,0,2.13.42,4.15,1.24,6.02h19.28c.55,0,1,.45,1,1s-.45,1-1,1Z"/><path d="m891.73,463.76c-.49,0-.91-.36-.99-.85-1.41-9.38-8.17-16.19-16.08-16.19-2.09,0-4.09.46-5.95,1.35-.49.23-.96.49-1.41.76-2.26,1.36-4.24,3.37-5.74,5.81-.36.57-.69,1.17-1.02,1.86-.24.5-.84.71-1.33.47-.5-.24-.71-.84-.47-1.33.36-.76.73-1.43,1.13-2.05,1.66-2.7,3.87-4.94,6.39-6.46.5-.31,1.04-.6,1.59-.86,2.12-1.03,4.42-1.55,6.81-1.55,8.91,0,16.5,7.52,18.06,17.89.08.55-.29,1.06-.84,1.14-.05,0-.1.01-.15.01Z"/></g><path d="m628.17,460.21c-.14,0-.28-.03-.42-.09-.5-.23-.72-.83-.49-1.33,2.67-5.78,7.28-7.25,10.67-7.45.4-.02.77-.03,1.15-.03,2.12,0,4.96.83,6.62,2.71.36.41.33,1.05-.09,1.41s-1.05.33-1.41-.09c-1.27-1.45-3.62-2.07-5.27-2.03-.31,0-.6,0-.89.02-2.84.17-6.71,1.41-8.97,6.3-.17.37-.53.58-.91.58Z"/><path d="m678.27,477.69c-.19,0-.38-.05-.55-.17-.46-.31-.59-.93-.28-1.39,1.08-1.63,1.65-3.53,1.65-5.49,0-5.57-3.77-9.75-8.97-9.94-.15,0-.88-.05-1.02-.05-.22.02-.35.03-.44.04-.17.05-.44.1-1,.18-.55.08-1.05-.3-1.13-.85-.08-.55.3-1.05.85-1.13.35-.05.53-.08.63-.1.15-.07.29-.08,1.02-.13.21,0,1.04.04,1.19.05,6.29.22,10.87,5.24,10.87,11.93,0,2.36-.68,4.64-1.98,6.6-.19.29-.51.45-.83.45Z"/><path d="m667.51,460.88c-.53,0-.97-.41-1-.94-.48-8.21-6.1-13.3-14.65-13.3-4.25,0-9.65,1.62-12.07,6.15-.26.49-.87.67-1.35.41-.49-.26-.67-.87-.41-1.35,2.84-5.32,9.01-7.21,13.84-7.21,9.57,0,16.1,5.96,16.64,15.19.03.55-.39,1.02-.94,1.06-.02,0-.04,0-.06,0Z"/><path d="m710.8,211.45h-17.71c-.55,0-1-.45-1-1s.45-1,1-1h17.71c.55,0,1,.45,1,1s-.45,1-1,1Z"/><path d="m908.3,211.45h-105.44c-.55,0-1-.45-1-1s.45-1,1-1h105.44c.55,0,1,.45,1,1s-.45,1-1,1Z"/><path d="m689.38,254.07h-31.08c-.55,0-1-.45-1-1s.45-1,1-1h31.08c.55,0,1,.45,1,1s-.45,1-1,1Z"/><path d="m899.95,254.07h-56.67c-.55,0-1-.45-1-1s.45-1,1-1h56.67c.55,0,1,.45,1,1s-.45,1-1,1Z"/><path d="m665.88,296.69h-60.08c-.55,0-1-.45-1-1s.45-1,1-1h60.08c.55,0,1,.45,1,1s-.45,1-1,1Z"/><path d="m893.4,296.68h-65.33c-.55,0-1-.45-1-1s.45-1,1-1h65.33c.55,0,1,.45,1,1s-.45,1-1,1Z"/><path d="m649.56,339.31h-35.01c-.55,0-1-.45-1-1s.45-1,1-1h35.01c.55,0,1,.45,1,1s-.45,1-1,1Z"/><path d="m884.77,339.31h-72.16c-.55,0-1-.45-1-1s.45-1,1-1h72.16c.55,0,1,.45,1,1s-.45,1-1,1Z"/><path d="m878.5,381.93h-55.52c-.55,0-1-.45-1-1s.45-1,1-1h55.52c.55,0,1,.45,1,1s-.45,1-1,1Z"/><path d="m871.05,424.55h-38.51c-.55,0-1-.45-1-1s.45-1,1-1h38.51c.55,0,1,.45,1,1s-.45,1-1,1Z"/><path d="m673.8,424.55h-22.75c-.55,0-1-.45-1-1s.45-1,1-1h22.75c.55,0,1,.45,1,1s-.45,1-1,1Z"/><path d="m199.19,358.66h0c-.55,0-1-.45-1-1v-67.58c0-.55.45-1,1-1h0c.55,0,1,.45,1,1v67.58c0,.55-.45,1-1,1Z"/><path d="m330.99,477.6c-.55,0-1-.45-1-1v-81.18c0-.55.45-1,1-1s1,.45,1,1v81.18c0,.55-.45,1-1,1Z"/><path d="m225.33,291.09h-37.65c-.35,0-.68-.18-.86-.49-.18-.3-.19-.68-.02-.99l7.1-13.23c.17-.33.51-.53.88-.53h131.35c.55,0,1,.45,1,1s-.45,1-1,1h-130.75l-6.03,11.23h35.98c.55,0,1,.45,1,1s-.45,1-1,1Z"/><path d="m330.99,345.67h-33.16c-.55,0-1-.45-1-1s.45-1,1-1h33.16c.55,0,1,.45,1,1s-.45,1-1,1Z"/><path d="m311.27,291.09h-21.45c-.55,0-1-.45-1-1s.45-1,1-1h21.45c.55,0,1,.45,1,1s-.45,1-1,1Z"/><path d="m270.56,345.67h-71.37c-.55,0-1-.45-1-1s.45-1,1-1h71.37c.55,0,1,.45,1,1s-.45,1-1,1Z"/><path d="m330.99,404.98h-106.77c-.55,0-1-.45-1-1s.45-1,1-1h106.77c.55,0,1,.45,1,1s-.45,1-1,1Z"/><path d="m308.05,477.68c-.55,0-1-.45-1-1v-46.84h-83.17v32.53c0,.55-.45,1-1,1s-1-.45-1-1v-33.53c0-.55.45-1,1-1h85.17c.55,0,1,.45,1,1v47.84c0,.55-.45,1-1,1Z"/><path d="m414.53,477.6c-.55,0-1-.45-1-1V195.59h-44.96l-49.73,36.46v44.81c0,.55-.45,1-1,1s-1-.45-1-1v-45.31c0-.32.15-.62.41-.81l50.4-36.96c.17-.13.38-.19.59-.19h46.28c.55,0,1,.45,1,1v282c0,.55-.45,1-1,1Z"/><path d="m100.32,477.6c-.55,0-1-.45-1-1v-223.53c0-.55.45-1,1-1h107.13c.55,0,1,.45,1,1v23.8c0,.55-.45,1-1,1s-1-.45-1-1v-22.8h-105.13v222.53c0,.55-.45,1-1,1Z"/><rect x="107.66" y="235.03" width="40.64" height="18.04"/><path d="m410.1,195.59h-24.93c-.55,0-1-.45-1-1v-11.39c0-.55.45-1,1-1h24.93c.55,0,1,.45,1,1v11.39c0,.55-.45,1-1,1Zm-23.93-2h22.93v-9.39h-22.93v9.39Z"/><path d="m404.93,184.2c-.55,0-1-.45-1-1v-20.59c0-.55.45-1,1-1s1,.45,1,1v20.59c0,.55-.45,1-1,1Z"/><g class="cls-14"><path class="cls-11" d="m2353.35,110.65c-26.39,0-49.81-18.99-54.48-45.86-5.22-30.05,14.98-58.75,45.04-63.97,30.06-5.22,58.75,14.98,63.97,45.04h0c5.22,30.05-14.98,58.75-45.04,63.97-3.19.55-6.37.82-9.5.82Zm.06-108.65c-3.02,0-6.08.26-9.15.79-28.97,5.03-48.44,32.69-43.41,61.66s32.7,48.44,61.66,43.41c28.97-5.03,48.44-32.69,43.41-61.66-4.5-25.89-27.08-44.2-52.51-44.2Z"/></g><g><path d="m2729.28,237.3c-.09,0-.18-.01-.26-.04-.53-.15-.85-.7-.7-1.23,6.91-25.29,12.83-42.94,22.59-67.44.2-.51.79-.76,1.3-.56.51.2.76.79.56,1.3-9.73,24.42-15.63,42.01-22.52,67.23-.12.44-.52.74-.96.74Z"/><path d="m2708.94,471.07c-.48,0-.9-.35-.99-.84-.14-.81-13.27-82.61,11.26-196.85.12-.54.65-.89,1.19-.77.54.12.88.65.77,1.19-24.45,113.87-11.37,195.3-11.24,196.11.09.54-.28,1.06-.82,1.15-.06,0-.11.01-.17.01Z"/><path d="m2724.35,256.36c-.08,0-.16,0-.24-.03-.54-.13-.87-.67-.73-1.21,1.11-4.56,2.15-8.65,3.18-12.52.14-.53.69-.85,1.22-.71.53.14.85.69.71,1.22-1.02,3.86-2.06,7.94-3.17,12.48-.11.46-.52.76-.97.76Z"/><path d="m2645.49,221.17c-.4,0-.77-.24-.93-.63-1.39-3.46-2.77-6.8-4.12-9.94-.22-.51.02-1.1.52-1.31.51-.22,1.09.02,1.31.52,1.35,3.15,2.75,6.51,4.14,9.98.21.51-.04,1.09-.56,1.3-.12.05-.25.07-.37.07Z"/><path d="m2685.18,471.98s-.03,0-.04,0c-.55-.02-.98-.49-.96-1.04,3.74-85.33-7.85-165.06-34.43-236.96-.19-.52.07-1.09.59-1.28.52-.2,1.09.07,1.28.59,26.68,72.16,38.3,152.14,34.55,237.74-.02.54-.47.96-1,.96Z"/><path d="m2637.62,202.69c-.38,0-.75-.22-.91-.59-7.09-15.75-14.91-30.85-23.26-44.88-.28-.47-.13-1.09.35-1.37.48-.28,1.09-.13,1.37.35,8.38,14.1,16.24,29.27,23.36,45.08.23.5,0,1.1-.5,1.32-.13.06-.27.09-.41.09Z"/><path d="m2597.07,130.62c-.31,0-.62-.15-.82-.42-5.82-8.28-7.21-9.61-7.42-9.79-.39-.24-.57-.73-.41-1.17.18-.52.75-.8,1.27-.62.28.1,1.13.39,8.2,10.43.32.45.21,1.08-.24,1.39-.18.12-.38.18-.57.18Z"/><path d="m2735.83,187.96c-1.23,0-2.42-.35-3.44-1.08-2.92-2.1-3.3-6.57-.86-9.97,2.45-3.39,6.81-4.44,9.73-2.34,2.92,2.1,3.3,6.57.86,9.97-1.59,2.21-4,3.42-6.29,3.42Zm1.97-12.48c-1.66,0-3.45.93-4.65,2.6-1.8,2.5-1.62,5.72.4,7.17,2.02,1.46,5.13.61,6.93-1.89,1.8-2.5,1.62-5.72-.4-7.17-.67-.48-1.46-.71-2.29-.71Z"/><path d="m2752.89,199.92c-1.33,0-2.63-.5-3.73-1.46-1.29-1.11-2.17-2.72-2.46-4.53-.62-3.79,1.54-7.31,4.81-7.85,1.61-.26,3.25.23,4.59,1.39,1.29,1.11,2.17,2.72,2.46,4.53h0c.62,3.79-1.54,7.31-4.81,7.85-.29.05-.57.07-.85.07Zm-.54-11.89c-.17,0-.35.01-.52.04-2.18.36-3.59,2.84-3.15,5.55.22,1.34.86,2.53,1.79,3.33.89.76,1.94,1.09,2.96.93,2.18-.36,3.59-2.84,3.15-5.55-.22-1.34-.86-2.53-1.79-3.33-.74-.63-1.59-.97-2.44-.97Z"/><g><path d="m2599.81,162.64c-.32,0-.64-.02-.96-.07-4.14-.63-6.92-5.08-6.19-9.91.42-2.77,1.88-5.15,4.01-6.53,1.47-.96,3.19-1.36,4.84-1.11,1.22.19,2.37.71,3.31,1.52.42.36.47.99.12,1.41-.36.42-.99.47-1.41.12-.67-.57-1.45-.93-2.32-1.06-1.17-.18-2.36.1-3.44.81-1.63,1.05-2.8,2.98-3.13,5.15-.56,3.74,1.46,7.17,4.51,7.63,3,.44,5.94-2.18,6.54-5.85.09-.55.6-.92,1.15-.82.54.09.91.6.82,1.15-.72,4.38-4.13,7.58-7.85,7.58Z"/><path d="m2611.87,158.25c-3.07,0-6.21-2.03-7.81-5.37-2.11-4.41-.75-9.47,3.03-11.28,3.78-1.81,8.57.31,10.68,4.72,1.01,2.11,1.26,4.43.72,6.53-.56,2.17-1.89,3.86-3.75,4.75-.92.44-1.89.65-2.88.65Zm-1.88-15.3c-.7,0-1.39.15-2.03.45-2.78,1.33-3.72,5.2-2.09,8.61,1.63,3.42,5.23,5.12,8.02,3.78,1.32-.63,2.27-1.85,2.68-3.44.42-1.65.21-3.49-.59-5.17-1.26-2.63-3.67-4.24-5.98-4.24Z"/><path d="m2597.21,147.98c-.28,0-.55-.11-.75-.33-.85-.95-1.53-2.11-1.96-3.35-1.58-4.54.3-9.33,4.18-10.69,3.89-1.36,8.34,1.23,9.93,5.77.32.94.51,1.89.55,2.83.03.55-.4,1.02-.95,1.05-.55.04-1.02-.4-1.05-.95-.04-.76-.19-1.52-.44-2.28-1.22-3.49-4.54-5.53-7.38-4.53-2.85,1-4.17,4.65-2.96,8.14.35.99.89,1.92,1.56,2.68.37.41.33,1.04-.08,1.41-.19.17-.43.25-.67.25Z"/></g><g><g><path class="cls-5" d="m2590.95,124.77s67.1-56.6,79.95,35.3c0,0-19.69-21.37-39.33-29.98-20.16-8.84-30.85-6.6-40.62-5.32Z"/><path class="cls-5" d="m2670.91,161.07c-.27,0-.54-.11-.74-.32-.2-.21-19.78-21.32-39-29.74-18.62-8.16-29.02-6.75-38.21-5.5-.63.09-1.26.17-1.88.25-.44.05-.87-.18-1.04-.59s-.07-.88.27-1.17c.3-.25,7.39-6.19,17.5-11.12,13.49-6.58,25.83-8.06,35.68-4.29,14.88,5.7,24.44,22.97,28.41,51.34.06.43-.17.86-.56,1.04-.14.06-.28.1-.43.1Zm-66.65-38.54c7.12,0,15.78,1.4,27.72,6.64,15.81,6.93,31.78,22.19,37.48,27.96-4.1-25.76-13.06-41.45-26.68-46.67-18.35-7.03-40.41,7.1-48.25,12.82,3-.39,6.17-.74,9.73-.74Z"/></g><g><path class="cls-5" d="m2590.96,124.76s-61.39,37.82,8.05,82.67c0,0-10.5-24.72-12.4-44.16s.29-25.6,4.35-38.52Z"/><path class="cls-5" d="m2599.01,208.43c-.19,0-.38-.05-.54-.16-22.43-14.49-33.72-29.83-33.55-45.59.1-9.52,4.56-19.25,12.88-28.13,6.25-6.67,12.38-10.48,12.64-10.64.35-.22.81-.19,1.14.06.33.26.46.69.34,1.09l-.6,1.92c-3.68,11.63-5.53,17.47-3.7,36.2,1.86,19.06,12.22,43.62,12.32,43.86.17.4.06.87-.28,1.16-.19.16-.41.24-.64.24Zm-9.88-81.2c-6.12,4.46-22.03,17.76-22.22,35.48-.15,14.4,9.93,28.56,29.96,42.11-2.83-7.21-9.76-26.06-11.26-41.45-1.82-18.66.04-25.16,3.52-36.14Z"/></g><g><path class="cls-5" d="m2591.68,123.59s-5.93-82.42-82.65-28.75c0,0,26.62-1.81,46.32,3.63,20.22,5.58,31.68,15.88,36.32,25.12Z"/><path class="cls-5" d="m2591.68,124.59c-.37,0-.72-.21-.89-.55-2.58-5.15-11.24-17.85-35.7-24.61-19.31-5.33-45.72-3.61-45.99-3.6-.44.03-.86-.24-1.01-.67s0-.89.37-1.15c24.6-17.21,44.63-22.34,59.52-15.25,9.12,4.34,16.29,13.47,20.72,26.41,3.32,9.7,3.95,17.99,3.97,18.34.03.48-.27.91-.73,1.04-.09.02-.18.04-.27.04Zm-72.17-31.03c9.65,0,24.19.65,36.11,3.94,20.13,5.56,29.93,15.13,34.45,21.51-1.56-9.47-6.8-30.76-22.96-38.45-13.62-6.48-31.99-2.07-54.62,13.1,1.79-.06,4.19-.12,7.01-.12Z"/></g><g><path class="cls-5" d="m2590.91,123.59s-75.24-43.89-64.42,63.05c0,0,12.48-27,28.32-42.2,13.41-12.87,24.48-16.72,36.1-20.84Z"/><path class="cls-5" d="m2526.49,187.64c-.05,0-.11,0-.17-.01-.44-.07-.78-.44-.83-.89-3.63-35.85,1.99-58.83,16.69-68.29,8.18-5.26,19.3-6.18,32.17-2.65,9.64,2.64,16.76,6.76,17.05,6.93.34.2.53.57.49.96-.04.39-.29.72-.66.85l-.3.11c-11.47,4.07-22.3,7.91-35.44,20.52-15.52,14.89-27.98,41.63-28.11,41.9-.17.36-.52.58-.91.58Zm33.26-71.94c-5.7,0-11.44,1.19-16.49,4.44-13.54,8.72-18.96,29.86-16.11,62.87,3.86-7.66,14.41-27.25,26.97-39.29,12.74-12.23,23.31-16.38,34.32-20.31-4.59-2.32-16.54-7.71-28.68-7.71Z"/></g><g><path class="cls-5" d="m2590.95,124.77s19.69-100.17,104.06-23.72c0,0-38.54-10.72-60.85-3.78-21.02,6.54-37.25,19.65-43.21,27.5Z"/><path class="cls-5" d="m2590.95,125.77c-.14,0-.28-.03-.41-.09-.42-.19-.66-.65-.57-1.1.02-.1,2.12-10.58,7.65-22.05,7.38-15.28,17.49-25.42,29.26-29.32,18.89-6.26,42.03,2.85,68.8,27.11.34.31.43.82.2,1.22s-.7.6-1.14.48c-.38-.11-38.52-10.56-60.28-3.79-21.23,6.61-37.17,19.86-42.71,27.15-.19.26-.49.4-.8.4Zm48.03-52.48c-3.99,0-7.81.6-11.46,1.81-22.11,7.33-31.72,35.32-34.6,45.84,7.29-7.71,22.1-18.76,40.94-24.62,9.4-2.92,22.59-3.18,39.23-.75,7.59,1.11,14.2,2.55,18.19,3.51-19.68-17.15-37.21-25.79-52.3-25.79Z"/></g><g><path class="cls-5" d="m2749.75,171.99s74.67,19.21,15.44,75.2c0,0,5.27-24.97,1.44-43.42-3.94-18.93-10.98-25.44-16.88-31.79Z"/><path class="cls-5" d="m2765.19,248.19c-.17,0-.34-.04-.49-.13-.38-.21-.58-.65-.49-1.08.05-.25,5.18-24.99,1.43-43.01-3.63-17.45-9.93-24.17-15.49-30.09l-1.14-1.22c-.3-.33-.35-.81-.13-1.19.23-.38.68-.57,1.11-.46.33.09,8.21,2.14,16.9,6.87,11.61,6.32,18.97,14.42,21.3,23.43,3.51,13.6-4,29.27-22.32,46.59-.19.18-.44.27-.69.27Zm-12.14-74.13c5.36,5.8,11.12,13,14.55,29.51,3.04,14.61.39,33.42-.86,40.73,16.12-15.91,22.69-30.19,19.52-42.47-4.22-16.36-24.83-24.92-33.21-27.77Z"/></g><g><path class="cls-5" d="m2748.96,171.73s-38.78-50.08-71.45,14.77c0,0,20.6-11.49,37.4-14.96,17.24-3.56,22.39-2.15,34.05.19Z"/><path class="cls-5" d="m2677.51,187.5c-.25,0-.5-.09-.69-.28-.32-.3-.4-.78-.2-1.17,10.58-20.99,22.95-32.3,36.77-33.64,8.35-.81,17.3,2.18,25.86,8.64,6.43,4.84,10.33,9.85,10.5,10.06.26.33.28.78.06,1.14-.22.35-.64.53-1.05.45l-1.73-.35c-10.49-2.12-15.75-3.19-31.91.15-16.45,3.4-36.92,14.74-37.12,14.86-.15.08-.32.13-.49.13Zm38.6-33.22c-.84,0-1.68.04-2.54.12-12.47,1.21-23.79,11.19-33.69,29.7,6.28-3.26,21.76-10.84,34.83-13.55,15.95-3.3,21.86-2.34,31.58-.39-4.41-4.8-16.13-15.89-30.18-15.89Z"/></g><g><path class="cls-5" d="m2749.82,171.51s19.96-79.97-70.68-53.52c0,0,25.32,6.46,40.98,17.72,13.26,9.53,24.28,26.43,29.7,35.81Z"/><path class="cls-5" d="m2749.82,172.51c-.35,0-.69-.19-.87-.5-5.3-9.17-16.16-25.97-29.41-35.5-15.32-11.01-40.39-17.49-40.64-17.56-.44-.11-.74-.5-.75-.95,0-.45.29-.85.72-.98,29.23-8.53,50.19-6.95,62.3,4.68,7.32,7.04,11.3,17.94,11.52,31.53.16,10.19-1.8,18.18-1.89,18.52-.1.4-.43.69-.83.75-.05,0-.09,0-.14,0Zm-66.98-54.52c7.52,2.21,25.67,8.14,37.87,16.9,12.53,9,22.91,24.26,28.66,33.87,1.42-7.84,4.44-32.13-9.59-45.61-11.08-10.65-30.23-12.38-56.93-5.16Z"/></g><g><path class="cls-5" d="m2747.94,171.82s69.44-56.74,83.69,42.25c0,0-20.07-28.84-39.05-36.64-17.88-7.35-36.21-7.58-44.64-5.6Z"/><path class="cls-5" d="m2831.63,215.06c-.32,0-.63-.15-.82-.43-.2-.29-20.12-28.69-38.61-36.29-18.04-7.41-36.21-7.39-44.03-5.56-.45.1-.92-.11-1.12-.53-.21-.42-.1-.92.26-1.22.3-.24,7.37-5.98,17.56-10.65,13.58-6.22,26.14-7.41,36.32-3.45,16.33,6.36,26.91,25.53,31.44,56.98.07.46-.19.9-.62,1.07-.12.05-.24.07-.37.07Zm-72.61-45.28c9.29,0,21.67,1.67,33.94,6.71,15.36,6.31,31.11,25.76,37.05,33.65-4.71-28.27-14.64-45.53-29.55-51.34-18.7-7.29-40.42,5.69-48.58,11.34,2.08-.23,4.48-.37,7.14-.37Z"/></g></g><path d="m2670.91,161.07c-.49,0-.92-.36-.99-.86-3.86-27.59-12.99-44.33-27.14-49.75-22.63-8.67-50.89,14.84-51.18,15.08-.42.36-1.05.3-1.41-.12-.36-.42-.3-1.05.12-1.41.3-.25,7.39-6.19,17.5-11.12,13.48-6.58,25.82-8.07,35.68-4.29,14.88,5.69,24.44,22.97,28.41,51.34.08.55-.3,1.05-.85,1.13-.05,0-.09,0-.14,0Z"/><path d="m2590.95,125.78c-.54,0-.98-.42-1-.96v-.02c-.02-.55.42-1.01.97-1.03.54.02,1.01.42,1.03.97.01.55-.42,1.02-.97,1.04,0,0-.02,0-.03,0Z"/><path d="m2599.01,208.43c-.19,0-.37-.05-.54-.16-22.42-14.48-33.71-29.81-33.55-45.56.09-9.46,4.49-19.14,12.72-27.99,6.13-6.59,12.26-10.48,12.76-10.79.37-.25.88-.22,1.22.09.41.37.45,1,.08,1.41-.06.07-.15.14-.23.19-.24.15-24.35,15.31-24.56,37.11-.15,15.02,10.83,29.78,32.64,43.86.46.3.6.92.3,1.38-.19.3-.51.46-.84.46Z"/><path d="m2591.68,124.59c-.52,0-.96-.4-1-.93-.02-.33-2.64-33.14-23.56-43.09-14.2-6.76-33.55-1.68-57.51,15.08-.45.32-1.08.21-1.39-.25-.32-.45-.21-1.08.25-1.39,24.6-17.21,44.63-22.34,59.52-15.25,9.12,4.34,16.29,13.48,20.72,26.41,3.32,9.7,3.95,17.99,3.97,18.34.04.55-.37,1.03-.93,1.07-.02,0-.05,0-.07,0Z"/><path d="m2526.49,187.64c-.51,0-.94-.38-.99-.9-3.63-35.85,1.99-58.83,16.69-68.29,8.18-5.26,19.3-6.18,32.17-2.66,9.64,2.64,16.76,6.76,17.05,6.93.48.28.64.89.36,1.37-.28.48-.89.64-1.37.36-.28-.17-28.48-16.33-47.14-4.32-14.02,9.03-19.33,31.37-15.78,66.41.06.55-.34,1.04-.89,1.1-.03,0-.07,0-.1,0Z"/><path d="m2590.96,125.77c-.06,0-.13,0-.19-.02-.54-.11-.9-.63-.79-1.17.02-.1,2.12-10.58,7.66-22.05,7.38-15.28,17.49-25.42,29.26-29.32,18.87-6.26,41.98,2.84,68.71,27.03.25.18.42.48.42.81,0,.55-.45,1-1,1-.25,0-.5-.1-.69-.27-26.18-23.72-48.65-32.7-66.8-26.68-27.25,9.03-35.51,49.46-35.59,49.86-.09.48-.51.81-.98.81Z"/><path d="m2765.2,248.18c-.27,0-.53-.1-.73-.31-.38-.4-.36-1.04.04-1.41,17.59-16.63,24.94-31.53,21.84-44.3-4.32-17.79-27.58-26.36-34.83-28.63-.04.06-.09.12-.15.18-.4.38-1.04.36-1.41-.05l-.93-1c-.3-.33-.36-.81-.13-1.2.23-.38.68-.57,1.12-.45l.79.21c5.42,1.56,32.62,10.37,37.5,30.46,3.28,13.51-4.26,29.06-22.41,46.22-.19.18-.44.27-.69.27Z"/><path d="m2677.51,187.5c-.15,0-.3-.03-.45-.11-.49-.25-.69-.85-.44-1.34,10.58-20.99,22.95-32.31,36.78-33.64,8.36-.8,17.29,2.18,25.86,8.64,6.42,4.84,10.33,9.85,10.5,10.06.34.44.26,1.06-.18,1.4-.44.34-1.06.26-1.4-.18-.15-.2-15.58-19.76-34.59-17.94-13.09,1.27-24.93,12.22-35.17,32.55-.18.35-.53.55-.89.55Z"/><path d="m2749.81,172.37c-.08,0-.16,0-.24-.03-.54-.13-.86-.68-.73-1.21.08-.32,7.72-31.97-9.08-48.12-11.53-11.08-31.79-12.51-60.2-4.24-.26.12-.56.12-.83,0h-.02c-.38-.19-.6-.58-.57-.99.03-.41.32-.76.72-.88,29.23-8.53,50.19-6.95,62.3,4.69,7.32,7.04,11.3,17.94,11.51,31.52.16,10.19-1.8,18.18-1.89,18.52-.11.45-.52.76-.97.76Z"/><path d="m2834.13,214.97c-.49,0-.92-.36-.99-.86-4.42-30.68-14.57-49.31-30.18-55.39-20.56-8.01-44.77,8.47-50.59,12.78.01.49-.33.92-.82,1.01-.31.06-.61.12-.89.18-.45.11-.92-.12-1.12-.54-.2-.42-.09-.92.27-1.21.3-.24,7.37-5.98,17.56-10.65,13.58-6.22,26.14-7.41,36.32-3.45,16.33,6.36,26.91,25.53,31.44,56.97.08.55-.3,1.05-.85,1.13-.05,0-.1,0-.14,0Z"/></g><g class="cls-14"><path class="cls-11" d="m2118.05,96.23c-.38,0-.74-.22-.9-.57-3.7-7.75-12.22-8.78-12.3-8.79-.55-.06-.94-.56-.88-1.1s.56-.94,1.1-.88c.37.04,8.37,1.01,12.87,8.08,3.7-7.43,10.8-9.35,11.12-9.44.53-.15,1.08.18,1.22.72s-.18,1.08-.72,1.22c-.07.02-7.61,2.09-10.58,10.11-.14.38-.49.63-.89.65-.02,0-.03,0-.05,0Z"/></g><g class="cls-14"><path class="cls-11" d="m2186.11,102c-.38,0-.74-.22-.9-.57-1.88-3.94-6.2-4.46-6.25-4.46-.55-.06-.94-.56-.88-1.1s.56-.94,1.1-.88c.19.02,4.24.51,6.82,3.93,2.15-3.63,5.74-4.6,5.91-4.64.53-.15,1.08.18,1.22.72.14.54-.18,1.08-.72,1.22-.15.04-3.86,1.08-5.37,5.15-.14.38-.49.63-.89.65-.02,0-.03,0-.05,0Z"/></g><g class="cls-14"><path class="cls-11" d="m2158.73,67.33c-.38,0-.74-.22-.9-.57-.95-1.99-3.11-2.28-3.2-2.29-.55-.07-.94-.56-.87-1.11.06-.55.55-.94,1.1-.88.11.01,2.21.27,3.78,1.94,1.32-1.8,3.19-2.3,3.28-2.33.53-.14,1.08.18,1.22.72.14.54-.18,1.08-.72,1.22-.07.02-1.97.56-2.74,2.65-.14.38-.49.63-.89.65-.02,0-.03,0-.05,0Z"/></g><g><polygon class="cls-6" points="2549.51 335.4 2571.19 383.19 2676.36 383.19 2649.24 335.4 2549.51 335.4"/><path class="cls-6" d="m2676.36,384.19h-105.16c-.39,0-.75-.23-.91-.59l-21.69-47.79c-.14-.31-.11-.67.07-.96.18-.29.5-.46.84-.46h99.74c.36,0,.69.19.87.51l27.11,47.79c.18.31.17.69,0,1s-.51.5-.86.5Zm-104.52-2h102.8l-25.98-45.79h-97.6l20.78,45.79Z"/></g><path d="m2663.56,434.23c-.55,0-1-.45-1-1v-50.05c0-.55.45-1,1-1s1,.45,1,1v50.05c0,.55-.45,1-1,1Z"/><path d="m2576.01,442.35c-.55,0-1-.45-1-1v-44.6c0-.55.45-1,1-1s1,.45,1,1v44.6c0,.55-.45,1-1,1Z"/><g><polygon class="cls-6" points="2549.51 335.4 2526.57 384.67 2541.21 384.67 2557.25 352.45 2549.51 335.4"/><path class="cls-6" d="m2541.21,385.67h-14.63c-.34,0-.66-.17-.84-.46-.18-.29-.21-.65-.06-.96l22.93-49.27c.16-.35.5-.54.91-.58.39,0,.74.23.91.59l7.74,17.06c.12.27.12.59-.02.86l-16.04,32.22c-.17.34-.52.55-.9.55Zm-13.07-2h12.45l15.55-31.24-6.64-14.64-21.35,45.88Z"/></g><path d="m2541.21,449.93c-.55,0-1-.45-1-1v-64.26c0-.55.45-1,1-1s1,.45,1,1v64.26c0,.55-.45,1-1,1Z"/><g><polyline points="2552.91 447.48 2552.91 406.33 2563.28 406.33 2563.28 445.88"/><path d="m2552.91,448.48c-.55,0-1-.45-1-1v-41.14c0-.55.45-1,1-1h10.36c.55,0,1,.45,1,1v39.54c0,.55-.45,1-1,1s-1-.45-1-1v-38.54h-8.36v40.14c0,.55-.45,1-1,1Z"/></g><path d="m2608.26,413.37h-11.56c-.55,0-1-.45-1-1v-14.33c0-.55.45-1,1-1s1,.45,1,1v13.33h10.56c.55,0,1,.45,1,1s-.45,1-1,1Z"/><path d="m2642.57,413.37h-11.25c-.55,0-1-.45-1-1v-14.33c0-.55.45-1,1-1s1,.45,1,1v13.33h10.25c.55,0,1,.45,1,1s-.45,1-1,1Z"/><path d="m2676.36,384.19h0l-58.63-.02c-.55,0-1-.45-1-1s.45-1,1-1h0l56.92.02-26.27-46.3c-.27-.48-.1-1.09.38-1.36.48-.27,1.09-.1,1.36.38l27.11,47.79c.18.31.17.69,0,1-.18.31-.51.5-.86.5Z"/><path d="m2571.19,384.19c-.38,0-.74-.22-.91-.59l-18.38-40.54c-.23-.5,0-1.1.5-1.32.5-.23,1.1,0,1.32.5l18.38,40.54c.23.5,0,1.1-.5,1.32-.13.06-.27.09-.41.09Z"/><path d="m2541.22,385.67h-14.65c-.55,0-1-.45-1-1s.45-1,1-1h14.03l15.55-31.24-7.56-16.62c-.23-.5,0-1.1.5-1.32.5-.23,1.09,0,1.32.5l7.75,17.06c.12.27.12.59-.02.86l-16.04,32.22c-.17.34-.52.55-.9.55Z"/><g><path class="cls-10" d="m2821.98,476.69h-335.83c-18.83-1.66-22.34-1.66-27.09-1.66-.9,0-26.02,1.46-26.86,1.66.11-1.6,24.42-7.34,23.91-8.84l36.02-6.87c14.69-2.34,11.62-1.83,27.44-6.32,22.33-6.35,37.43-9.46,49.16-12.38,6.45-1.61,34.15-.44,40.61-.9l59.93-9.58c11.9-4.77,20.49-7.87,28.14-10.07,7.65-2.19,14.34-3.49,22.42-4.68,3.36-.49,15.1,6.75,22.15,15.83,3.78-1.88,8.47-3.1,13.97-4.83,5.51-1.74,66.02,48.64,66.02,48.64Z"/><path class="cls-10" d="m2821.98,477.69h-335.83c-18.87-1.66-22.32-1.66-27.09-1.66-1.04,0-25.51,1.45-26.66,1.64-.3.05-.63-.04-.85-.24-.23-.21-.36-.5-.34-.81.09-1.28,1.74-1.97,12.62-5.26,4.33-1.31,10.19-3.08,11.34-3.86.02-.05.04-.1.07-.15.15-.25.39-.42.68-.48l36.55-6.95q11.71-1.86,20.4-4.37c1.74-.5,3.83-1.11,6.43-1.85,16.06-4.57,28.44-7.47,38.4-9.81,3.85-.9,7.5-1.76,10.79-2.58,4.26-1.06,17.23-.95,27.67-.86,5.81.05,10.84.09,13.11-.07l59.73-9.55c12.19-4.89,20.61-7.9,28.13-10.06,7.11-2.03,13.64-3.4,22.55-4.71,3.92-.58,15.6,6.94,22.58,15.57,2.87-1.33,6.16-2.33,9.93-3.47,1.11-.34,2.27-.69,3.46-1.06,1.18-.37,3.95-1.24,35.99,23.83,15.65,12.25,30.82,24.87,30.97,24.99.32.27.44.71.3,1.11-.14.4-.52.66-.94.66Zm-362.92-3.66c4.82,0,8.31,0,27.18,1.66h332.97c-28.24-23.41-59.31-47.33-62.97-46.69-1.18.37-2.34.72-3.46,1.06-4.01,1.22-7.47,2.27-10.35,3.7-.43.21-.94.09-1.23-.28-7.08-9.12-18.43-15.87-21.21-15.46-8.82,1.3-15.28,2.65-22.29,4.65-7.48,2.15-15.86,5.15-28.04,10.03-.07.03-.14.05-.21.06l-59.93,9.58c-2.44.18-7.5.13-13.36.09-10.32-.09-23.15-.2-27.17.8-3.31.83-6.96,1.68-10.82,2.59-9.93,2.33-22.29,5.23-38.31,9.78-2.6.74-4.68,1.34-6.42,1.84q-8.8,2.54-20.64,4.42l-.5.08-35.52,6.77c-.88.96-3.83,1.95-12.37,4.54-2.02.61-4.37,1.32-6.42,1.98,7.95-.51,20.93-1.22,21.07-1.22Zm-3.9-5.87s0,0,0,0c0,0,0,0,0,0Z"/></g><path d="m2773.57,440.52c-.21,0-.43-.07-.61-.21l-3.31-2.57c-11.24-8.73-11.5-8.89-13.61-8.7-5.58.51-13.14,4.26-19.22,7.26-.79.39-1.56.77-2.31,1.14-.5.25-1.1.04-1.34-.46-.24-.5-.04-1.1.46-1.34.74-.36,1.51-.74,2.3-1.13,6.22-3.08,13.97-6.92,19.92-7.46,2.94-.26,3.39.08,15.02,9.11l3.3,2.57c.44.34.52.97.18,1.4-.2.25-.49.39-.79.39Z"/><path d="m2888.06,477.69h-244.57c-.55,0-1-.45-1-1s.45-1,1-1h244.57c.55,0,1,.45,1,1s-.45,1-1,1Z"/><g><path d="m491.67,477.6h-13.77c-.55,0-1-.45-1-1v-3.71c0-3.13,2.55-5.68,5.68-5.68h4.42c3.13,0,5.68,2.55,5.68,5.68v3.71c0,.55-.45,1-1,1Zm-12.77-2h11.77v-2.71c0-2.03-1.65-3.68-3.68-3.68h-4.42c-2.03,0-3.68,1.65-3.68,3.68v2.71Z"/><path d="m485.24,462.08c-.55,0-1-.45-1-1v-60.94c0-.55.45-1,1-1s1,.45,1,1v60.94c0,.55-.45,1-1,1Z"/><g><path class="cls-1" d="m478.46,383.4s0,16.74,6.79,16.74,6.79-16.74,6.79-16.74h-13.58"/><path class="cls-1" d="m485.24,401.14c-3.36,0-5.68-3.09-6.92-9.17-.86-4.23-.87-8.39-.87-8.57,0-.27.11-.52.29-.71s.44-.29.71-.29h13.58c.27,0,.52.11.71.29.19.19.29.45.29.71,0,.17-.04,4.33-.91,8.57-1.25,6.08-3.57,9.17-6.88,9.17Zm-5.77-16.74c.16,4.71,1.39,14.74,5.77,14.74s5.58-10.03,5.77-14.74h-11.54Z"/></g><path d="m494.77,384.41c-.51,0-.95-.39-1-.91-.03-.31-.78-7.33-8.52-7.33h-.01c-5.94,0-7.78,4.19-8.32,6.24h10.99c.55,0,1,.45,1,1s-.45,1-1,1h-12.2c-.28,0-.55-.12-.74-.33s-.28-.49-.25-.77c0-.09,1.03-9.13,10.52-9.14h.01c9.61,0,10.5,9.06,10.51,9.15.05.55-.36,1.04-.91,1.08-.03,0-.06,0-.09,0Z"/><path d="m485.24,376.17c-.55,0-1-.45-1-1v-5.06c0-.55.45-1,1-1s1,.45,1,1v5.06c0,.55-.45,1-1,1Z"/><path d="m485.05,401.18c-.43,0-.7-.05-.71-.06-.54-.12-.88-.65-.77-1.19.12-.54.64-.88,1.18-.77.16.02,3.53.58,4.78-5.09.12-.54.65-.88,1.19-.76.54.12.88.65.76,1.19-1.33,6-4.9,6.67-6.43,6.67Z"/></g><path d="m121.75,356.05c-.55,0-1-.45-1-1v-33.73c0-.55.45-1,1-1s1,.45,1,1v33.73c0,.55-.45,1-1,1Z"/><path d="m146.64,356.05c-.55,0-1-.45-1-1v-33.73c0-.55.45-1,1-1s1,.45,1,1v33.73c0,.55-.45,1-1,1Z"/><path d="m168.93,287.3h-68.61c-.55,0-1-.45-1-1s.45-1,1-1h68.61c.55,0,1,.45,1,1s-.45,1-1,1Z"/><path d="m413.51,232.63h-47.32c-.55,0-1-.45-1-1s.45-1,1-1h47.32c.55,0,1,.45,1,1s-.45,1-1,1Z"/><path d="m2709.12,452.55c-.34,0-.67-.17-.86-.48-.29-.47-.13-1.09.34-1.37l9.45-5.69c.47-.29,1.09-.13,1.37.34.29.47.13,1.09-.34,1.37l-9.45,5.69c-.16.1-.34.14-.52.14Z"/><path d="m2603.56,468.48c-.3,0-.6-.14-.8-.4-.33-.44-.25-1.07.19-1.4l7.3-5.54c.19-.14.42-.21.65-.2.04,0,4.59.21,6.92-.77,2.68-1.13,8.13-4.02,8.7-4.5.41-.35,1.04-.33,1.4.07.36.39.37.99,0,1.37-.78.78-7.16,4-9.31,4.91-2.34.99-6.21.97-7.42.94l-7.01,5.33c-.18.14-.39.2-.6.2Z"/><g><g><path class="cls-13" d="m1856.08,456.66c.35.09.71.2,1.05.32,0,0,2.26.54,4.41,2.99"/><path class="cls-13" d="m1861.54,460.98c-.28,0-.55-.12-.75-.34-1.89-2.16-3.87-2.68-3.89-2.68-.03,0-.07-.02-.1-.03-.31-.11-.64-.21-.96-.29-.53-.14-.85-.69-.71-1.22.14-.53.69-.85,1.22-.71.37.1.73.21,1.09.33.42.12,2.71.83,4.86,3.29.36.42.32,1.05-.09,1.41-.19.17-.42.25-.66.25Z"/></g><g><path class="cls-10" d="m1926.48,475.4l-70.47-.08h-11.6c-.98-1.88-1.53-4.04-1.53-6.38,0-1.9.37-3.71,1.05-5.33,1.75-4.25,5.53-7.19,9.94-7.19.76,0,1.51.08,2.21.25.31-.6.65-1.21,1.03-1.76,1.8-2.82,4.29-5.03,7.18-6.32,1.86-.86,3.92-1.32,6.06-1.32,5.45,0,10.27,3.01,13.26,7.65,3.87-3.45,9.73-4.89,15.57-3.33,5.81,1.56,10.14,5.7,11.8,10.57.57,1.68.82,3.45.7,5.24.94-.22,1.91-.33,2.92-.33,5.31,0,9.86,3.28,11.73,7.94.05.12.1.26.16.39Z"/><path class="cls-10" d="m1926.48,476.4h0l-82.07-.08c-.37,0-.72-.21-.89-.54-1.09-2.1-1.64-4.4-1.64-6.84,0-2,.38-3.92,1.13-5.72,1.95-4.74,6.21-7.81,10.86-7.81.57,0,1.14.04,1.68.13.25-.44.49-.84.73-1.2,1.91-2.99,4.54-5.31,7.6-6.67,2.01-.93,4.19-1.41,6.47-1.41,5.21,0,10.17,2.67,13.47,7.18,4.2-3.23,10.08-4.31,15.62-2.82,5.89,1.58,10.67,5.88,12.48,11.21.49,1.43.75,2.89.78,4.35.62-.08,1.26-.13,1.89-.13,5.6,0,10.57,3.36,12.66,8.57.05.12.1.26.16.4.12.31.08.66-.11.93-.19.27-.49.44-.82.44Zm-81.45-2.08h10.98l68.94.08c-1.99-3.88-5.94-6.33-10.36-6.33-.92,0-1.82.1-2.69.31-.31.07-.63,0-.88-.21-.24-.21-.37-.51-.35-.83.11-1.62-.1-3.25-.65-4.85-1.6-4.71-5.85-8.52-11.11-9.92-5.29-1.42-10.9-.23-14.64,3.11-.22.19-.51.28-.8.25-.29-.04-.55-.2-.71-.45-2.91-4.5-7.55-7.19-12.42-7.19-1.99,0-3.88.41-5.64,1.23-2.71,1.21-5.05,3.27-6.76,5.95-.33.49-.65,1.03-.98,1.68-.21.41-.67.62-1.12.51-.63-.15-1.3-.22-1.99-.22-3.83,0-7.37,2.58-9.01,6.57-.65,1.55-.97,3.22-.97,4.95,0,1.91.39,3.72,1.15,5.38Z"/></g></g><g><path d="m1861.54,461.02c-.28,0-.55-.12-.75-.34-1.89-2.16-3.87-2.68-3.89-2.68-.03,0-.07-.02-.1-.03-.31-.11-.64-.21-.96-.29-.53-.14-.85-.69-.71-1.22.14-.53.69-.85,1.22-.71.37.1.73.21,1.09.33.42.12,2.71.83,4.86,3.29.36.42.32,1.05-.09,1.41-.19.17-.42.25-.66.25Z"/><path d="m1844.41,476.36c-.36,0-.71-.2-.89-.54-1.09-2.1-1.65-4.41-1.65-6.84,0-1.97.38-3.89,1.13-5.71,1.95-4.75,6.22-7.81,10.86-7.81.57,0,1.14.04,1.68.13.22-.4.47-.81.74-1.21,1.9-2.98,4.54-5.29,7.59-6.66,2.01-.93,4.18-1.41,6.46-1.41,3.33,0,6.56,1.06,9.34,3.07.45.32.55.95.22,1.4-.32.45-.95.55-1.4.22-2.43-1.76-5.26-2.69-8.17-2.69-1.99,0-3.88.41-5.63,1.23-2.71,1.21-5.05,3.27-6.76,5.95-.39.57-.72,1.17-.99,1.68-.21.4-.67.61-1.12.51-.63-.15-1.3-.22-1.98-.22-3.83,0-7.37,2.58-9.01,6.57-.65,1.57-.98,3.24-.98,4.95,0,2.11.48,4.1,1.42,5.92.25.49.06,1.09-.43,1.35-.15.08-.3.11-.46.11Z"/></g><path d="m2029.92,477.69h-501.42c-46.88,0-76.22-17.22-92.58-31.67-16-14.12-22.9-28.06-24.31-31.17h-97.77c-.55,0-1-.45-1-1s.45-1,1-1h98.43c.4,0,.77.24.92.62.06.16,6.69,15.74,24.14,31.12,16.1,14.19,44.99,31.1,91.18,31.1h501.42c.55,0,1,.45,1,1s-.45,1-1,1Z"/><path d="m2451.38,477.69c-.35,0-.68-.18-.87-.5-.28-.48-.11-1.09.37-1.37.25-.14,25.02-14.28,51.91-17.79,2.36-.31,38.68-10.46,52.09-14.27,3.06-.87,6.3-1.29,8.91-1.63,1.96-.26,3.65-.48,4.62-.8,4.06-1.36,18.99-1.31,24.53-1.06.55.02.98.49.95,1.04-.02.55-.51.98-1.04.95-6.26-.28-20.35-.2-23.81.96-1.14.38-2.84.6-4.99.89-2.54.33-5.71.75-8.63,1.58-6.4,1.82-49.48,13.95-52.38,14.33-26.49,3.46-50.93,17.4-51.17,17.54-.16.09-.33.13-.5.13Z"/><path d="m2491.25,477.69h-369.45c-.55,0-1-.45-1-1s.45-1,1-1h369.45c.55,0,1,.45,1,1s-.45,1-1,1Z"/><path d="m1406.55,477.69h-615.48c-.55,0-1-.45-1-1s.45-1,1-1h615.48c.55,0,1,.45,1,1s-.45,1-1,1Z"/><path d="m1891.66,437c-21.42,0-38.85-17.43-38.85-38.85s17.43-38.85,38.85-38.85,38.85,17.43,38.85,38.85-17.43,38.85-38.85,38.85Zm0-75.7c-20.32,0-36.85,16.53-36.85,36.85s16.53,36.85,36.85,36.85,36.85-16.53,36.85-36.85-16.53-36.85-36.85-36.85Z"/><path d="m1891.66,406.91c-.26,0-.52-.1-.72-.3l-7.58-7.75c-.39-.4-.38-1.03.02-1.41.4-.39,1.03-.38,1.41.02l7.58,7.75c.39.4.38,1.03-.02,1.41-.19.19-.45.29-.7.29Z"/><path d="m1891.66,426.46c-.24,0-.48-.09-.67-.26-.41-.37-.44-1-.06-1.41l11.82-12.93c.37-.41,1-.44,1.41-.06.41.37.44,1,.06,1.41l-11.82,12.93c-.2.22-.47.33-.74.33Z"/><path d="m47.77,456.67c-3.75,0-7.35-1.38-10.13-3.88-.41-.37-.44-1-.08-1.41.37-.41,1-.44,1.41-.08,2.42,2.17,5.54,3.37,8.8,3.37,7.26,0,13.17-5.91,13.17-13.17v-40.8c0-3.53-1.37-6.83-3.86-9.31-2.49-2.49-5.8-3.86-9.31-3.86-7.26,0-13.16,5.91-13.16,13.17v18.3c0,.55-.45,1-1,1s-1-.45-1-1v-18.3c0-8.37,6.8-15.17,15.16-15.17,4.05,0,7.86,1.58,10.73,4.45,2.87,2.86,4.45,6.67,4.45,10.73v40.8c0,8.37-6.81,15.17-15.17,15.17Z"/><path d="m47.78,477.6c-.55,0-1-.45-1-1v-38c0-.55.45-1,1-1s1,.45,1,1v38c0,.55-.45,1-1,1Z"/><g><g><path class="cls-3" d="m1115.16,419c-.4,4.97-2.48,8.81-5.42,9.78h-31.53l-3.36,6.95-5.85,12.12-7.78,16.09h-.62s-4.73-.39-7.11-1c-.6-.15-1.05-.32-1.24-.5,0,0,4.03-14.77,7.42-26.54.7-2.46,1.4-4.89,2.07-7.13,1.63-5.5,3.06-9.94,3.81-11.43.62-1.26,2.26-6.07,8.23-7.59,0,0,.03,0,.04,0h.88l19.16-1.54,3.05-1.64c5.71.33,12.36.6,15.92.32l.05.13s2.78,5.73,2.28,11.98Z"/><path class="cls-3" d="m1061.22,464.93h-.61c-.28-.02-4.92-.41-7.36-1.03-.88-.23-1.36-.44-1.68-.74-.27-.25-.37-.63-.28-.99.04-.15,4.07-14.91,7.42-26.55.7-2.46,1.4-4.9,2.07-7.14,1.86-6.28,3.16-10.18,3.87-11.59.05-.09.1-.22.17-.38.77-1.7,2.8-6.23,8.7-7.73.09-.03.19-.04.28-.04h.88l18.87-1.52,2.86-1.54c.16-.09.35-.12.53-.12,5.19.3,12.14.61,15.78.32.42-.03.83.21,1,.6l.05.13c.1.2,2.87,6.01,2.36,12.46h0c-.44,5.47-2.78,9.55-6.1,10.65-.1.03-.21.05-.31.05h-30.9l-16.71,34.59c-.17.34-.52.56-.9.56Zm-7.77-3.05c.09.03.19.05.3.08,2.09.53,6.18.9,6.85.96l16.71-34.59c.17-.35.52-.57.9-.57h31.36c2.44-.91,4.23-4.36,4.59-8.86h0c.39-4.88-1.35-9.52-1.97-10.99-3.81.21-10.16-.06-15.06-.35l-2.8,1.5c-.12.07-.26.1-.39.12l-19.16,1.54h-.83c-4.91,1.29-6.58,5-7.29,6.6-.08.17-.15.32-.2.44-.46.91-1.47,3.59-3.75,11.28-.67,2.23-1.37,4.66-2.07,7.12-2.89,10.06-6.3,22.45-7.19,25.71Zm61.71-42.89h0,0Z"/></g><g><path class="cls-3" d="m1073.82,409.74s-.03,0-.04,0c-5.97,1.52-7.62,6.33-8.23,7.59-.75,1.49-2.18,5.93-3.81,11.43-.67,2.23-1.37,4.67-2.07,7.13l-6.81-8.66s-5.88-7.34-.76-14.32c2.02-2.76,4.91-3.14,6.06-3.17h15.66Z"/><path class="cls-3" d="m1059.68,436.9c-.3,0-.59-.14-.79-.38l-6.81-8.67c-.06-.07-6.29-8.01-.78-15.53,2.27-3.11,5.54-3.54,6.83-3.58h15.69c.55,0,1,.45,1,1,0,.47-.33.87-.76.97,0,0-.02,0-.03,0h0c-4.97,1.27-6.66,5.01-7.37,6.62-.08.17-.15.32-.2.44-.46.91-1.47,3.59-3.75,11.28-.67,2.23-1.37,4.66-2.07,7.12-.1.36-.4.64-.77.71-.06.01-.13.02-.19.02Zm-1.51-26.16c-.97.03-3.5.37-5.25,2.76-4.6,6.27.51,12.83.73,13.1l5.6,7.13c.52-1.81,1.04-3.59,1.54-5.26,1.86-6.28,3.16-10.18,3.87-11.59.05-.09.1-.22.17-.38.54-1.2,1.71-3.81,4.44-5.77h-11.1Z"/></g><g><polygon class="cls-3" points="1085.4 454.47 1078.27 460.86 1069 447.84 1074.85 435.72 1085.4 454.47"/><path class="cls-3" d="m1078.27,461.86s-.07,0-.11,0c-.28-.03-.54-.18-.7-.41l-9.27-13.02c-.21-.3-.24-.69-.09-1.01l5.85-12.12c.16-.34.5-.55.87-.56.38-.02.72.18.9.51l10.55,18.75c.23.41.15.92-.2,1.24l-7.13,6.39c-.18.17-.42.25-.67.25Zm-8.11-14.11l8.28,11.62,5.7-5.1-9.21-16.38-4.76,9.86Z"/></g></g><path d="m1086.33,361.7c-.22,0-.44-.07-.62-.22-.43-.34-.5-.97-.16-1.41h0s.57-.82.6-2.71c.02-1.04-.14-1.45-.19-1.55-.33-.33-.39-.86-.12-1.27.31-.46.93-.58,1.39-.26.36.24.95.97.92,3.11-.04,2.6-.94,3.79-1.04,3.92-.2.25-.49.38-.78.38Zm-.22-5.76s0,0,0,0c0,0,0,0,0,0Zm0,0s0,0,0,0c0,0,0,0,0,0Z"/><path d="m1098.82,358.37c-.44,0-.84-.29-.96-.73-.04-.15-1.05-3.8-1.25-6.74-.04-.55.38-1.03.93-1.06.54-.02,1.03.38,1.06.93.18,2.73,1.17,6.3,1.18,6.34.15.53-.16,1.08-.69,1.23-.09.03-.18.04-.27.04Z"/><path d="m1066.24,395.77c-.11,0-.22-.02-.33-.06-.52-.18-.8-.75-.62-1.27l2.61-7.49c.18-.52.75-.8,1.27-.62.52.18.8.75.62,1.27l-2.61,7.49c-.14.41-.53.67-.94.67Z"/><path d="m1071.01,404.21c-.33,0-.65-.16-.84-.46-.3-.46-.17-1.08.3-1.38,1.42-.92,3.11-2.21,3.36-2.66.22-.39,1.17-3.04,3.14-9.28l.04-.14c.17-.53.73-.82,1.26-.65.53.17.82.73.65,1.26l-.04.13c-1.82,5.77-2.93,9.02-3.31,9.67-.61,1.08-3.23,2.83-4.01,3.34-.17.11-.36.16-.54.16Z"/><path d="m1079.32,404.32c-.16,0-.33-.04-.48-.12-.27-.15-.46-.42-.51-.73l-.08-.54c-.1-.66-.71-6.55-1.22-11.64l-9.49-3.71c-.48-.19-.74-.72-.6-1.21l4.09-13.84c1.58-5.06,2.83-6.22,5.09-7.98,2.89-2.25,9.18-4.7,9.44-4.8.29-.11.62-.08.89.09.27.17.44.45.47.77.02.23.33,2.32,3.4,2.32,3.31,0,7.17-2.31,7.9-6.17.05-.28.22-.52.46-.67.24-.15.53-.19.8-.11.15.04,3.8,1.11,12.32,5.98,5.43,3.11,6.92,8.05,7.23,11.64l1.6,16.36c.03.28-.06.55-.24.76s-.44.33-.72.34l-10.42.38.43,6.41c.04.52-.33.98-.85,1.06l-24.38,3.67h0s-2.25.54-4.7,1.65c-.13.06-.27.09-.41.09Zm-10.2-18.25l9.2,3.59c.38.15.64.52.64.93.54,5.31.98,9.59,1.17,11.29,2.13-.85,3.84-1.25,3.92-1.27l23.55-3.54-.44-6.52c-.02-.27.07-.54.25-.74.18-.2.44-.32.71-.33l10.39-.38-1.5-15.31c-.26-3.13-1.56-7.41-6.23-10.09-5.83-3.34-9.33-4.85-10.9-5.45-1.41,4.35-5.82,6.68-9.58,6.68-2.99,0-4.46-1.52-5.06-2.89-1.89.78-5.91,2.54-7.91,4.1-1.9,1.48-2.94,2.29-4.41,6.98l-3.83,12.94Z"/><path d="m1119.62,429.77h-41.4c-.55,0-1-.45-1-1s.45-1,1-1h41.4c.55,0,1,.45,1,1s-.45,1-1,1Z"/><path d="m1061.23,464.93h-.62c-2.97-.25-7.98-.8-9.02-1.77-.27-.25-.38-.64-.29-1,.04-.15,4.07-14.91,7.42-26.54.7-2.47,1.41-4.9,2.07-7.14,1.87-6.3,3.17-10.2,3.88-11.59.05-.09.11-.23.17-.38.77-1.7,2.8-6.23,8.7-7.73.27-.07.55-.14.85-.2.54-.12,1.07.23,1.18.77.11.54-.23,1.07-.77,1.18-.27.06-.51.11-.75.18-4.98,1.27-6.66,5.02-7.38,6.62-.08.18-.15.33-.21.45-.45.9-1.47,3.57-3.75,11.27-.67,2.24-1.37,4.66-2.07,7.12-2.89,10.07-6.31,22.48-7.19,25.72,1.28.36,4.43.8,7.15,1.03l16.84-34.86,2.3-4.66c.24-.5.84-.7,1.34-.45.5.24.7.84.45,1.34l-2.42,4.91-16.99,35.17c-.17.35-.52.57-.9.57Z"/><path d="m1078.28,461.85c-.27,0-.55-.11-.75-.33-.37-.41-.33-1.04.08-1.41l6.53-5.85-10.19-18.12c-.27-.48-.1-1.09.38-1.36.48-.27,1.09-.1,1.36.38l10.59,18.82c.23.41.15.92-.2,1.24l-7.13,6.38c-.19.17-.43.25-.67.25Z"/><path d="m1074.7,410.74h-22.02c-.98,0-1.89-.53-2.37-1.38l-11.55-20.45c-.31-.55-.31-1.21.01-1.76.32-.55.89-.88,1.52-.88h20.76c.95,0,1.83.51,2.29,1.34l12.23,21.63c.17.31.17.69,0,1-.18.31-.51.5-.86.5Zm-34.01-22.46l11.36,20.09c.13.23.37.37.63.37h20.3l-11.38-20.14c-.11-.2-.32-.32-.55-.32h-20.36Z"/><path d="m1074.7,410.74c-.52,0-.95-.4-1-.92-.04-.55.37-1.03.92-1.08l19.16-1.54c.55-.05,1.03.37,1.08.92s-.37,1.03-.92,1.08l-19.16,1.54s-.05,0-.08,0Z"/><path d="m1077.96,391.59c-.18,0-.37-.05-.54-.16-2.02-1.28-3.24-3.03-3.63-5.2-.94-5.26,3.44-11.09,3.62-11.33.33-.44.96-.53,1.4-.19.44.33.53.96.19,1.4-.04.05-4.04,5.39-3.25,9.78.29,1.62,1.19,2.88,2.73,3.86.47.3.6.91.31,1.38-.19.3-.51.46-.85.46Z"/><path d="m1109.03,408c-8.36,0-21.75-1.08-22.46-1.14-.55-.04-.96-.53-.92-1.08.04-.55.54-.95,1.08-.92.22.02,21.99,1.78,27.28.88,2.82-.48,2.97-3.46,2.98-3.58l.04-12.02c0-.55.45-1,1-1h0c.55,0,1,.45,1,1l-.04,12.05c-.05,1.66-1.08,4.92-4.64,5.52-1.17.2-3.06.28-5.31.28Z"/><path d="m1083.43,357.41c-.7,0-1.33-.18-1.87-.54-4.44-2.96-5.69-14.99-5.82-16.35-.05-.55.35-1.04.9-1.09.55-.05,1.04.35,1.09.9.32,3.44,1.84,12.81,4.94,14.87.33.22.79.26,1.35.13,1.51-.36,3.22-1.84,3.88-3,.27-.48.88-.65,1.36-.38.48.27.65.88.38,1.36-.87,1.53-2.97,3.44-5.15,3.96-.37.09-.72.13-1.06.13Z"/><g><path class="cls-9" d="m1094.4,344.79s-.38,18.76,2.23,19.78c0,0,4.16-1.75,9.52-5.14,0,0-2.68-3.02-4.15-11.01-1.1-5.94-1.02-18.47-10.19-20.77-4.16-1.04-7.18-.22-13.45,4.27,0,0-7.39,5.24-2.77,8.07,2.32,1.42,3.48-.12,3.61-.16,0,0,1.62,1.74,5.43,2.1s5.15.16,5.93,1.47c0,0-.15-2.74,2.15-3.14s3.19,4.29.6,5.49"/><path d="m1096.64,365.56c-.12,0-.25-.02-.36-.07-1.17-.46-3.05-3.54-2.9-18.75-.4.03-.79-.19-.97-.58-.23-.5-.01-1.1.49-1.33.29-.13.5-.33.65-.57,0,0,.01-.02.02-.03.39-.63.38-1.51.2-2.1-.05-.17-.34-.97-.88-.89-1.36.24-1.33,1.91-1.32,2.1.02.46-.27.87-.71,1-.44.13-.91-.05-1.14-.44-.34-.56-.83-.65-3.2-.83-.57-.04-1.22-.09-1.97-.16-2.75-.26-4.49-1.2-5.37-1.83-1.6.96-3.22.29-4.1-.25-1.6-.98-1.96-2.2-1.99-3.06-.11-3.17,4.22-6.32,4.71-6.67,6.34-4.54,9.68-5.58,14.27-4.43,8.35,2.09,9.62,11.85,10.45,18.31.15,1.2.3,2.33.47,3.25,1.39,7.54,3.89,10.5,3.92,10.53.19.22.28.51.23.8s-.21.54-.45.7c-5.37,3.39-9.49,5.14-9.66,5.21-.12.05-.26.08-.39.08Zm-1.24-20.5c-.14,7.74.4,16.46,1.44,18.32,1.22-.56,4.22-1.99,7.88-4.24-.94-1.48-2.64-4.76-3.7-10.54-.18-.98-.33-2.14-.49-3.36-.81-6.27-1.93-14.86-8.96-16.62-3.52-.88-6.18-.5-12.62,4.12-1.53,1.09-3.93,3.4-3.87,4.98.01.34.13.87,1.04,1.42,1.4.86,2.02.29,2.32.02.1-.09.23-.21.44-.28.37-.12.79-.02,1.05.27.05.05,1.46,1.47,4.79,1.79.73.07,1.37.12,1.93.16,1.37.1,2.4.18,3.21.48.38-1.03,1.17-2.03,2.68-2.29,1.4-.24,2.62.64,3.13,2.26.34,1.1.29,2.44-.27,3.52Z"/></g><g><path class="cls-4" d="m1040.22,476.33s-2.16-1.63.73-3.1c1.31-.66,5.41-1.57,9.94-5.3,0,0-4.46,5.34,4.39,2.43,1.3-.43,3.01-1.08,4.6-2.76,0,0,.72,3.73.72,5.34s-1.45,3.39-1.45,3.39h-18.94Z"/><path d="m1059.16,477.33h-18.94c-.22,0-.43-.07-.6-.2-.13-.1-1.29-1.01-1.17-2.36.08-.97.77-1.78,2.05-2.43.35-.18.82-.35,1.41-.57,1.86-.69,4.98-1.84,8.34-4.61.4-.33.98-.3,1.34.07.36.37.39.95.06,1.34-.44.54-.85,1.28-.89,1.61.26.07,1.23.21,4.2-.77,1.37-.45,2.82-1.06,4.19-2.5.26-.27.65-.37,1-.27.36.11.63.4.7.77.03.16.74,3.84.74,5.54,0,2.28-1.66,4.01-1.73,4.08-.19.19-.45.3-.72.3Zm-18.54-2h18.07c.34-.45.91-1.36.91-2.39,0-.78-.2-2.21-.4-3.42-1.25.92-2.5,1.42-3.62,1.78-3.74,1.23-5.69,1.23-6.51,0-.14-.2-.23-.42-.27-.64-2.53,1.61-4.73,2.43-6.21,2.97-.51.19-.95.35-1.2.48-.73.37-.95.69-.96.82-.01.1.07.26.18.39Z"/></g><g><path class="cls-4" d="m1091.65,463.35c-3.09,4.47-7.93,12.24-10.95,12.98-2.62,0-5.57,0-5.57,0,0,0-1.18-2.3,1.25-2.81s4.06-3.02,4.06-8.93c0,0,.32,4.33,3.29,1.29,1.14-1.16,2.56-3.58,3.07-7.72,0,0,2.31,1.14,3.86,2.6,1.54,1.47.99,2.59.99,2.59"/><path d="m1080.7,477.33h-5.57c-.38,0-.72-.21-.89-.54-.08-.15-.74-1.52-.15-2.77.25-.52.81-1.2,2.08-1.47.81-.17,3.27-.69,3.27-7.95,0-.54.43-.98.96-1,.56-.03.99.39,1.03.92.05.66.31,1.35.49,1.45,0,0,.33-.01,1.09-.79.66-.68,2.25-2.72,2.79-7.14.04-.32.23-.6.52-.76.28-.15.63-.16.92-.02.1.05,2.47,1.22,4.11,2.78,1.64,1.56,1.53,3.1,1.2,3.76-.02.04-.05.09-.07.13-.43.62-.89,1.3-1.37,2.02-4.07,6.03-7.4,10.69-10.16,11.36-.08.02-.16.03-.24.03Zm-4.84-2h4.7c2.25-.69,6.23-6.59,8.88-10.51.46-.68.89-1.32,1.3-1.91.02-.16.01-.67-.77-1.42-.73-.69-1.67-1.32-2.4-1.76-.73,3.89-2.23,5.93-3.12,6.85-1.16,1.19-2.23,1.62-3.19,1.27-.51,3.92-2.05,6.1-4.66,6.65-.26.05-.59.16-.69.37-.06.12-.06.29-.04.46Zm15.79-11.98h0,0Zm0,0h0,0Z"/></g><path d="m1059.16,469.07c-.11,0-.22-.02-.33-.06-.52-.18-.8-.75-.61-1.27l1.45-4.14c.18-.52.75-.79,1.27-.61.52.18.8.75.61,1.27l-1.45,4.14c-.14.41-.53.67-.94.67Z"/><path d="m1050.89,468.92c-.3,0-.59-.13-.79-.38-.34-.43-.27-1.05.15-1.39.05-.04,1.21-1.11,2.29-4.53.17-.53.73-.82,1.25-.65.53.17.82.73.65,1.25-1.29,4.08-2.78,5.35-2.95,5.48-.18.15-.4.22-.62.22Z"/><path d="m1086.8,459.45c-.31,0-.61-.14-.81-.41l-2.18-2.98c-.33-.45-.23-1.07.22-1.4.45-.33,1.07-.23,1.4.22l2.18,2.98c.33.45.23,1.07-.22,1.4-.18.13-.38.19-.59.19Z"/><path d="m1080.44,465.59c-.53,0-.97-.41-1-.95-.05-1-.83-3.37-1.12-4.2-.18-.52.09-1.09.61-1.28.52-.18,1.09.09,1.28.61.12.33,1.16,3.29,1.23,4.76.03.55-.4,1.02-.95,1.05-.02,0-.03,0-.05,0Z"/><path d="m1079.18,403.51c-.51,0-.94-.38-.99-.9l-1.21-11.86s-.01-.1-.01-.15c0-.53.42-.98.95-1,.53-.02.99.36,1.05.89l1.22,11.92c.06.55-.34,1.04-.89,1.1-.03,0-.07,0-.1,0Z"/><path d="m1079.32,404.32c-.38,0-.74-.22-.91-.59-.23-.5,0-1.1.5-1.32,2.67-1.2,5.05-1.77,5.15-1.79l23.55-3.54-.44-6.52c-.04-.55.38-1.03.93-1.07.55-.03,1.03.38,1.06.93l.5,7.44c.04.52-.33.98-.85,1.06l-24.38,3.67h0s-2.25.54-4.7,1.65c-.13.06-.27.09-.41.09Z"/><path d="m1073.52,408.65c-.19,0-.38-.05-.55-.17-.46-.3-.59-.92-.29-1.38,1.16-1.76,3.25-3.34,6.22-4.69.5-.23,1.1,0,1.33.5.23.5,0,1.1-.49,1.33-2.62,1.2-4.43,2.53-5.38,3.97-.19.29-.51.45-.84.45Z"/><path d="m1108.16,391.48c-.54,0-.98-.42-1-.96-.02-.55.41-1.02.96-1.04l11.45-.42c.56-.05,1.02.41,1.04.96.02.55-.41,1.02-.96,1.04l-11.45.42s-.02,0-.04,0Z"/><path d="m1105.85,391.57c-.51,0-.94-.38-.99-.89-.04-.34-.94-8.45-.83-14,.1-5.65,2.08-6.72,2.48-6.88.51-.2,1.09.05,1.3.56.19.49-.03,1.04-.49,1.27-.1.08-1.21.98-1.28,5.08-.08,4.35.49,10.51.72,12.82l1.38-.05c.55-.03,1.02.41,1.04.96.02.55-.41,1.02-.96,1.04l-2.31.08s-.02,0-.04,0Z"/><g><path class="cls-9" d="m1082.75,356.32s-.1,4.65-1.49,6.41"/><path d="m1081.26,363.73c-.22,0-.44-.07-.62-.22-.43-.34-.51-.97-.16-1.4.86-1.09,1.24-4.14,1.27-5.81.01-.55.47-.98,1.02-.98.55.01.99.47.98,1.02-.01.51-.15,5.04-1.71,7.01-.2.25-.49.38-.78.38Z"/></g><g><path class="cls-9" d="m1087.15,357.39c-.04,2.32-.82,3.31-.82,3.31l-.33.43c-.07-.26-.08-.43-.08-.43,0,0-2.24.87-4.66,2.03,1.23-1.57,1.45-5.53,1.47-6.4,1.19.33,2.7-.3,3.96-1.25.17.26.48.92.45,2.32Z"/><path d="m1081.26,363.73c-.3,0-.58-.13-.78-.37-.29-.36-.29-.88,0-1.24.77-.99,1.2-3.71,1.26-5.82,0-.31.16-.59.41-.78.25-.18.57-.24.86-.16.74.21,1.93-.21,3.09-1.08.22-.17.5-.24.77-.19.27.05.51.21.67.44.3.46.65,1.32.62,2.88h0c-.04,2.59-.94,3.79-1.04,3.92l-.31.41c-.23.3-.61.45-.98.37-.13-.02-.25-.07-.35-.14-.86.35-2.28.96-3.76,1.66-.14.07-.29.1-.43.1Zm2.42-6.33c-.07.92-.21,2.17-.51,3.36,1.35-.59,2.33-.97,2.39-.99.05-.02.11-.04.17-.05.17-.41.41-1.17.42-2.34h0c0-.29,0-.53-.02-.74-.84.46-1.68.72-2.45.77Z"/></g><path d="m1115.22,477.69c-.55,0-1-.45-1-1v-47.92c0-.55.45-1,1-1s1,.45,1,1v47.92c0,.55-.45,1-1,1Z"/><g><g><g><path d="m1660.15,399.78c-.36,0-.7-.19-.88-.53-.25-.47-.09-1.05.36-1.33.95-.79,4.63-7.07,4.27-8.89-.11-.54.25-1.07.79-1.17.54-.11,1.07.25,1.17.79.58,2.95-4.02,10.36-5.24,11.01-.15.08-.31.12-.47.12Zm-.47-1.88s-.02,0-.03.02c0,0,.02-.01.03-.02Z"/><path d="m1678.49,396.85c-4.38,0-8.25-3.05-10.15-5.36-.35-.43-.29-1.06.14-1.41.43-.35,1.06-.29,1.41.14.28.34,6.9,8.21,13.7,2.67,4.62-3.76,5.72-9.69,5.52-11.81-.05-.55.35-1.04.9-1.09.56-.05,1.04.35,1.09.9.25,2.56-.96,9.24-6.25,13.56-2.13,1.74-4.31,2.41-6.36,2.41Z"/><g><path d="m1672.07,383.99c.04-.06.61-2.56,1.47-3.81.71-1.03,3.35-.06,3.15,1.72,1.73-1.6,4.21-.72,5.58-5.4,4.09.88,5.07,2.82,9.73,4.89,5.81,2.58,9.97-5.25,2.9-9.25-4.53-2.56-9.37-1.53-15.37-4.12-7.38-3.19-11.54-.64-12.08,3.57-1.22,9.59-4.12,15.19-3.34,15.73s4.29,2.28,7.96-3.33Z"/><path d="m1666.41,389.01c-1.49,0-2.54-.63-2.87-.86-.93-.65-.62-1.71.23-4.56.8-2.69,2-6.76,2.69-12.12.28-2.17,1.4-3.92,3.16-4.92,1.77-1.01,5-1.73,10.31.56,2.8,1.21,5.33,1.6,7.79,1.97,2.67.41,5.2.79,7.68,2.2,4.29,2.43,4.9,6.22,3.64,8.71-1.15,2.29-4.07,3.82-7.44,2.32-2.05-.91-3.4-1.79-4.59-2.56-1.33-.86-2.41-1.57-4.07-2.05-1.08,2.88-2.71,3.55-4.04,4.1-.59.24-1.1.45-1.51.84-.31.28-.76.35-1.13.16-.37-.19-.59-.59-.54-1,.04-.37-.22-.63-.45-.78-.42-.28-.83-.28-.92-.23-.38.56-.8,1.67-1.23,3.25-.07.27-.1.37-.19.51,0,0,0,0,0,0-1.64,2.51-3.48,3.98-5.47,4.37-.36.07-.71.1-1.03.1Zm-1.41-2.32c.4.2,1.13.43,2.05.26,1.39-.27,2.8-1.44,4.1-3.38l.02-.06c.32-1.17.82-2.83,1.55-3.89.57-.82,1.73-1.08,2.9-.64.65.24,1.29.71,1.68,1.34.28-.14.56-.25.82-.36,1.28-.53,2.39-.99,3.19-3.73.15-.5.66-.81,1.17-.7,2.54.55,3.96,1.47,5.61,2.54,1.13.74,2.42,1.57,4.32,2.41,2.34,1.04,4.11.05,4.84-1.39.87-1.73.33-4.28-2.84-6.07-2.17-1.23-4.41-1.57-7-1.96-2.46-.37-5.24-.8-8.28-2.11-3.55-1.54-6.58-1.77-8.52-.66-1.54.88-2.03,2.35-2.16,3.44-.71,5.53-1.94,9.69-2.76,12.44-.29.99-.6,2.01-.68,2.53Zm7.07-2.69h0,0Zm0,0h0,0Z"/></g><g><path class="cls-10" d="m1676.77,440.22s-22.2,22.21-28.2,22.77c0,0-3.69-15.44,4.75-52.35,2.33-10.19,9.27-14.74,15.53-13.93,3.21.41,10.75,1.38,10.72,24.2l-7.48,3.48-.23-4.32-11.07,5.19c.45,5.36,1.28,10.94,2.92,12.31,1.18,1,3.9,1.28,7.2-.32,2.43-1.18,5.47-3.43,8.2-5.65-.25,3.15-1.84,4.88-2.33,8.63Z"/><path class="cls-10" d="m1648.57,463.99c-.46,0-.86-.31-.97-.77-.15-.64-3.65-16.09,4.75-52.81,1.8-7.88,7.77-15.84,16.63-14.7,3.48.45,11.63,1.49,11.59,25.2,0,.39-.23.74-.58.91l-7.48,3.48c-.3.14-.65.12-.94-.05s-.47-.47-.48-.8l-.15-2.84-9.1,4.26c.78,8.61,2,10.51,2.5,10.93.76.65,3.01,1.05,6.12-.46,2-.97,4.7-2.83,8.01-5.52.31-.25.74-.29,1.1-.11.35.19.56.57.53.96-.14,1.72-.65,3.07-1.14,4.37-.47,1.25-.97,2.55-1.19,4.31-.03.22-.13.42-.28.58-2.3,2.3-22.63,22.48-28.81,23.06-.03,0-.06,0-.09,0Zm18.76-66.39c-6.86,0-11.53,6.67-13.03,13.25-7.12,31.11-5.53,46.99-4.93,50.92,5-1.78,18.17-13.75,26.46-22.02.27-1.82.79-3.2,1.26-4.42.16-.42.31-.83.45-1.24-2.46,1.88-4.54,3.23-6.2,4.04-3.74,1.81-6.85,1.4-8.28.19-1-.84-2.44-3.1-3.27-12.99-.04-.42.19-.81.57-.99l11.07-5.19c.3-.14.65-.12.94.05.29.17.47.47.48.8l.15,2.85,5.56-2.59c-.1-21.32-6.92-22.2-9.84-22.57-.48-.06-.94-.09-1.4-.09Zm9.44,42.62h0,0Z"/></g><path d="m1692.02,423.25c-.55,0-1-.45-1-1,0-.55.45-1,1-1l26.75-.07,9.38-24.93c.19-.52.77-.78,1.29-.58.52.19.78.77.58,1.29l-9.62,25.57c-.15.39-.52.65-.93.65l-27.45.07h0Z"/><path d="m1666.49,439.36c-1.5,0-2.69-.41-3.44-1.04-1-.84-2.44-3.1-3.27-12.99-.29-3.42-.42-6.69-.5-8.86-.04-.97-.07-1.89-.1-2.08-.08-.53.27-1.05.79-1.15.53-.11,1.03.2,1.16.72.06.23.08.61.15,2.42.08,2.15.21,5.4.5,8.77.77,9.2,2.05,11.2,2.56,11.63.76.64,3.01,1.05,6.12-.46,2-.97,4.7-2.83,8.01-5.52,3.71-3.02,6.84-6.02,6.87-6.05.4-.38,1.03-.37,1.41.03.38.4.37,1.03-.03,1.41-.03.03-3.23,3.09-7,6.15-3.43,2.79-6.25,4.73-8.39,5.77-1.8.87-3.45,1.23-4.84,1.23Z"/><path d="m1672.09,425.38c-.18,0-.36-.05-.51-.14-.28-.17-.47-.47-.48-.8l-.84-15.54c-.03-.55.39-1.02.94-1.05.54-.04,1.02.39,1.05.95l.76,14.06,18.49-8.59s.08-.03.12-.05c3.09-.98,9.61-1.24,12.2,4.79.22.51-.02,1.09-.52,1.31-.51.22-1.1-.02-1.31-.53-2.43-5.66-8.97-3.91-9.7-3.69l-19.77,9.19c-.13.06-.28.09-.42.09Z"/><path d="m1660.78,426.25c-.38,0-.74-.21-.91-.58-.23-.5-.02-1.1.48-1.33l11.07-5.19c.5-.23,1.1-.02,1.33.48.23.5.02,1.1-.48,1.33l-11.07,5.19c-.14.06-.28.09-.42.09Z"/><g><path d="m1730.9,469.71c-.76.28-1.2,1.07-1.05,1.87.34,1.88.89,3.55,1.28,4.06.55.73,11.71-.88,19.03-5,4.66-2.62,3.53-4.12.87-4.74-2.28-.53-13.97,1.54-20.12,3.81Z"/><path d="m1732.42,476.76c-1.07,0-1.82-.16-2.09-.52-.6-.79-1.17-2.82-1.47-4.49-.23-1.28.48-2.54,1.69-2.98h0c6.05-2.23,18.04-4.47,20.69-3.84,1.87.43,2.9,1.23,3.07,2.36.2,1.37-.97,2.71-3.67,4.23-4.98,2.8-14.05,5.25-18.22,5.25Zm-.5-1.73h0,0Zm-.13-.23c1.94.17,11.35-1.37,17.87-5.04,2.61-1.46,2.67-2.2,2.67-2.21h0s-.21-.38-1.54-.69c-1.89-.43-13.33,1.47-19.55,3.77h0c-.3.11-.47.43-.42.75.3,1.67.72,2.89.97,3.41Zm-.9-5.1h0,0Z"/></g><path d="m1664.55,476.36c-9.41,0-14.92-4.1-16.86-12.54-.12-.54.21-1.08.75-1.2.54-.12,1.08.21,1.2.75,1.72,7.5,6.46,10.99,14.91,10.99,7.6,0,15.04-4.64,22.13-13.78,9.47-12.23,16.37-21.79,17.52-23.67.03-.24.15-.47.34-.63.69-.58,1.3-.12,1.37-.07.07.06.34.3.37.7,4.75,7.46,19.67,23.96,22.37,26.93l6.23-1.86c-6.3-12.05-22.65-39.57-31.29-38.33-8.67,1.26-24.57,14.69-35.13,26.69-.37.41-1,.45-1.41.09-.41-.37-.46-1-.09-1.41,11.07-12.57,27.1-26,36.34-27.34,5.2-.77,12.53,5.89,21.75,19.77,6.73,10.12,12.11,20.59,12.16,20.69.14.26.15.58.03.85-.12.27-.35.48-.63.57l-7.99,2.39c-.37.11-.77,0-1.02-.28-.7-.77-16.44-17.97-22.35-26.68-2.44,3.61-9.3,12.92-16.98,22.83-7.48,9.66-15.46,14.56-23.71,14.56Z"/><path d="m1697.52,449.3l-1.07-1.69c.12-.08.25-.15.37-.22,3.08-1.87,7.74-3.84,12.42-5.23.53-.16,1.09.14,1.24.67.16.53-.14,1.09-.67,1.24-4.46,1.33-9.06,3.27-12,5.05-.13.07-.21.12-.29.18Zm-.54-.84h0,0Z"/><path d="m1671.57,476.9c-4.24,0-6.93-.5-7.21-.56-.54-.11-.9-.63-.79-1.17.11-.54.64-.89,1.17-.79.18.03,17.96,3.31,35.92-7.81,10.12-6.27,16.2-9.52,19.52-11.13.5-.24,1.09-.04,1.34.46.24.5.04,1.1-.46,1.34-3.28,1.6-9.29,4.81-19.34,11.04-11.67,7.23-23.06,8.63-30.14,8.63Z"/><path d="m1757.63,468.48s-.08,0-.12,0c-.96-.12-3.61-1.22-9.02-3.51-4.43-1.87-9.94-4.2-15.03-6.09-.52-.19-.78-.77-.59-1.29.19-.52.77-.78,1.29-.59,5.14,1.91,10.67,4.25,15.11,6.13,3.33,1.41,6.51,2.75,7.89,3.2,1.31-2.3,2.75-6.12,3.34-7.75-4.3-2.47-26.78-15.12-36.98-16.42-.55-.07-.94-.57-.87-1.12s.58-.93,1.12-.87c11.65,1.49,37.36,16.45,38.45,17.09.41.24.6.74.44,1.19-.09.27-2.3,6.61-4.2,9.56-.19.29-.5.46-.84.46Z"/><g><path d="m1761.91,470.07c-.39.8-.13,1.76.59,2.28,1.71,1.23,3.34,2.64,4.04,2.76.99.16,8.23-10.4,10.88-19.24,1.69-5.62-.55-6.2-3.56-3.23-1.83,1.81-8.81,10.95-11.95,17.43Z"/><path d="m1766.48,476.1s-.07,0-.1,0c-.71-.11-1.54-.72-3.06-1.88-.45-.34-.92-.7-1.41-1.05-1.12-.81-1.5-2.29-.9-3.53h0c3.2-6.61,10.17-15.77,12.14-17.71,2.41-2.37,3.9-2.27,4.74-1.77,1.29.78,1.45,2.8.49,6-2.18,7.26-9.43,19.94-11.89,19.94Zm.23-1.98h0,0Zm-3.9-3.62c-.17.36-.06.79.27,1.03.49.36.98.73,1.45,1.08.64.49,1.47,1.12,1.93,1.38,1.59-1.48,7.57-10.33,10-18.42.91-3.03.39-3.71.38-3.72-.11-.03-.89.11-2.29,1.49-1.69,1.67-8.61,10.68-11.75,17.15h0Z"/></g><path d="m1667.7,450.68c-.22,0-.44-.07-.63-.22-.43-.35-.5-.98-.15-1.41,4.91-6.08,13.02-13.04,13.36-13.33.42-.36,1.05-.31,1.41.11.36.42.31,1.05-.11,1.41-.08.07-8.32,7.12-13.1,13.06-.2.25-.49.37-.78.37Z"/></g><path d="m1762.76,470.19c-.17,0-.34-.04-.5-.14l-4.57-2.66c-.48-.28-.64-.89-.36-1.37.28-.48.89-.64,1.37-.36l4.57,2.66c.48.28.64.89.36,1.37-.19.32-.52.5-.87.5Z"/><path d="m1766.69,463.09c-.13,0-.26-.03-.39-.08l-5.54-2.36c-.51-.22-.74-.8-.53-1.31s.8-.75,1.31-.53l5.54,2.36c.51.22.74.8.53,1.31-.16.38-.53.61-.92.61Z"/><path d="m1731.01,470.24c-.37,0-.72-.21-.9-.56l-2.17-4.41c-.24-.5-.04-1.09.46-1.34.5-.24,1.09-.04,1.34.46l2.17,4.41c.24.5.04,1.09-.46,1.34-.14.07-.29.1-.44.1Z"/><path d="m1737.84,469.2c-.35,0-.7-.19-.88-.52l-2.84-5.22c-.26-.49-.08-1.09.4-1.36.48-.26,1.09-.08,1.36.4l2.84,5.22c.26.49.08,1.09-.4,1.36-.15.08-.32.12-.48.12Z"/></g><path d="m1673.23,385.48c-.16,0-.31-.04-.46-.11-.84-.44-.94-1.62-.88-2.53.09-1.39.63-3.04,1.89-3.51,1.02-.38,1.78-.17,2.25.06,1.1.56,1.47,1.76,1.51,1.9.15.53-.16,1.08-.69,1.24-.53.15-1.08-.15-1.23-.68-.04-.13-.22-.53-.5-.67-.06-.03-.24-.12-.65.03-.43.21-.73,1.94-.55,2.54.32.3.41.78.2,1.19-.18.34-.53.54-.89.54Z"/></g></g></g></svg>