<svg width="100%" height="14" viewBox="0 0 181 14" fill="none" xmlns="http://www.w3.org/2000/svg"><path fill-rule="evenodd" clip-rule="evenodd" d="M42.7733 6.95123C42.7733 3.12621 46.0494 0.0769043 52.2167 0.0769043C58.3862 0.0769043 61.6963 3.12621 61.6963 6.95123C61.6963 10.8307 58.5758 13.9231 52.2529 13.9231C45.9279 13.9231 42.7733 10.8307 42.7733 6.95123ZM48.948 6.87049C48.9066 9.32232 49.8963 11.7888 52.1487 11.8285C54.4691 11.8716 55.4665 9.37838 55.5079 6.98513C55.5535 4.44711 54.439 2.19234 52.3287 2.15469C50.2185 2.11912 48.9937 4.33246 48.948 6.87049ZM3.07298 2.37727L9.26922 13.5314L16.4413 13.5369L22.5311 2.37727H25.5835V0.355981H16.4016V2.37727H19.0538L14.6193 10.501L10.1261 2.37727H13.3492L13.347 0.355981H0.0265703L0.0244141 2.37727H3.07298ZM82.0053 2.37184V0.355981L94.2892 0.357654V2.37351H91.229V11.4779H94.0656C96.6933 11.4779 98.4166 9.75704 98.4166 7.42361H100.443V13.5201L82.0053 13.5218V11.4796H85.1017L85.0978 2.37184H82.0053ZM121.395 2.37727L127.589 13.5314L134.762 13.5369L140.852 2.37727H143.905V0.355981H134.723V2.37727H137.375L132.941 10.501L128.447 2.37727H131.669V0.355981H118.348L118.346 2.37727H121.395ZM161.101 6.95123C161.101 3.12621 164.377 0.0769043 170.544 0.0769043C176.714 0.0769043 180.024 3.12621 180.024 6.95123C180.024 10.8307 176.903 13.9231 170.581 13.9231C164.256 13.9231 161.101 10.8307 161.101 6.95123ZM167.276 6.87049C167.234 9.32232 168.224 11.7888 170.476 11.8285C172.795 11.8716 173.792 9.37838 173.834 6.98513C173.879 4.44711 172.767 2.19234 170.656 2.15469C168.546 2.11912 167.321 4.33246 167.276 6.87049Z" fill="white"></path></svg>
