<svg width="48" height="48" viewBox="0 0 48 48" fill="none" xmlns="http://www.w3.org/2000/svg"><path d="M23.4999 23.3924L29 28.8924C29.2769 29.1694 29.4185 29.5174 29.425 29.9366C29.4314 30.3558 29.2897 30.7103 29 31.0001C28.7102 31.2898 28.359 31.4347 27.9462 31.4347C27.5333 31.4347 27.182 31.2898 26.8923 31.0001L21.0423 25.1501C20.8551 24.9629 20.7179 24.7589 20.6308 24.5382C20.5436 24.3174 20.5 24.0894 20.5 23.8539V15.5C20.5 15.0751 20.6438 14.7188 20.9314 14.4313C21.219 14.1438 21.5754 14.0001 22.0006 14.0001C22.4258 14.0001 22.782 14.1438 23.0692 14.4313C23.3563 14.7188 23.4999 15.0751 23.4999 15.5V23.3924ZM36 11.8847H31.4999C31.0749 11.8847 30.7187 11.7409 30.4312 11.4532C30.1437 11.1656 30 10.8092 30 10.384C30 9.95885 30.1437 9.60268 30.4312 9.31552C30.7187 9.02835 31.0749 8.88477 31.4999 8.88477H36V4.38472C36 3.95972 36.1438 3.60347 36.4314 3.31597C36.719 3.0285 37.0754 2.88477 37.5006 2.88477C37.9258 2.88477 38.2819 3.0285 38.5691 3.31597C38.8563 3.60347 38.9999 3.95972 38.9999 4.38472V8.88477H43.4999C43.9249 8.88477 44.2812 9.02857 44.5687 9.31617C44.8562 9.6038 44.9999 9.9602 44.9999 10.3854C44.9999 10.8106 44.8562 11.1668 44.5687 11.4539C44.2812 11.7411 43.9249 11.8847 43.4999 11.8847H38.9999V16.3847C38.9999 16.8097 38.8561 17.166 38.5685 17.4534C38.2808 17.7409 37.9244 17.8847 37.4993 17.8847C37.0741 17.8847 36.7179 17.7409 36.4307 17.4534C36.1435 17.166 36 16.8097 36 16.3847V11.8847ZM22.0026 41C19.6419 41 17.4302 40.5593 15.3677 39.678C13.3052 38.7966 11.5025 37.5848 9.9595 36.0425C8.41657 34.5001 7.20425 32.6981 6.32255 30.6364C5.44085 28.5747 5 26.3635 5 24.0027C5 21.642 5.44075 19.4303 6.32225 17.3678C7.20372 15.3053 8.41575 13.5026 9.95835 11.9596C11.5009 10.4167 13.3032 9.20437 15.3653 8.32267C17.4273 7.44097 19.6389 7.00012 22 7.00012C22.3666 7.00012 22.7083 7.00845 23.025 7.02512C23.3416 7.04178 23.6833 7.08345 24.05 7.15012C24.4756 7.16295 24.832 7.31188 25.1192 7.59692C25.4063 7.88195 25.5499 8.23515 25.5499 8.65652C25.5499 9.07789 25.4063 9.43535 25.1192 9.72892C24.832 10.0225 24.4756 10.1629 24.05 10.1501C23.6961 10.1244 23.3588 10.093 23.0381 10.0558C22.7174 10.0187 22.3713 10.0001 22 10.0001C18.0923 10.0001 14.782 11.3565 12.0692 14.0693C9.35637 16.7821 7.99995 20.0924 7.99995 24.0001C7.99995 27.9078 9.35637 31.218 12.0692 33.9308C14.782 36.6437 18.0923 38.0001 22 38.0001C25.9077 38.0001 29.2179 36.6437 31.9307 33.9308C34.6435 31.218 36 27.9078 36 24.0001C36 23.5751 36.1438 23.2188 36.4314 22.9314C36.719 22.6439 37.0754 22.5001 37.5006 22.5001C37.9258 22.5001 38.2819 22.6439 38.5691 22.9314C38.8563 23.2188 38.9999 23.5751 38.9999 24.0001C38.9999 26.3612 38.5592 28.5727 37.6779 30.6348C36.7965 32.6968 35.5847 34.4991 34.0424 36.0417C32.5 37.5843 30.698 38.7963 28.6363 39.6778C26.5746 40.5593 24.3633 41 22.0026 41Z" fill="white"></path></svg>
