<svg width="100%" height="20" viewBox="0 0 180 20" fill="none" xmlns="http://www.w3.org/2000/svg"><g clip-path="url(#clip0_1801_38922)"><path d="M44.5669 4.06075H51.0587V19.6685H55.2022V4.06075H61.694V0.331482H44.5669V4.06075Z" fill="white"></path><path d="M37.2465 13.8674L28.5448 0.331482H23.8486V19.6685H27.8542V6.13258L36.5559 19.6685H41.2519V0.331482H37.2465V13.8674Z" fill="white"></path><path d="M78.2684 8.03867H69.1524V0.331482H65.0088V19.6685H69.1524V11.7679H78.2684V19.6685H82.4121V0.331482H78.2684V8.03867Z" fill="white"></path><path d="M8.68277 0.331482L0.975586 19.6685H5.28498L6.86122 15.6077H14.9245L16.5004 19.6685H20.8098L13.1027 0.331482H8.68277ZM8.25515 12.0166L10.8927 5.22098L13.5304 12.0166H8.25515Z" fill="white"></path><path d="M116.749 0C111.169 0 107.219 4.14365 107.219 10.0276C107.219 15.8563 111.169 20 116.749 20C122.302 20 126.224 15.8563 126.224 10.0276C126.224 4.14365 122.302 0 116.749 0ZM116.749 16.1326C113.489 16.1326 111.5 13.8122 111.5 10.0276C111.5 6.18784 113.489 3.86741 116.749 3.86741C119.981 3.86741 121.942 6.18784 121.942 10.0276C121.942 13.8122 119.981 16.1326 116.749 16.1326Z" fill="white"></path><path d="M174.677 13.1768C173.959 15.0553 172.522 16.1326 170.561 16.1326C167.301 16.1326 165.312 13.8122 165.312 10.0276C165.312 6.18784 167.301 3.86741 170.561 3.86741C172.522 3.86741 173.959 4.94475 174.677 6.8232H179.069C177.993 2.67957 174.76 0 170.561 0C164.981 0 161.031 4.14365 161.031 10.0276C161.031 15.8563 164.981 20 170.561 20C174.788 20 178.019 17.2928 179.097 13.1768H174.677Z" fill="white"></path><path d="M148.268 0.331482L155.975 19.6685H160.202L152.494 0.331482H148.268Z" fill="white"></path><path d="M139.539 0.331482H130.091V19.6685H134.235V12.6519H139.539C143.931 12.6519 146.611 10.3315 146.611 6.49169C146.611 2.6519 143.931 0.331482 139.539 0.331482ZM139.345 8.92263H134.235V4.06075H139.345C141.39 4.06075 142.467 4.88948 142.467 6.49169C142.467 8.0939 141.39 8.92263 139.345 8.92263Z" fill="white"></path><path d="M104.042 6.21545C104.042 2.56905 101.362 0.331482 96.9699 0.331482H87.5225V19.6685H91.6661V12.0994H96.2791L100.423 19.6685H105.009L100.42 11.5229C102.723 10.6376 104.042 8.77319 104.042 6.21545ZM91.6661 4.06067H96.7765C98.8207 4.06067 99.8981 4.80653 99.8981 6.21545C99.8981 7.62437 98.8207 8.37023 96.7765 8.37023H91.6661V4.06067Z" fill="white"></path></g><defs><clipPath id="clip0_1801_38922"><rect width="178.122" height="20" fill="white" transform="translate(0.975586)"></rect></clipPath></defs></svg>
