<svg width="48" height="48" viewBox="0 0 48 48" fill="none" xmlns="http://www.w3.org/2000/svg"><path d="M19.9999 23.3846C18.0692 23.3846 16.4199 22.7007 15.0519 21.3327C13.684 19.9648 13 18.3155 13 16.3847C13 14.454 13.684 12.8046 15.0519 11.4367C16.4199 10.0687 18.0692 9.38477 19.9999 9.38477C21.9307 9.38477 23.58 10.0687 24.948 11.4367C26.3159 12.8046 26.9999 14.454 26.9999 16.3847C26.9999 18.3155 26.3159 19.9648 24.948 21.3327C23.58 22.7007 21.9307 23.3846 19.9999 23.3846ZM5 35.577V34.1693C5 33.159 5.2577 32.2443 5.7731 31.4251C6.28847 30.6059 7.00768 29.9719 7.93075 29.5232C9.59232 28.695 11.3872 28.0033 13.3154 27.4482C15.2436 26.8931 17.4717 26.6155 19.9999 26.6155H20.5845C20.7461 26.6155 20.9204 26.636 21.1076 26.677C20.9051 27.1488 20.7378 27.6296 20.6057 28.1193C20.4737 28.6091 20.3641 29.1078 20.2769 29.6154H19.9999C17.6974 29.6154 15.6589 29.8802 13.8846 30.4097C12.1102 30.9391 10.5846 31.5359 9.30765 32.2C8.85382 32.4436 8.5224 32.7282 8.3134 33.0539C8.10443 33.3795 7.99995 33.7513 7.99995 34.1693V35.6154H20.5999C20.7486 36.1231 20.9416 36.6385 21.1788 37.1615C21.416 37.6846 21.6769 38.1692 21.9615 38.6154H8.0384C7.19483 38.6154 6.47755 38.3199 5.88655 37.7288C5.29552 37.1378 5 36.4205 5 35.577ZM32.0077 38.9384L31.7654 37.4423C31.2884 37.3012 30.8397 37.1166 30.4192 36.8884C29.9987 36.6602 29.5987 36.3743 29.2192 36.0307L27.7307 36.5769C27.4128 36.6846 27.1064 36.6775 26.8115 36.5557C26.5166 36.4339 26.2846 36.241 26.1154 35.9769L25.85 35.5077C25.6808 35.2231 25.6199 34.9115 25.6673 34.5731C25.7147 34.2346 25.8705 33.9603 26.1346 33.75L27.3308 32.8C27.1872 32.2821 27.1154 31.7718 27.1154 31.2693C27.1154 30.7667 27.1872 30.2564 27.3308 29.7385L26.1539 28.75C25.8898 28.5398 25.7308 28.2737 25.6769 27.9519C25.6231 27.6302 25.6808 27.327 25.85 27.0424L26.1462 26.5424C26.3154 26.2783 26.5455 26.0853 26.8365 25.9635C27.1275 25.8418 27.432 25.8347 27.7499 25.9424L29.2192 26.4886C29.5859 26.145 29.9827 25.8623 30.4096 25.6405C30.8365 25.4187 31.2884 25.2373 31.7654 25.0962L32.0077 23.5693C32.0692 23.2309 32.2269 22.9584 32.4808 22.752C32.7346 22.5456 33.0307 22.4424 33.3692 22.4424H33.8999C34.2384 22.4424 34.5345 22.5508 34.7884 22.7674C35.0422 22.9841 35.1999 23.2616 35.2614 23.6001L35.4845 25.0962C35.9614 25.2373 36.4134 25.4238 36.8403 25.6559C37.2672 25.8879 37.664 26.186 38.0307 26.5501L39.4384 26.0039C39.7768 25.8757 40.0986 25.8725 40.4037 25.9943C40.7088 26.1161 40.946 26.3193 41.1153 26.6039L41.3999 27.0731C41.5691 27.3577 41.6268 27.6661 41.5729 27.9981C41.5191 28.3302 41.3601 28.6013 41.096 28.8115L39.9191 29.8C40.0627 30.2769 40.1345 30.7769 40.1345 31.3C40.1345 31.8231 40.0627 32.3231 39.9191 32.8L41.1153 33.75C41.3794 33.9603 41.5351 34.2295 41.5826 34.5577C41.63 34.8859 41.5691 35.1923 41.3999 35.4769L41.1037 35.9769C40.9345 36.241 40.7076 36.4339 40.423 36.5557C40.1384 36.6775 39.8371 36.6846 39.5192 36.5769L38.0307 36.0307C37.6512 36.3743 37.2512 36.6602 36.8307 36.8884C36.4102 37.1166 35.9614 37.3012 35.4845 37.4423L35.2614 38.9692C35.1999 39.3076 35.0422 39.5801 34.7884 39.7865C34.5345 39.9929 34.2384 40.0961 33.8999 40.0961H33.3692C33.0307 40.0961 32.7346 39.9877 32.4808 39.7711C32.2269 39.5544 32.0692 39.2769 32.0077 38.9384ZM33.6153 35.0769C34.664 35.0769 35.5608 34.7045 36.3057 33.9596C37.0506 33.2148 37.423 32.318 37.423 31.2693C37.423 30.2205 37.0506 29.3237 36.3057 28.5789C35.5608 27.834 34.664 27.4616 33.6153 27.4616C32.5666 27.4616 31.6698 27.834 30.925 28.5789C30.1801 29.3237 29.8076 30.2205 29.8076 31.2693C29.8076 32.318 30.1801 33.2148 30.925 33.9596C31.6698 34.7045 32.5666 35.0769 33.6153 35.0769ZM19.9999 20.3847C21.0999 20.3847 22.0416 19.9931 22.8249 19.2097C23.6083 18.4264 23.9999 17.4847 23.9999 16.3847C23.9999 15.2847 23.6083 14.3431 22.8249 13.5597C22.0416 12.7764 21.0999 12.3847 19.9999 12.3847C18.8999 12.3847 17.9583 12.7764 17.1749 13.5597C16.3916 14.3431 15.9999 15.2847 15.9999 16.3847C15.9999 17.4847 16.3916 18.4264 17.1749 19.2097C17.9583 19.9931 18.8999 20.3847 19.9999 20.3847Z" fill="white"></path></svg>
