<svg width="100%" height="32" viewBox="0 0 102 32" fill="none" xmlns="http://www.w3.org/2000/svg"><path d="M43.5803 0.5H42.9679L27.406 10.8733L27.3376 10.6058C25.1945 4.51037 19.1643 1.83247 11.4608 1.83247H0.388672V29.9604H12.1278C19.5011 29.9604 25.3951 26.9458 27.4061 21.1862L27.4729 20.9856L43.2827 31.5L60.0336 20.3154V29.9605H80.0846V21.3649H70.0791V1.83249H60.0336V11.7801L47.5434 20.3007L44.7097 18.2931L57.4389 9.72035L51.7919 6.06061L38.9274 14.6334L36.2144 12.9388L49.0764 4.36687L43.5803 0.5ZM17.8237 16.2299C17.8237 19.915 15.1458 21.5891 11.7943 21.5891H10.4399V10.5373H11.7943C15.4793 10.5373 17.8237 12.4128 17.8237 16.2299ZM101.757 29.9604H82.1214V1.83246H92.1693V21.3648H101.757V29.9604Z" fill="white"></path></svg>
