<svg width="49" height="48" viewBox="0 0 49 48" fill="none" xmlns="http://www.w3.org/2000/svg"><path d="M43.6671 19.4C42.8671 18.4 41.6671 18 40.2671 18C38.8671 18 37.6671 18.4 36.8671 19.4C35.8671 20.4 35.4671 21.6 35.4671 22.8C35.4671 24 35.8671 25 36.4671 25.8C37.0671 26.6 38.0671 27.2 39.0671 27.6V30H30.2671C29.8671 30 29.4671 30.2 29.0671 30.4C28.6671 30.6 28.6671 31.2 28.6671 31.6V35C27.6671 35.2 26.8671 35.8 26.0671 36.8C25.2671 37.8 25.0671 38.6 25.0671 39.8C25.0671 41.2 25.4671 42.4 26.4671 43.2C27.4671 44.2 28.6671 44.6 29.8671 44.6C31.2671 44.6 32.4671 44.2 33.2671 43.2C34.2671 42.2 34.6671 41 34.6671 39.8C34.6671 38.6 34.2671 37.6 33.6671 36.8C33.0671 36 32.0671 35.4 31.0671 35V32.6H39.8671C40.2671 32.6 40.6671 32.4 41.0671 32.2C41.4671 31.8 41.4671 31.4 41.4671 31V27.6C42.4671 27.4 43.2671 26.8 44.0671 25.8C44.6671 25 45.0671 24 45.0671 22.8C45.0671 21.4 44.6671 20.2 43.6671 19.4ZM31.2671 38C31.6671 38.4 31.8671 39 31.8671 39.6C31.8671 40.2 31.6671 40.6 31.2671 41.2C30.8671 41.8 30.2671 41.8 29.6671 41.8C29.0671 41.8 28.6671 41.6 28.0671 41.2C27.4671 40.8 27.4671 40.2 27.4671 39.6C27.4671 39 27.6671 38.6 28.0671 38C28.4671 37.4 29.0671 37.4 29.6671 37.4C30.2671 37.4 30.8671 37.6 31.2671 38ZM41.8671 24.4C41.4671 24.8 40.8671 25 40.2671 25C39.6671 25 39.2671 24.8 38.6671 24.4C38.0671 24 38.0671 23.4 38.0671 22.8C38.0671 22.2 38.2671 21.8 38.6671 21.2C39.0671 20.6 39.6671 20.6 40.2671 20.6C40.8671 20.6 41.2671 20.8 41.8671 21.2C42.4671 21.6 42.4671 22.2 42.4671 22.8C42.4671 23.4 42.2671 23.8 41.8671 24.4Z" fill="#317EFF"></path><path d="M10.8671 36.8C10.6671 36.6 10.6671 36.6001 10.6671 36.4001V30.8H8.06714V36.4001C8.06714 37.4001 8.46714 38.2 9.06714 38.8C9.66714 39.4 10.4671 39.8 11.4671 39.8H21.2671V37H11.2671C11.2671 37 11.0671 36.8 10.8671 36.8Z" fill="#317EFF"></path><path d="M40.0673 15C40.2673 15.2 40.2673 15.2 40.2673 15.4H43.0673C43.0673 14.4 42.6673 13.6 42.0673 13C41.4673 12.4 40.6673 12 39.6673 12H30.4673V14.8H39.6673C39.8673 14.8 40.0673 14.8 40.0673 15Z" fill="#317EFF"></path><path d="M28.8673 18C28.8673 17.8 28.6673 17.8 28.4673 17.6L23.2673 15.4L21.0673 9.99995C20.8673 9.59995 20.2673 9.59995 20.0673 9.99995L18.0673 15.4L12.8673 17.4C12.4673 17.6 12.4673 17.8 12.4673 18C12.4673 18.2 12.6673 18.4 12.8673 18.4L18.0673 20.6L20.2673 25.7999C20.4673 25.9999 20.4673 26.2 20.6673 26.2C20.8673 26.2 21.0673 25.9999 21.0673 25.7999L23.2673 20.6L28.6673 18.4C28.8673 18.2 28.8673 18.2 28.8673 18Z" fill="#317EFF"></path><path d="M9.46733 14.8C9.66733 15 9.66733 15.2 9.86733 15.2C10.0673 15.2 10.2673 15 10.2673 14.8L11.4673 11.2L15.2673 10C15.4673 9.8 15.6673 9.8 15.6673 9.6C15.6673 9.4 15.4673 9.2 15.2673 9L11.6673 7.6L10.4673 3.8C10.2673 3.4 9.66733 3.4 9.46733 3.8L8.26733 7.6L4.46733 8.8C4.26733 8.8 4.26733 9.2 4.26733 9.4C4.26733 9.6 4.46733 9.8 4.66733 9.8L8.26733 11L9.46733 14.8Z" fill="#317EFF"></path><path d="M9.26733 27C9.46733 27.2 9.46733 27.4 9.66733 27.4C9.86733 27.4 10.0673 27.2 10.0673 27L10.6673 25L12.8673 24.4C13.0673 24.2 13.2673 24.2 13.2673 24C13.2673 23.8 13.0673 23.6 12.8673 23.4L10.8673 22.8L10.2673 20.8C10.0673 20.4 9.46733 20.4 9.26733 20.8L8.66733 22.8L6.66733 23.4C6.26733 23.6 6.26733 23.6 6.26733 23.8C6.26733 24 6.46733 24.2 6.66733 24.2L8.66733 24.8L9.26733 27Z" fill="#317EFF"></path></svg>
