<svg width="48" height="48" viewBox="0 0 48 48" fill="none" xmlns="http://www.w3.org/2000/svg"><path d="M10.0038 23.1117L5.6962 18.8041C5.33466 18.4425 5.1571 18.0207 5.1635 17.5387C5.1699 17.0566 5.35386 16.6349 5.7154 16.2733L10.0038 11.9849C10.3654 11.6233 10.7872 11.4426 11.2692 11.4426C11.7512 11.4426 12.173 11.6233 12.5346 11.9849L16.823 16.2733C17.1845 16.6349 17.3653 17.0566 17.3653 17.5387C17.3653 18.0207 17.1845 18.4425 16.823 18.8041L12.5346 23.0925C12.173 23.454 11.7512 23.638 11.2692 23.6444C10.7872 23.6508 10.3654 23.4732 10.0038 23.1117ZM20.6154 43.0001C20.1032 43.0001 19.6739 42.8269 19.3274 42.4804C18.9809 42.1339 18.8077 41.7046 18.8077 41.1924V33.404C17.0922 33.2689 15.3939 33.0831 13.7127 32.8467C12.0315 32.6102 10.3504 32.3063 8.6692 31.9347C8.23076 31.8271 7.8718 31.5905 7.5923 31.2251C7.31283 30.8598 7.2372 30.4611 7.3654 30.029C7.4936 29.597 7.75513 29.2797 8.15 29.0771C8.54486 28.8746 8.96151 28.8271 9.39995 28.9348C11.7948 29.4887 14.2126 29.872 16.6533 30.0848C19.094 30.2977 21.5429 30.4041 23.9999 30.4041C26.457 30.4041 28.9059 30.2977 31.3466 30.0848C33.7873 29.872 36.2051 29.4887 38.6 28.9348C39.0384 28.8271 39.4552 28.874 39.8505 29.0754C40.2457 29.2768 40.507 29.5915 40.6345 30.0194C40.7627 30.4579 40.6871 30.8598 40.4076 31.2251C40.1281 31.5905 39.7691 31.8271 39.3307 31.9347C37.6495 32.3063 35.9684 32.6102 34.2872 32.8467C32.606 33.0831 30.9077 33.2689 29.1922 33.404V41.1924C29.1922 41.7046 29.019 42.1339 28.6725 42.4804C28.326 42.8269 27.8967 43.0001 27.3845 43.0001H20.6154ZM11.2692 20.181L13.8923 17.5387L11.2692 14.9156L8.62685 17.5387L11.2692 20.181ZM23.9999 14.3848C22.5256 14.3848 21.2724 13.8688 20.2403 12.8368C19.2083 11.8047 18.6923 10.5515 18.6923 9.07718C18.6923 7.60285 19.2083 6.34965 20.2403 5.31758C21.2724 4.28555 22.5256 3.76953 23.9999 3.76953C25.4743 3.76953 26.7275 4.28555 27.7595 5.31758C28.7916 6.34965 29.3076 7.60285 29.3076 9.07718C29.3076 10.5515 28.7916 11.8047 27.7595 12.8368C26.7275 13.8688 25.4743 14.3848 23.9999 14.3848ZM23.9999 27.7886C22.9846 27.7886 22.1153 27.4271 21.3922 26.704C20.6692 25.981 20.3076 25.1117 20.3076 24.0963C20.3076 23.081 20.6692 22.2117 21.3922 21.4887C22.1153 20.7656 22.9846 20.4041 23.9999 20.4041C25.0153 20.4041 25.8845 20.7656 26.6076 21.4887C27.3307 22.2117 27.6922 23.081 27.6922 24.0963C27.6922 25.1117 27.3307 25.981 26.6076 26.704C25.8845 27.4271 25.0153 27.7886 23.9999 27.7886ZM23.9999 11.3849C24.6435 11.3849 25.1891 11.1612 25.6365 10.7137C26.0839 10.2663 26.3076 9.72078 26.3076 9.07718C26.3076 8.43358 26.0839 7.88806 25.6365 7.44063C25.1891 6.9932 24.6435 6.76948 23.9999 6.76948C23.3563 6.76948 22.8108 6.9932 22.3634 7.44063C21.916 7.88806 21.6922 8.43358 21.6922 9.07718C21.6922 9.72078 21.916 10.2663 22.3634 10.7137C22.8108 11.1612 23.3563 11.3849 23.9999 11.3849ZM33.5307 22.9425L31.5192 19.4425C31.3654 19.1723 31.2885 18.872 31.2885 18.5418C31.2885 18.2115 31.3654 17.9092 31.5192 17.6348L33.5307 14.1349C33.6846 13.84 33.8976 13.6157 34.1697 13.4618C34.4419 13.308 34.7443 13.231 35.0769 13.231H38.9807C39.3133 13.231 39.6157 13.308 39.8878 13.4618C40.16 13.6157 40.373 13.84 40.5268 14.1349L42.5383 17.6348C42.6922 17.9051 42.7691 18.2053 42.7691 18.5356C42.7691 18.8658 42.6922 19.1682 42.5383 19.4425L40.5268 22.9425C40.373 23.2373 40.16 23.4617 39.8878 23.6155C39.6157 23.7694 39.3133 23.8463 38.9807 23.8463H35.0769C34.7443 23.8463 34.4419 23.7694 34.1697 23.6155C33.8976 23.4617 33.6846 23.2373 33.5307 22.9425ZM35.7525 20.8464H38.3115L39.5846 18.5387L38.3051 16.231H35.7461L34.473 18.5387L35.7525 20.8464Z" fill="white"></path></svg>
