<svg width="48" height="48" viewBox="0 0 48 48" fill="none" xmlns="http://www.w3.org/2000/svg"><path d="M24.0033 42.9999C21.3754 42.9999 18.9054 42.5012 16.5931 41.5037C14.2808 40.5062 12.2694 39.1524 10.559 37.4424C8.84853 35.7324 7.49442 33.7216 6.49665 31.4099C5.49888 29.0983 5 26.6283 5 24C5 21.3538 5.49103 18.8833 6.4731 16.5885C7.45513 14.2936 8.80768 12.2744 10.5308 10.5308L24 24V5C26.6256 5 29.0945 5.49867 31.4068 6.496C33.7191 7.49334 35.7305 8.84683 37.4409 10.5565C39.1514 12.2662 40.5055 14.2767 41.5033 16.588C42.501 18.8992 42.9999 21.3687 42.9999 23.9966C42.9999 26.6245 42.5012 29.0945 41.5039 31.4068C40.5066 33.7191 39.1531 35.7305 37.4434 37.4409C35.7337 39.1514 33.7232 40.5055 31.412 41.5033C29.1007 42.501 26.6312 42.9999 24.0033 42.9999Z" fill="white"></path></svg>
