<svg width="100%" height="38" viewBox="0 0 136 38" fill="none" xmlns="http://www.w3.org/2000/svg"><g clip-path="url(#clip0_1801_38913)"><path d="M42.5376 18.2952C42.5376 24.281 46.3817 28.4546 51.7084 28.4546C57.0352 28.4546 60.8793 24.281 60.8793 18.2952C60.8793 12.3095 57.0352 8.13593 51.7084 8.13593C46.3817 8.13593 42.5376 12.3095 42.5376 18.2952ZM57.3647 18.2952C57.3647 22.5786 55.0308 25.3519 51.7084 25.3519C48.3861 25.3519 46.0522 22.5786 46.0522 18.2952C46.0522 14.0119 48.3861 11.2386 51.7084 11.2386C55.0308 11.2386 57.3647 14.0119 57.3647 18.2952Z" fill="white"></path><path d="M70.7765 28.4546C74.8127 28.4546 77.1192 25.0498 77.1192 20.9586C77.1192 16.8675 74.8127 13.4627 70.7765 13.4627C68.9094 13.4627 67.5365 14.2041 66.6304 15.2749V13.7373H63.3354V33.0949H66.6304V26.6424C67.5365 27.7132 68.9094 28.4546 70.7765 28.4546ZM66.548 20.5468C66.548 17.8285 68.0856 16.3458 70.1175 16.3458C72.5063 16.3458 73.7968 18.2129 73.7968 20.9586C73.7968 23.7044 72.5063 25.5715 70.1175 25.5715C68.0856 25.5715 66.548 24.0614 66.548 21.398V20.5468Z" fill="white"></path><path d="M86.0364 28.4546C88.9194 28.4546 91.1984 26.9444 92.2143 24.4183L89.3862 23.3475C88.9469 24.8302 87.6564 25.6539 86.0364 25.6539C83.9221 25.6539 82.4394 24.1437 82.1923 21.6725H92.2967V20.5742C92.2967 16.6203 90.0726 13.4627 85.8991 13.4627C81.7255 13.4627 79.0347 16.7302 79.0347 20.9586C79.0347 25.4068 81.9177 28.4546 86.0364 28.4546ZM85.8716 16.2359C87.9584 16.2359 88.9469 17.6088 88.9743 19.2014H82.357C82.8513 17.2519 84.1692 16.2359 85.8716 16.2359Z" fill="white"></path><path d="M94.769 28.1525H98.064V19.6956C98.064 17.6363 99.5741 16.538 101.057 16.538C102.869 16.538 103.583 17.8285 103.583 19.6132V28.1525H106.878V18.6522C106.878 15.5495 105.066 13.4627 102.045 13.4627C100.178 13.4627 98.8877 14.3139 98.064 15.2749V13.7373H94.769V28.1525Z" fill="white"></path><path d="M116.528 8.43793L109.06 28.1525H112.547L114.222 23.6495H122.733L124.436 28.1525H127.978L120.509 8.43793H116.528ZM118.45 12.3369L121.58 20.5742H115.375L118.45 12.3369Z" fill="white"></path><path d="M133.634 8.49512H130.12V28.2097H133.634V8.49512Z" fill="white"></path><path d="M34.4857 15.6787C35.3163 13.1858 35.0302 10.4549 33.702 8.18737C31.7044 4.70941 27.6888 2.92008 23.7669 3.76212C22.0222 1.79661 19.5155 0.678855 16.8876 0.694872C12.8788 0.685719 9.3219 3.26674 8.08859 7.08106C5.51329 7.60847 3.29037 9.22047 1.98957 11.5052C-0.0228499 14.974 0.435921 19.3466 3.12448 22.3212C2.29389 24.8141 2.5799 27.545 3.90817 29.8125C5.90571 33.2905 9.92139 35.0798 13.8433 34.2378C15.5868 36.2033 18.0946 37.3211 20.7225 37.3039C24.7336 37.3142 28.2917 34.7309 29.525 30.9131C32.1003 30.3857 34.3232 28.7737 35.624 26.489C37.6341 23.0202 37.1742 18.651 34.4868 15.6764L34.4857 15.6787ZM20.7248 34.9117C19.1197 34.9139 17.5649 34.3522 16.3327 33.3237C16.3888 33.2939 16.486 33.2402 16.549 33.2013L23.839 28.9911C24.2119 28.7794 24.4408 28.3825 24.4385 27.9534V17.6763L27.5194 19.4553C27.5526 19.4713 27.5744 19.5033 27.5789 19.54V28.0507C27.5744 31.8353 24.5094 34.9036 20.7248 34.9117ZM5.98465 28.6158C5.18037 27.2269 4.89092 25.5989 5.16664 24.019C5.22041 24.051 5.31537 24.1094 5.38287 24.1483L12.6729 28.3584C13.0424 28.5747 13.5 28.5747 13.8707 28.3584L22.7704 23.2193V26.7773C22.7727 26.8139 22.7555 26.8494 22.7269 26.8723L15.358 31.1271C12.0757 33.0171 7.8838 31.8936 5.98579 28.6158H5.98465ZM4.06605 12.703C4.8669 11.3118 6.13109 10.2478 7.63668 9.69525C7.63668 9.75818 7.63325 9.86915 7.63325 9.94695V18.3684C7.63096 18.7963 7.85978 19.1933 8.2316 19.405L17.1313 24.543L14.0503 26.322C14.0194 26.3426 13.9805 26.346 13.9462 26.3311L6.57613 22.0729C3.30067 20.1761 2.17719 15.9853 4.0649 12.7042L4.06605 12.703ZM29.3797 18.5938L20.48 13.4547L23.561 11.6768C23.5919 11.6562 23.6308 11.6528 23.6651 11.6676L31.0352 15.9224C34.3163 17.8181 35.441 22.0157 33.5452 25.2969C32.7432 26.6858 31.4802 27.7498 29.9758 28.3035V19.6303C29.9792 19.2025 29.7515 18.8066 29.3808 18.5938H29.3797ZM32.4458 13.9786C32.392 13.9455 32.2971 13.8883 32.2296 13.8494L24.9396 9.63919C24.57 9.42297 24.1124 9.42297 23.7417 9.63919L14.842 14.7783V11.2203C14.8397 11.1837 14.8569 11.1482 14.8855 11.1253L22.2544 6.87398C25.5368 4.98055 29.7332 6.10746 31.6255 9.39093C32.4252 10.7775 32.7146 12.401 32.4435 13.9786H32.4458ZM13.1671 20.3202L10.085 18.5412C10.0518 18.5252 10.0301 18.4931 10.0255 18.4565V9.9458C10.0278 6.15665 13.1019 3.08597 16.891 3.08826C18.4939 3.08826 20.0452 3.65114 21.2774 4.67623C21.2213 4.70597 21.1252 4.75974 21.0612 4.79864L13.7712 9.00881C13.3982 9.22047 13.1694 9.61631 13.1717 10.0453L13.1671 20.3179V20.3202ZM14.8409 16.7118L18.8051 14.4225L22.7693 16.7107V21.2881L18.8051 23.5762L14.8409 21.2881V16.7118Z" fill="white"></path></g><defs><clipPath id="clip0_1801_38913"><rect width="135" height="36.6102" fill="white" transform="translate(0.5 0.694885)"></rect></clipPath></defs></svg>
