<svg width="49" height="48" viewBox="0 0 49 48" fill="none" xmlns="http://www.w3.org/2000/svg"><path d="M24.3335 39.7999C27.5335 38.7999 30.3335 36.7999 32.3335 33.7999C34.5335 30.7999 35.7335 27.5999 36.1335 23.9999H24.3335V8.1999L12.7335 12.5999C12.5335 12.5999 12.5335 12.7999 12.5335 12.7999C12.3335 12.7999 12.3335 12.9999 12.3335 13.1999V23.1999C12.3335 23.1999 12.3335 23.5999 12.3335 23.9999H24.3335V39.7999ZM24.3335 42.7999C24.1335 42.7999 23.9335 42.7999 23.7335 42.7999C23.5335 42.7999 23.3335 42.7999 23.1335 42.5999C18.9335 40.9999 15.5335 38.3999 13.1335 34.5999C10.7335 30.7999 9.3335 26.5999 9.3335 22.1999V13.1999C9.3335 12.3999 9.5335 11.7999 9.9335 11.1999C10.3335 10.3999 10.9335 9.9999 11.7335 9.7999L23.1335 5.5999C23.5335 5.3999 23.9335 5.3999 24.3335 5.3999C24.7335 5.3999 25.1335 5.3999 25.5335 5.5999L36.9335 9.7999C37.7335 9.9999 38.3335 10.3999 38.7335 11.1999C39.1335 11.7999 39.3335 12.3999 39.3335 13.1999V22.1999C39.3335 26.5999 38.1335 30.7999 35.5335 34.5999C33.1335 38.3999 29.7335 40.9999 25.5335 42.5999C25.3335 42.5999 25.1335 42.7999 24.9335 42.7999C24.7335 42.5999 24.5335 42.7999 24.3335 42.7999Z" fill="#317EFF"></path></svg>
