<svg width="100%" height="60" viewBox="0 0 60 60" fill="none" xmlns="http://www.w3.org/2000/svg"><g clip-path="url(#clip0_1801_38936)"><path d="M30.0484 0.000183105C13.9886 0.000183105 0.958008 13.4385 0.958008 30C0.958008 46.5616 13.9886 59.9999 30.0484 59.9999C46.1083 59.9999 59.1395 46.5616 59.1395 30C59.1395 13.4385 46.1083 0.000183105 30.0484 0.000183105ZM30.0484 1.13128C45.5159 1.13128 58.0427 14.0494 58.0427 30C58.0427 45.9507 45.5159 58.8691 30.0484 58.8691C14.5809 58.8691 2.05384 45.9507 2.05384 30C2.05384 14.0494 14.5809 1.13128 30.0484 1.13128Z" fill="white"></path><path d="M30.0173 58.868C45.4968 58.868 58.0454 45.9432 58.0454 29.9996C58.0454 14.0561 45.4968 1.13123 30.0173 1.13123C14.5379 1.13123 1.98926 14.0561 1.98926 29.9996C1.98926 45.9432 14.5379 58.868 30.0173 58.868Z" fill="#262626"></path><path d="M43.8039 24.1525C40.7534 24.1525 38.9931 25.6207 38.9931 27.6283C38.9931 31.9234 45.6587 30.7871 45.6587 32.331C45.6587 32.9035 44.8616 33.113 44.1759 33.113C42.9281 33.113 41.736 32.7646 41.2186 31.8405L38.266 32.9901C38.266 32.9901 38.8159 35.78 44.0794 35.78C47.4213 35.78 49.2253 34.3132 49.2253 32.1783C49.2253 28.0547 42.5893 29.1122 42.5893 27.6252C42.5893 27.1279 43.4103 26.8689 43.9157 26.8689C45.8489 26.8689 45.9999 28.0592 45.9999 28.0592L49.0023 26.8637C48.7089 25.9506 48.0044 24.1525 43.8039 24.1525ZM54.0345 24.2312L50.3129 25.6111V35.4142H54.0345V24.2312ZM11.8979 24.4229H5.87646V35.4142H9.59806V33.3502L12.6994 32.1205C15.498 31.0106 16.1296 29.9203 16.1442 27.9907C16.1691 24.6046 12.8421 24.4229 11.8979 24.4229ZM34.0947 24.4229H28.0729V35.4142H31.7945V33.3502L34.8959 32.1205C37.6945 31.0106 38.3261 29.9203 38.3407 27.9907C38.3659 24.6046 35.0386 24.4229 34.0947 24.4229ZM17.1889 24.4229V35.4142H26.5905V32.665H20.9098V31.2471H25.3118V28.5958H20.9102V27.1721H26.5384V24.4232L17.1889 24.4229ZM9.59806 27.1724H11.0629C11.8053 27.1724 12.4206 27.465 12.4206 28.31C12.4206 29.1475 11.7403 29.5763 11.4562 29.6947L9.59806 30.4702V27.1724ZM31.7945 27.1724H33.2594C34.0018 27.1724 34.6174 27.465 34.6174 28.31C34.6174 29.1475 33.9371 29.5763 33.6527 29.6947L31.7945 30.4702V27.1724Z" fill="white"></path><path d="M43.1 38.8225C35.4617 38.8225 25.1857 42.185 16.6639 42.185C9.33293 42.185 6.25118 40.7452 6.15527 40.6997C10.2887 50.4921 19.6657 56.8286 30.0333 56.8348C40.3844 56.828 49.7497 50.5103 53.8928 40.7401C53.8165 40.7117 48.7309 38.8225 43.1004 38.8225H43.1Z" fill="white"></path><path d="M16.9653 21.1771C24.8346 21.1771 34.8797 17.8143 43.4014 17.8143C50.3906 17.8143 53.8397 19.3147 53.9356 19.3602C49.8019 9.56775 40.3993 3.17099 30.0324 3.16449C19.6813 3.17133 10.2632 9.53832 6.12012 19.3089C6.19645 19.3373 11.2455 21.1771 16.9653 21.1771Z" fill="white"></path></g><defs><clipPath id="clip0_1801_38936"><rect width="58.1818" height="60" fill="white" transform="translate(0.958008)"></rect></clipPath></defs></svg>
