<svg width="48" height="48" viewBox="0 0 48 48" fill="none" xmlns="http://www.w3.org/2000/svg"><path d="M10.6154 43.0002C9.60513 43.0002 8.75 42.6502 8.05 41.9502C7.35 41.2502 7 40.395 7 39.3848V12.6157C7 11.6054 7.35 10.7503 8.05 10.0503C8.75 9.35028 9.60513 9.00028 10.6154 9.00028H13.3847V6.30793C13.3847 5.8695 13.5315 5.50348 13.8251 5.20988C14.1186 4.91631 14.4846 4.76953 14.9231 4.76953C15.3615 4.76953 15.7276 4.91631 16.0212 5.20988C16.3147 5.50348 16.4615 5.8695 16.4615 6.30793V9.00028H31.6153V6.26948C31.6153 5.84385 31.7589 5.48745 32.0461 5.20028C32.3332 4.91311 32.6896 4.76953 33.1153 4.76953C33.5409 4.76953 33.8973 4.91311 34.1845 5.20028C34.4717 5.48745 34.6153 5.84385 34.6153 6.26948V9.00028H37.3845C38.3948 9.00028 39.2499 9.35028 39.9499 10.0503C40.6499 10.7503 40.9999 11.6054 40.9999 12.6157V39.3848C40.9999 40.395 40.6499 41.2502 39.9499 41.9502C39.2499 42.6502 38.3948 43.0002 37.3845 43.0002H10.6154ZM10.6154 40.0002H37.3845C37.5384 40.0002 37.6794 39.9361 37.8077 39.8079C37.9359 39.6797 38 39.5386 38 39.3848V20.6157H9.99995V39.3848C9.99995 39.5386 10.064 39.6797 10.1922 39.8079C10.3205 39.9361 10.4615 40.0002 10.6154 40.0002ZM9.99995 17.6157H38V12.6157C38 12.4618 37.9359 12.3208 37.8077 12.1925C37.6794 12.0643 37.5384 12.0002 37.3845 12.0002H10.6154C10.4615 12.0002 10.3205 12.0643 10.1922 12.1925C10.064 12.3208 9.99995 12.4618 9.99995 12.6157V17.6157Z" fill="white"></path></svg>
