<svg width="100%" height="50" viewBox="0 0 94 50" fill="none" xmlns="http://www.w3.org/2000/svg"><path d="M66.0368 32.3619C64.7625 32.654 61.4085 32.8221 61.4085 32.8221L60.9837 34.1495C60.9837 34.1495 62.6563 34.0079 63.8775 34.1318C63.8775 34.1318 64.2757 34.0876 64.32 34.5832C64.3377 35.0433 64.2846 35.5389 64.2846 35.5389C64.2846 35.5389 64.258 35.8398 63.8332 35.9106C63.3731 35.9902 60.2226 36.1053 60.2226 36.1053L59.7094 37.8309C59.7094 37.8309 59.5235 38.2292 59.9483 38.1141C60.3465 38.0079 63.6474 37.3885 64.081 37.477C64.5412 37.592 65.0545 38.2026 64.904 38.769C64.7271 39.4593 61.435 41.5655 59.4262 41.415C59.4262 41.415 58.3731 41.4858 57.4793 40.061C56.6474 38.7071 57.7979 36.1318 57.7979 36.1318C57.7979 36.1318 57.2757 34.9283 57.6563 34.5301C57.6563 34.5301 57.8863 34.3265 58.5412 34.2734L59.3465 32.6009C59.3465 32.6009 58.4262 32.6628 57.8775 31.9902C57.3642 31.3442 57.3288 31.0522 57.7182 30.8752C58.1341 30.6717 61.966 29.9725 64.6032 30.061C64.6032 30.061 65.5235 29.9725 66.3111 31.5655C66.3023 31.5655 66.6917 32.2115 66.0368 32.3619ZM56.1164 38.7867C55.7802 39.5832 54.8863 40.4327 53.7801 39.9017C52.6828 39.3708 50.9394 35.8044 50.9394 35.8044C50.9394 35.8044 50.2757 34.477 50.1518 34.5035C50.1518 34.5035 50.0102 34.2469 49.9217 35.6982C49.8332 37.1495 49.9394 39.9725 49.3642 40.415C48.8156 40.8575 48.1518 40.6805 47.8067 40.1584C47.497 39.6451 47.3642 38.4239 47.5324 36.2823C47.7359 34.1407 48.2315 31.8575 48.8686 31.1407C49.5058 30.4327 50.0191 30.946 50.2138 31.1318C50.2138 31.1318 51.0633 31.9017 52.4704 34.1672L52.7182 34.5832C52.7182 34.5832 53.9925 36.7248 54.1253 36.7159C54.1253 36.7159 54.2315 36.8133 54.32 36.7425C54.4527 36.7071 54.3996 36.0168 54.3996 36.0168C54.3996 36.0168 54.1341 33.6894 52.9748 29.7425C52.9748 29.7425 52.7978 29.2469 52.9217 28.7867C53.0368 28.3177 53.5058 28.5389 53.5058 28.5389C53.5058 28.5389 55.3111 29.4416 56.1784 32.3796C57.0368 35.3442 56.4527 37.9902 56.1164 38.7867ZM47.2492 31.238C47.0987 31.5389 47.0102 31.9725 46.2492 32.0876C46.2492 32.0876 38.966 32.5832 38.6209 33.0964C38.6209 33.0964 38.3642 33.3973 38.7625 33.4858C39.1607 33.5655 40.8067 33.7867 41.6032 33.8309C42.4527 33.8398 45.32 33.8663 46.3465 35.1495C46.3465 35.1495 46.9571 35.7602 46.9306 37.1407C46.904 38.5566 46.6563 39.0522 46.1076 39.5655C45.5324 40.0433 40.5943 42.2557 37.4085 38.8575C37.4085 38.8575 35.9394 37.2203 37.9129 35.9814C37.9129 35.9814 39.3377 35.123 42.9571 36.1318C42.9571 36.1318 44.0545 36.5301 44.0014 36.9283C43.9394 37.3531 43.0987 37.8044 41.8775 37.7779C40.6917 37.7425 39.8244 37.1761 39.9925 37.2646C40.1518 37.3265 38.7182 36.5743 38.2757 37.0876C37.8332 37.5566 37.9394 37.8486 38.3731 38.1407C39.4793 38.769 43.7536 38.5478 45.0279 37.1318C45.0279 37.1318 45.5324 36.5566 44.7625 36.0876C43.9925 35.6451 41.789 35.3796 40.9306 35.3354C40.1076 35.2911 37.0456 35.3442 36.6032 34.5301C36.6032 34.5301 36.1607 33.9814 36.6474 32.4239C37.1607 30.7956 40.7271 30.1672 42.2669 30.0256C42.2669 30.0256 46.5058 29.8752 47.2846 30.7425C47.2757 30.7425 47.3819 30.946 47.2492 31.238ZM35.2138 40.7867C34.7005 41.1672 33.612 40.9991 33.3023 40.5743C32.9925 40.1938 32.8863 38.6805 32.9483 36.3088C33.0102 33.9106 33.0633 30.9371 33.5766 30.4681C34.1253 29.9902 34.4616 30.4062 34.674 30.7336C34.904 31.0522 35.1784 31.4062 35.2403 32.1584C35.2934 32.9106 35.4704 36.8575 35.4704 36.8575C35.4704 36.8575 35.7005 40.415 35.2138 40.7867ZM36.32 28.061C34.8244 28.5566 33.7979 28.3885 32.9306 28.0168C32.5501 28.6805 32.3288 28.884 32.0368 28.9283C31.612 28.9725 31.2315 28.2911 31.1607 28.0699C31.0899 27.9017 30.8863 27.6186 31.1341 26.946C30.2846 26.1849 30.2226 25.1584 30.3642 24.4681C30.5766 23.6717 32.0102 20.6451 36.3731 20.2911C36.3731 20.2911 38.5058 20.1318 38.8686 21.2734H38.9306C38.9306 21.2734 41.0014 21.2823 40.9571 23.123C40.9306 24.9725 38.6563 27.2734 36.32 28.061ZM32.2492 23.9637C31.8067 24.6717 31.789 25.0964 31.9925 25.3885C32.497 24.6186 33.4173 23.4062 34.7713 22.4858C33.7271 22.5743 32.8509 23.0256 32.2492 23.9637ZM38.2757 22.7779C36.904 22.9814 34.7802 24.8221 33.7713 26.3265C35.32 26.6097 38.0545 26.5035 39.2669 24.0345C39.258 24.0345 39.8421 22.5035 38.2757 22.7779ZM75.5147 37.0345C74.6917 38.4681 72.3819 41.4593 69.3023 40.7602C68.2846 43.2292 67.435 45.7159 66.9483 49.4504C66.9483 49.4504 66.8421 50.1761 66.2403 49.9194C65.6474 49.7071 64.6563 48.7159 64.4616 47.3442C64.2492 45.5389 65.0545 42.4858 66.6917 38.9902C66.2138 38.2115 65.8863 37.0964 66.1695 35.5124C66.1695 35.5124 66.5855 32.5743 69.5324 29.9194C69.5324 29.9194 69.8863 29.6097 70.0899 29.7071C70.32 29.8044 70.2138 30.7602 70.0279 31.2203C69.8421 31.6805 68.5235 33.9637 68.5235 33.9637C68.5235 33.9637 67.7005 35.5035 67.9306 36.7159C69.4793 34.3354 73.0014 29.5301 75.1872 31.0433C75.9217 31.5655 76.258 32.7071 76.258 33.9371C76.2492 35.0256 75.9925 36.1761 75.5147 37.0345ZM74.8775 33.2646C74.8775 33.2646 74.7536 32.3177 73.8333 33.3619C73.0368 34.238 71.6032 35.8929 70.4439 38.1318C71.6563 37.9991 72.8244 37.3354 73.1784 36.9991C73.7536 36.4858 75.0899 35.1053 74.8775 33.2646ZM31.9129 34.4681C31.7448 36.6097 30.9217 40.2115 25.0899 41.9902C21.2403 43.1495 17.6032 42.592 15.6209 42.0876C15.5766 42.8752 15.4881 43.2115 15.3642 43.3442C15.1961 43.5124 13.9394 44.238 13.2492 43.2115C12.9394 42.7248 12.7802 41.8398 12.6917 41.0522C8.23148 38.9991 6.17838 36.0433 6.09873 35.9106C6.00139 35.8132 4.98369 34.7513 6.00139 33.4504C6.95714 32.2734 10.081 31.0964 12.8952 30.6186C12.9925 28.2115 13.2757 26.3973 13.612 25.5655C14.0191 24.6009 14.5324 25.4681 14.9748 26.123C15.3465 26.6097 15.5678 28.7071 15.5855 30.3796C17.4262 30.2911 18.5147 30.4239 20.5678 30.7956C23.2403 31.2823 25.0279 32.6451 24.8686 34.1938C24.7536 35.7159 23.3554 36.3442 22.8244 36.3885C22.2669 36.4327 21.3996 36.0345 21.3996 36.0345C20.8067 35.7513 21.3554 35.5035 22.0722 35.1938C22.8509 34.8133 22.674 34.4239 22.674 34.4239C22.3819 33.5743 18.9129 32.9814 15.4616 32.9814C15.4439 34.884 15.5412 38.0433 15.5855 39.884C18.0014 40.3442 19.8067 40.2557 19.8067 40.2557C19.8067 40.2557 28.6209 40.0079 28.8863 34.3796C29.1607 28.7425 20.0987 23.3354 13.3996 21.6186C6.70935 19.8663 2.92174 21.0876 2.59431 21.2557C2.24033 21.4327 2.56776 21.4858 2.56776 21.4858C2.56776 21.4858 2.93059 21.5389 3.55891 21.7513C4.22263 21.9637 3.70935 22.3088 3.70935 22.3088C2.56776 22.6717 1.28458 22.4416 1.03679 21.9194C0.789 21.3973 1.20493 20.9283 1.68281 20.2557C2.16068 19.5478 2.68281 19.5743 2.68281 19.5743C10.9571 16.7071 21.0368 21.8929 21.0368 21.8929C30.4793 26.6805 32.0899 32.2911 31.9129 34.4681ZM6.93944 34.1761C6.00139 34.6363 6.64741 35.3 6.64741 35.3C8.40847 37.1938 10.5766 38.3796 12.6386 39.1141C12.8775 35.8486 12.8421 34.6982 12.8686 33.0522C9.64741 33.2734 7.789 33.7867 6.93944 34.1761Z" fill="white"></path><path d="M93.0366 33.5035V34.6716C93.0366 34.9283 92.833 35.1318 92.5764 35.1318H87.01C87.01 35.4239 87.0189 35.6805 87.0189 35.9194C87.0189 37.6451 86.9481 39.0522 86.7799 40.6363C86.7534 40.8752 86.5587 41.0522 86.3286 41.0522H85.1251C85.0012 41.0522 84.8861 40.9991 84.8065 40.9106C84.7268 40.8221 84.6826 40.6982 84.7003 40.5743C84.8684 38.9991 84.9481 37.6097 84.9481 35.9194C84.9481 35.6716 84.9481 35.415 84.9392 35.1318H79.4348C79.1782 35.1318 78.9746 34.9283 78.9746 34.6716V33.5035C78.9746 33.2469 79.1782 33.0433 79.4348 33.0433H84.8596C84.7445 31.1407 84.5144 29.3088 84.1428 27.4504C84.1251 27.3354 84.1516 27.2203 84.2224 27.1318C84.2932 27.0433 84.3994 26.9902 84.5144 26.9902H85.8153C86.0189 26.9902 86.187 27.1318 86.2312 27.3354C86.5941 29.2557 86.8242 31.123 86.9392 33.0433H92.5764C92.8242 33.0433 93.0366 33.2557 93.0366 33.5035Z" fill="white"></path><path d="M85.4617 24.238C82.5856 17.1672 77.7272 11.1407 71.4086 6.8044C64.9396 2.37077 57.3555 0.0256348 49.4794 0.0256348C36.4529 0.0256348 24.3644 6.49466 17.152 17.3354C17.0724 17.4504 17.0547 17.6009 17.0989 17.7336C17.1431 17.8752 17.2493 17.9725 17.3821 18.0168L18.3909 18.3619C18.4529 18.3796 18.5148 18.3885 18.5679 18.3885C18.7538 18.3885 18.9308 18.2911 19.037 18.1407C22.3467 13.2734 26.8246 9.22917 31.9927 6.43271C37.329 3.54776 43.3732 2.01679 49.4706 2.01679C56.8423 2.01679 63.9485 4.19378 70.0369 8.29997C75.975 12.3088 80.5856 17.9106 83.3732 24.4858C83.4529 24.6805 83.6476 24.8132 83.86 24.8132H85.0635C85.2051 24.8132 85.3378 24.7424 85.4086 24.6274C85.4971 24.5124 85.5148 24.3708 85.4617 24.238ZM18.5679 18.0876H18.5856C18.5856 18.0876 18.5768 18.0876 18.5679 18.0876ZM83.6122 24.654C83.6387 24.6717 83.6653 24.6894 83.6918 24.6982C83.6653 24.6805 83.6387 24.6717 83.6122 24.654Z" fill="url(#paint0_radial_1801_38946)"></path><defs><radialGradient id="paint0_radial_1801_38946" cx="0" cy="0" r="1" gradientUnits="userSpaceOnUse" gradientTransform="translate(84.3311 24.7686) scale(67.2676 67.2676)"><stop offset="0.007" stop-color="#F4F4F4"></stop><stop offset="0.03" stop-color="#B4B4B4"></stop><stop offset="0.057" stop-color="#B9B9B9"></stop><stop offset="0.084" stop-color="#B2B2B2"></stop><stop offset="0.111" stop-color="#D5D5D5"></stop><stop offset="0.138" stop-color="#D6D6D6"></stop><stop offset="0.165" stop-color="#F1F1F1"></stop><stop offset="0.191" stop-color="#E9E9E9"></stop><stop offset="0.216" stop-color="#E6E6E6"></stop><stop offset="1" stop-color="white" stop-opacity="0"></stop></radialGradient></defs></svg>
