<svg width="323" height="51" viewBox="0 0 323 51" fill="none" xmlns="http://www.w3.org/2000/svg">
<g clip-path="url(#clip0_194_6703)">
<path d="M38.9414 13.4627H40.7236L45.803 8.37337L46.0525 6.21266C43.1427 3.63936 39.6263 1.85179 35.8353 1.01879C32.0443 0.185786 28.104 0.334864 24.3865 1.45194C20.6691 2.56901 17.2972 4.6172 14.5894 7.40303C11.8816 10.1889 9.92732 13.6204 8.91113 17.3734C9.47699 17.141 10.1038 17.1033 10.6933 17.2662L20.852 15.5877C20.852 15.5877 21.3688 14.7305 21.6361 14.7841C23.8128 12.3888 26.8209 10.9178 30.0446 10.6722C33.2684 10.4265 36.4639 11.4248 38.9771 13.4627H38.9414Z" fill="#EA4335"/>
<path d="M53.0387 17.3733C51.8711 13.0655 49.4741 9.19287 46.1415 6.23047L39.0126 13.3733C40.4984 14.5897 41.689 16.1282 42.4948 17.8729C43.3006 19.6175 43.7004 21.5227 43.6642 23.4448V24.7126C44.4974 24.7126 45.3224 24.877 46.0922 25.1965C46.862 25.516 47.5614 25.9843 48.1506 26.5746C48.7397 27.1649 49.2071 27.8657 49.5259 28.637C49.8448 29.4083 50.0089 30.2349 50.0089 31.0698C50.0089 31.9046 49.8448 32.7312 49.5259 33.5025C49.2071 34.2738 48.7397 34.9746 48.1506 35.5649C47.5614 36.1552 46.862 36.6235 46.0922 36.943C45.3224 37.2625 44.4974 37.4269 43.6642 37.4269H30.9748L29.7095 38.7126V46.3376L30.9748 47.6055H43.6642C47.2077 47.6331 50.6659 46.5172 53.5274 44.4229C56.3888 42.3286 58.5015 39.3671 59.5529 35.9764C60.6042 32.5858 60.5385 28.9461 59.3653 25.5958C58.1921 22.2455 55.9739 19.3625 53.0387 17.3733Z" fill="#4285F4"/>
<path d="M18.2677 47.5342H30.9571V37.3556H18.2677C17.3637 37.3554 16.4702 37.1605 15.6479 36.7842L13.8657 37.3378L8.75073 42.427L8.30518 44.2128C11.1735 46.3829 14.6735 47.5498 18.2677 47.5342Z" fill="#34A853"/>
<path d="M18.2675 14.5162C14.8293 14.5368 11.4834 15.6328 8.69701 17.6512C5.91066 19.6696 3.82306 22.5096 2.72578 25.7745C1.6285 29.0393 1.57633 32.5661 2.57657 35.8621C3.57681 39.1581 5.57951 42.0588 8.30493 44.1591L15.6655 36.7841C14.7301 36.3606 13.9112 35.7162 13.2791 34.9059C12.647 34.0957 12.2205 33.1439 12.0362 32.1322C11.8519 31.1205 11.9153 30.0791 12.221 29.0973C12.5267 28.1156 13.0656 27.2228 13.7914 26.4956C14.5172 25.7684 15.4082 25.2285 16.388 24.9221C17.3678 24.6158 18.4072 24.5523 19.4169 24.7369C20.4266 24.9216 21.3766 25.3489 22.1852 25.9823C22.9939 26.6157 23.6371 27.4362 24.0597 28.3734L31.4202 20.9984C29.8753 18.9747 27.8842 17.3366 25.6024 16.2121C23.3207 15.0875 20.8103 14.5071 18.2675 14.5162Z" fill="#FBBC05"/>
<path d="M94.0829 40.427C91.8982 40.4549 89.7303 40.0407 87.7091 39.2092C85.6879 38.3776 83.8551 37.1459 82.3203 35.5878C80.7372 34.0957 79.4809 32.2903 78.631 30.286C77.7812 28.2818 77.3564 26.1224 77.3836 23.9449C77.3575 21.7676 77.7828 19.6085 78.6325 17.6044C79.4823 15.6003 80.738 13.7947 82.3203 12.302C83.8475 10.7278 85.677 9.47951 87.6986 8.63248C89.7201 7.78546 91.8918 7.35719 94.0829 7.37347C96.1707 7.34559 98.2431 7.7338 100.18 8.51552C102.117 9.29724 103.879 10.4569 105.364 11.927L102.192 15.1592C100.019 13.0555 97.1038 11.8998 94.0829 11.9449C92.5158 11.9256 90.9619 12.2332 89.5199 12.848C88.0778 13.4629 86.7792 14.3715 85.7065 15.5163C84.5917 16.6245 83.7122 17.9473 83.1211 19.405C82.5299 20.8627 82.2393 22.4253 82.2668 23.9985C82.2537 25.5537 82.5513 27.0959 83.142 28.5342C83.7328 29.9725 84.6047 31.2779 85.7065 32.3735C87.9135 34.5772 90.8918 35.8309 94.0074 35.8675C97.123 35.9042 100.13 34.7211 102.388 32.5699C103.786 31.036 104.644 29.0852 104.83 27.0163H94.1364V22.4449H109.267C109.416 23.3656 109.476 24.2985 109.446 25.2306C109.54 27.1599 109.242 29.0883 108.571 30.8992C107.901 32.7101 106.87 34.3658 105.543 35.7663C104.066 37.3062 102.283 38.5172 100.308 39.3202C98.3339 40.1233 96.2126 40.5004 94.0829 40.427ZM129.264 37.3913C127.233 39.3417 124.529 40.4305 121.716 40.4305C118.903 40.4305 116.199 39.3417 114.168 37.3913C113.158 36.4094 112.362 35.2278 111.831 33.9213C111.3 32.6148 111.046 31.2121 111.085 29.802C111.047 28.3922 111.302 26.9897 111.833 25.6834C112.363 24.3771 113.159 23.1953 114.168 22.2128C116.201 20.2665 118.905 19.1804 121.716 19.1804C124.528 19.1804 127.231 20.2665 129.264 22.2128C130.274 23.1953 131.069 24.3771 131.6 25.6834C132.13 26.9897 132.385 28.3922 132.347 29.802C132.384 31.2134 132.127 32.6169 131.593 33.9235C131.059 35.23 130.26 36.411 129.246 37.3913H129.264ZM117.501 34.4092C118.041 34.9871 118.694 35.4478 119.419 35.7628C120.144 36.0778 120.926 36.2403 121.716 36.2403C122.506 36.2403 123.288 36.0778 124.013 35.7628C124.738 35.4478 125.391 34.9871 125.931 34.4092C126.52 33.7993 126.981 33.0775 127.287 32.2862C127.593 31.4949 127.738 30.6503 127.713 29.802C127.74 28.9509 127.595 28.1032 127.289 27.3088C126.983 26.5145 126.521 25.7896 125.931 25.177C125.384 24.605 124.727 24.1498 123.999 23.8389C123.272 23.5279 122.489 23.3676 121.698 23.3676C120.907 23.3676 120.125 23.5279 119.397 23.8389C118.67 24.1498 118.013 24.605 117.466 25.177C116.875 25.7896 116.413 26.5145 116.107 27.3088C115.801 28.1032 115.657 28.9509 115.683 29.802C115.661 30.6515 115.808 31.4969 116.118 32.2883C116.427 33.0796 116.891 33.8008 117.483 34.4092H117.501ZM152.468 37.3913C150.438 39.3417 147.733 40.4305 144.921 40.4305C142.108 40.4305 139.404 39.3417 137.373 37.3913C136.362 36.4094 135.566 35.2278 135.035 33.9213C134.505 32.6148 134.251 31.2121 134.29 29.802C134.252 28.3922 134.506 26.9897 135.037 25.6834C135.568 24.3771 136.363 23.1953 137.373 22.2128C139.404 20.2624 142.108 19.1736 144.921 19.1736C147.733 19.1736 150.438 20.2624 152.468 22.2128C153.478 23.1953 154.273 24.3771 154.804 25.6834C155.335 26.9897 155.589 28.3922 155.551 29.802C155.59 31.2121 155.336 32.6148 154.806 33.9213C154.275 35.2278 153.479 36.4094 152.468 37.3913ZM140.706 34.4092C141.246 34.9871 141.898 35.4478 142.623 35.7628C143.348 36.0778 144.13 36.2403 144.921 36.2403C145.711 36.2403 146.493 36.0778 147.218 35.7628C147.943 35.4478 148.595 34.9871 149.135 34.4092C149.724 33.7993 150.186 33.0775 150.492 32.2862C150.798 31.4949 150.943 30.6503 150.918 29.802C150.944 28.9509 150.8 28.1032 150.494 27.3088C150.188 26.5145 149.726 25.7896 149.135 25.177C148.588 24.605 147.931 24.1498 147.204 23.8389C146.476 23.5279 145.694 23.3676 144.903 23.3676C144.112 23.3676 143.329 23.5279 142.602 23.8389C141.874 24.1498 141.217 24.605 140.67 25.177C140.08 25.7896 139.618 26.5145 139.312 27.3088C139.006 28.1032 138.861 28.9509 138.888 29.802C138.865 30.6515 139.013 31.4969 139.322 32.2883C139.631 33.0796 140.096 33.8008 140.688 34.4092H140.706ZM167.724 49.9628C165.588 50.0308 163.493 49.3627 161.789 48.0699C160.276 46.9304 159.085 45.4167 158.332 43.677L162.395 41.9806C162.837 43.0203 163.529 43.9343 164.409 44.6413C165.351 45.402 166.533 45.8009 167.742 45.7663C168.509 45.8131 169.276 45.6937 169.993 45.4164C170.71 45.139 171.358 44.7102 171.894 44.1592C172.968 42.8615 173.498 41.1974 173.374 39.5163V37.9806H173.213C172.534 38.7888 171.676 39.4275 170.708 39.8459C169.74 40.2643 168.688 40.4511 167.635 40.3913C166.297 40.3954 164.972 40.1214 163.745 39.5865C162.518 39.0517 161.415 38.2678 160.506 37.2842C159.519 36.3084 158.741 35.1422 158.217 33.8562C157.693 32.5701 157.435 31.1909 157.458 29.802C157.434 28.4051 157.691 27.0175 158.215 25.7226C158.738 24.4277 159.518 23.2521 160.506 22.2663C161.413 21.2786 162.515 20.4908 163.742 19.9528C164.97 19.4148 166.295 19.1385 167.635 19.1413C168.769 19.1393 169.889 19.3894 170.914 19.8735C171.801 20.2617 172.592 20.8409 173.231 21.5699H173.391V19.8735H177.811V38.8913C177.928 40.3958 177.736 41.9082 177.249 43.3359C176.762 44.7637 175.989 46.0768 174.978 47.1949C174.014 48.1183 172.876 48.8389 171.63 49.3143C170.384 49.7897 169.056 50.0102 167.724 49.9628ZM168.045 36.2485C168.806 36.2652 169.561 36.1139 170.257 35.8053C170.953 35.4967 171.573 35.0383 172.073 34.4628C173.172 33.2002 173.752 31.5661 173.694 29.8913C173.76 28.1883 173.181 26.5233 172.073 25.2306C171.574 24.6541 170.954 24.195 170.258 23.8863C169.562 23.5776 168.806 23.4269 168.045 23.4449C167.263 23.4288 166.487 23.5797 165.768 23.8876C165.049 24.1955 164.403 24.6534 163.874 25.2306C162.695 26.4769 162.055 28.1389 162.092 29.8556C162.074 30.6977 162.222 31.535 162.528 32.3195C162.834 33.104 163.291 33.8203 163.874 34.427C164.401 35.0099 165.045 35.4738 165.764 35.7878C166.483 36.1019 167.26 36.2589 168.045 36.2485ZM185.671 8.5699V39.7842H181.019V8.5699H185.671ZM198.431 40.427C197.038 40.4629 195.653 40.2102 194.362 39.6848C193.071 39.1594 191.902 38.3725 190.928 37.3735C189.941 36.3818 189.164 35.1992 188.646 33.8977C188.129 32.5961 187.88 31.2027 187.916 29.802C187.864 28.3979 188.094 26.9976 188.593 25.6845C189.092 24.3714 189.85 23.1725 190.821 22.1592C191.737 21.1922 192.844 20.4274 194.072 19.9139C195.299 19.4003 196.62 19.1494 197.95 19.177C199.173 19.1641 200.386 19.4011 201.515 19.8735C202.531 20.2846 203.458 20.8913 204.242 21.6592C204.915 22.3102 205.512 23.035 206.024 23.8199C206.437 24.4826 206.789 25.182 207.075 25.9092L207.556 27.1235L193.299 32.9985C193.73 33.9912 194.451 34.8296 195.367 35.4034C196.284 35.9772 197.352 36.2594 198.431 36.2128C199.482 36.2156 200.515 35.9457 201.43 35.4293C202.345 34.9129 203.111 34.1677 203.653 33.2663L207.218 35.677C206.308 36.981 205.144 38.0866 203.796 38.927C202.193 39.942 200.328 40.4635 198.431 40.427ZM192.479 29.4806L201.96 25.5342C201.668 24.8383 201.146 24.2645 200.481 23.9092C199.737 23.488 198.894 23.2724 198.039 23.2842C196.589 23.3218 195.212 23.9315 194.208 24.9806C193.607 25.5569 193.14 26.2591 192.841 27.037C192.542 27.8149 192.419 28.6493 192.479 29.4806Z" fill="#5F6368"/>
<path d="M231.919 40.4271C229.941 40.4613 227.976 40.0947 226.143 39.3491C224.31 38.6036 222.646 37.4946 221.251 36.0886C219.856 34.6827 218.759 33.0088 218.026 31.1675C217.293 29.3262 216.939 27.3554 216.984 25.3736C216.939 23.3917 217.293 21.4209 218.026 19.5796C218.759 17.7383 219.856 16.0644 221.251 14.6585C222.646 13.2525 224.31 12.1435 226.143 11.398C227.976 10.6524 229.941 10.2858 231.919 10.32C233.922 10.2573 235.912 10.6487 237.742 11.465C239.572 12.2814 241.195 13.5015 242.488 15.0343L239.922 17.5343C238.972 16.3376 237.754 15.3825 236.367 14.7464C234.979 14.1103 233.462 13.8112 231.937 13.8736C230.47 13.8404 229.011 14.1049 227.648 14.6512C226.285 15.1974 225.046 16.0141 224.006 17.0521C222.925 18.1414 222.081 19.443 221.525 20.875C220.97 22.307 220.717 23.8386 220.781 25.3736C220.717 26.9085 220.97 28.4401 221.525 29.8721C222.081 31.3041 222.925 32.6057 224.006 33.695C225.046 34.733 226.285 35.5497 227.648 36.096C229.011 36.6422 230.47 36.9067 231.937 36.8736C233.64 36.8927 235.326 36.5269 236.869 35.8035C238.412 35.0801 239.772 34.0176 240.848 32.695L243.415 35.2664C242.071 36.8764 240.384 38.1639 238.478 39.0343C236.423 39.9847 234.182 40.4607 231.919 40.4271Z" fill="#5F6368"/>
<path d="M250.312 39.7841H246.623V10.9448H250.312V39.7841Z" fill="#5F6368"/>
<path d="M256.336 22.427C258.269 20.5034 260.883 19.4238 263.607 19.4238C266.332 19.4238 268.946 20.5034 270.879 22.427C271.824 23.427 272.563 24.6045 273.052 25.8916C273.541 27.1788 273.772 28.5502 273.73 29.927C273.772 31.3037 273.541 32.6751 273.052 33.9623C272.563 35.2494 271.824 36.4269 270.879 37.427C268.946 39.3505 266.332 40.4301 263.607 40.4301C260.883 40.4301 258.269 39.3505 256.336 37.427C255.391 36.4269 254.652 35.2494 254.163 33.9623C253.673 32.6751 253.443 31.3037 253.484 29.927C253.443 28.5502 253.673 27.1788 254.163 25.8916C254.652 24.6045 255.391 23.427 256.336 22.427ZM259.08 35.1055C259.662 35.721 260.362 36.2113 261.139 36.5464C261.916 36.8814 262.753 37.0542 263.598 37.0542C264.444 37.0542 265.281 36.8814 266.058 36.5464C266.835 36.2113 267.535 35.721 268.116 35.1055C268.761 34.4123 269.262 33.5973 269.589 32.7083C269.917 31.8192 270.064 30.8737 270.023 29.927C270.064 28.9802 269.917 28.0347 269.589 27.1456C269.262 26.2566 268.761 25.4417 268.116 24.7484C267.535 24.1329 266.835 23.6426 266.058 23.3075C265.281 22.9725 264.444 22.7997 263.598 22.7997C262.753 22.7997 261.916 22.9725 261.139 23.3075C260.362 23.6426 259.662 24.1329 259.08 24.7484C258.436 25.4417 257.935 26.2566 257.608 27.1456C257.28 28.0347 257.133 28.9802 257.173 29.927C257.137 30.872 257.289 31.8148 257.619 32.7007C257.95 33.5866 258.452 34.398 259.098 35.0877L259.08 35.1055Z" fill="#5F6368"/>
<path d="M294.172 39.7841H290.608V37.052H290.501C289.866 38.0897 288.968 38.94 287.899 39.5163C286.789 40.1609 285.528 40.4997 284.245 40.4984C283.203 40.5698 282.159 40.4045 281.19 40.0149C280.221 39.6253 279.352 39.0215 278.649 38.2484C277.299 36.5374 276.62 34.3904 276.742 32.2127V20.0698H280.431V31.5341C280.431 35.2127 282.053 37.052 285.297 37.052C286.017 37.0745 286.733 36.9242 287.384 36.6136C288.035 36.303 288.602 35.841 289.039 35.2663C289.995 34.052 290.505 32.5449 290.483 30.9984V20.0698H294.172V39.7841Z" fill="#5F6368"/>
<path d="M306.701 40.427C305.449 40.4311 304.212 40.1635 303.074 39.6425C301.935 39.1216 300.923 38.3596 300.107 37.4091C298.259 35.3643 297.27 32.6843 297.344 29.927C297.27 27.1696 298.259 24.4896 300.107 22.4448C300.923 21.4943 301.935 20.7324 303.074 20.2114C304.212 19.6904 305.449 19.4228 306.701 19.427C308.103 19.4048 309.488 19.7364 310.729 20.3913C311.819 20.9409 312.742 21.7734 313.402 22.802H313.562L313.402 20.0698V10.9448H317.091V39.7841H313.527V37.052H313.366C312.706 38.0805 311.783 38.913 310.693 39.4627C309.463 40.1117 308.091 40.4432 306.701 40.427ZM307.307 37.052C308.141 37.0641 308.968 36.8985 309.733 36.566C310.498 36.2335 311.184 35.7417 311.745 35.1234C312.998 33.6936 313.638 31.8266 313.527 29.927C313.638 28.0274 312.998 26.1603 311.745 24.7305C311.18 24.1088 310.492 23.6121 309.725 23.2723C308.958 22.9324 308.128 22.7568 307.289 22.7568C306.45 22.7568 305.621 22.9324 304.853 23.2723C304.086 23.6121 303.398 24.1088 302.834 24.7305C302.211 25.4338 301.733 26.2532 301.427 27.1418C301.121 28.0305 300.994 28.9709 301.051 29.9091C300.994 30.8473 301.121 31.7877 301.427 32.6764C301.733 33.565 302.211 34.3845 302.834 35.0877C303.395 35.7171 304.085 36.2182 304.857 36.5571C305.629 36.896 306.464 37.0648 307.307 37.052Z" fill="#5F6368"/>
</g>
<defs>
<clipPath id="clip0_194_6703">
<rect width="322.581" height="50" fill="white" transform="translate(0 0.230469)"/>
</clipPath>
</defs>
</svg>
