<svg width="48" height="48" viewBox="0 0 48 48" fill="none" xmlns="http://www.w3.org/2000/svg"><path d="M41.9998 10.6C41.3998 10 40.3998 9.6 39.3998 9.6H30.9998V7.6C30.9998 6.6 30.5998 5.8 29.9998 5C29.1998 4.4 28.3998 4 27.3998 4H20.5998C19.5998 4 18.7998 4.4 17.9998 5C17.3998 5.8 16.9998 6.6 16.9998 7.6V9.4H8.59976C7.59976 9.4 6.79976 9.8 5.99976 10.6C5.39976 11.2 4.99976 12 4.99976 13V42C4.99976 42.8 5.39976 43.4 6.19976 43.6C6.99976 43.8 7.59976 43.8 8.19976 43.2L12.1998 39.2H39.5998C40.5998 39.2 41.3998 38.8 42.1998 38.2C42.9998 37.6 43.1998 36.6 43.1998 35.6V13C42.9998 12 42.5998 11.2 41.9998 10.6ZM19.9998 7.6C19.9998 7.4 19.9998 7.4 20.1998 7.2C20.3998 7 20.3998 7 20.5998 7H27.3998C27.5998 7 27.5998 7 27.7998 7.2C27.9998 7.2 27.9998 7.4 27.9998 7.6V9.4H19.9998V7.6ZM39.9998 35.8C39.9998 36 39.9998 36 39.7998 36.2C39.5998 36.4 39.5998 36.4 39.3998 36.4H10.7998L7.99976 39.2V36.4V13C7.99976 12.8 7.99976 12.8 8.19976 12.6C8.39976 12.4 8.39976 12.4 8.59976 12.4H39.3998C39.5998 12.4 39.5998 12.4 39.7998 12.6C39.9998 12.8 39.9998 13 39.9998 13V35.8Z" fill="#317EFF"></path><path d="M15.1998 28.6001H13.1998C12.7998 28.6001 12.3998 28.8001 12.1998 29.0001C11.9998 29.2001 11.7998 29.6001 11.7998 30.0001C11.7998 30.4001 11.9998 30.8001 12.1998 31.0001C12.3998 31.2001 12.7998 31.4001 13.1998 31.4001H15.1998C15.5998 31.4001 15.9998 31.2001 16.1998 31.0001C16.3998 30.8001 16.5998 30.4001 16.5998 30.0001C16.5998 29.6001 16.3998 29.2001 16.1998 29.0001C15.9998 28.8001 15.5998 28.6001 15.1998 28.6001Z" fill="#317EFF"></path><path d="M17.1998 22.6001H13.1998C12.7998 22.6001 12.3998 22.8001 12.1998 23.0001C11.9998 23.2001 11.7998 23.6001 11.7998 24.0001C11.7998 24.4001 11.9998 24.8001 12.1998 25.0001C12.3998 25.2001 12.7998 25.4001 13.1998 25.4001H17.1998C17.5998 25.4001 17.9998 25.2001 18.1998 25.0001C18.3998 24.8001 18.5998 24.4001 18.5998 24.0001C18.5998 23.6001 18.3998 23.2001 18.1998 23.0001C17.9998 22.8001 17.5998 22.6001 17.1998 22.6001Z" fill="#317EFF"></path><path d="M13.1998 19.6H33.1998C33.5998 19.6 33.9998 19.4001 34.1998 19.2001C34.3998 19.0001 34.5998 18.6001 34.5998 18.2001C34.5998 17.8001 34.3998 17.4001 34.1998 17.2001C33.9998 17.0001 33.5998 16.8 33.1998 16.8H13.1998C12.7998 16.8 12.3998 17.0001 12.1998 17.2001C11.7998 17.4001 11.7998 17.8001 11.7998 18.2001C11.7998 18.6001 11.9998 19.0001 12.1998 19.2001C12.3998 19.6001 12.7998 19.6 13.1998 19.6Z" fill="#317EFF"></path><path d="M26.9997 24.2C26.9997 24 26.7997 23.6 26.5997 23.4C26.3997 23.2 25.9997 23 25.7997 23C25.3997 23 25.1997 23.2 24.9997 23.4L21.5997 26.8C21.3997 27 21.1997 27.4 21.1997 27.8C21.1997 28.2 21.3997 28.6 21.5997 28.8L24.9997 32.2C25.1997 32.4 25.5997 32.6 25.7997 32.6C26.1997 32.6 26.3997 32.4 26.5997 32.2C26.7997 32 26.9997 31.6 26.9997 31.4C26.9997 31 26.7997 30.8 26.5997 30.6L23.9997 27.6L26.5997 25C26.7997 24.8 26.9997 24.4 26.9997 24.2Z" fill="#317EFF"></path><path d="M32.5999 23.4C32.3999 23.2 32.1999 23 31.7999 23C31.5999 23 31.1999 23.2 30.9999 23.4C30.7999 23.6 30.5999 24 30.5999 24.2C30.5999 24.4 30.7999 24.8 30.9999 25L33.5999 27.6L30.9999 30.6C30.7999 30.8 30.5999 31 30.5999 31.4C30.5999 31.6 30.7999 32 30.9999 32.2C31.1999 32.4 31.3999 32.6 31.7999 32.6C31.9999 32.6 32.3999 32.4 32.5999 32.2L35.9999 28.8C36.1999 28.6 36.3999 28.2 36.3999 27.8C36.3999 27.4 36.1999 27 35.9999 26.8L32.5999 23.4Z" fill="#317EFF"></path></svg>
